<mxfile host="app.diagrams.net" modified="2024-03-19T07:27:07.685Z" agent="Mozilla/5.0 (Windows NT 10.0; Win64; x64) AppleWebKit/537.36 (KHTML, like Gecko) Chrome/122.0.0.0 Safari/537.36 Edg/122.0.0.0" etag="Vvoml4rbLHNagle3ZfBE" version="24.0.6" type="device" pages="8">
  <diagram name="Page-1" id="0rnPr04E8pN7HaPFcmO6">
    <mxGraphModel dx="1127" dy="496" grid="1" gridSize="10" guides="1" tooltips="1" connect="1" arrows="1" fold="1" page="1" pageScale="1" pageWidth="850" pageHeight="1100" math="0" shadow="0">
      <root>
        <mxCell id="0" />
        <mxCell id="1" parent="0" />
        <UserObject label="" plantUmlData="{&quot;data&quot;:&quot;@startuml\n\nstart\n\nif (bil &lt; 0) then (ya)\n  :tidak valid;\n  stop\nelse (tidak)\n  :akar = 0;\n  while (akar * akar &lt;= bil) is (loop)\n    :akar++;\n  endwhile (loop)\n  :akar--;\n  if (akar * akar = bil) then (ya)\n    :akar adalah akar kuadrat;\n  else (tidak)\n    :akar adalah hasil pembulatan bawah dari akar kuadrat;\n  endif\n  stop\nendif\n\n@enduml\n&quot;,&quot;format&quot;:&quot;svg&quot;}" id="zXb4oE4sUT_epowKujfZ-5">
          <mxCell style="shape=image;noLabel=1;verticalAlign=top;aspect=fixed;imageAspect=0;image=data:image/svg+xml,PD94bWwgdmVyc2lvbj0iMS4wIiBlbmNvZGluZz0idXMtYXNjaWkiIHN0YW5kYWxvbmU9Im5vIj8+PHN2ZyB4bWxucz0iaHR0cDovL3d3dy53My5vcmcvMjAwMC9zdmciIHhtbG5zOnhsaW5rPSJodHRwOi8vd3d3LnczLm9yZy8xOTk5L3hsaW5rIiBjb250ZW50U3R5bGVUeXBlPSJ0ZXh0L2NzcyIgaGVpZ2h0PSI0NzBweCIgcHJlc2VydmVBc3BlY3RSYXRpbz0ibm9uZSIgc3R5bGU9IndpZHRoOjY4OHB4O2hlaWdodDo0NzBweDtiYWNrZ3JvdW5kOiNGRkZGRkY7IiB2ZXJzaW9uPSIxLjEiIHZpZXdCb3g9IjAgMCA2ODggNDcwIiB3aWR0aD0iNjg4cHgiIHpvb21BbmRQYW49Im1hZ25pZnkiPjxkZWZzLz48Zz48ZWxsaXBzZSBjeD0iMTkyLjM3NSIgY3k9IjIwIiBmaWxsPSIjMjIyMjIyIiByeD0iMTAiIHJ5PSIxMCIgc3R5bGU9InN0cm9rZTojMjIyMjIyO3N0cm9rZS13aWR0aDoxLjA7Ii8+PHBvbHlnb24gZmlsbD0iI0YxRjFGMSIgcG9pbnRzPSIxNzEuMzc1LDUwLDIxMy4zNzUsNTAsMjI1LjM3NSw2MiwyMTMuMzc1LDc0LDE3MS4zNzUsNzQsMTU5LjM3NSw2MiwxNzEuMzc1LDUwIiBzdHlsZT0ic3Ryb2tlOiMxODE4MTg7c3Ryb2tlLXdpZHRoOjAuNTsiLz48dGV4dCBmaWxsPSIjMDAwMDAwIiBmb250LWZhbWlseT0ic2Fucy1zZXJpZiIgZm9udC1zaXplPSIxMSIgbGVuZ3RoQWRqdXN0PSJzcGFjaW5nIiB0ZXh0TGVuZ3RoPSI0MiIgeD0iMTcxLjM3NSIgeT0iNjYuNTExNyI+YmlsICZsdDsgMDwvdGV4dD48dGV4dCBmaWxsPSIjMDAwMDAwIiBmb250LWZhbWlseT0ic2Fucy1zZXJpZiIgZm9udC1zaXplPSIxMSIgbGVuZ3RoQWRqdXN0PSJzcGFjaW5nIiB0ZXh0TGVuZ3RoPSIxMiIgeD0iMTQ3LjM3NSIgeT0iNjAuNjI1Ij55YTwvdGV4dD48dGV4dCBmaWxsPSIjMDAwMDAwIiBmb250LWZhbWlseT0ic2Fucy1zZXJpZiIgZm9udC1zaXplPSIxMSIgbGVuZ3RoQWRqdXN0PSJzcGFjaW5nIiB0ZXh0TGVuZ3RoPSIzMCIgeD0iMjI1LjM3NSIgeT0iNjAuNjI1Ij50aWRhazwvdGV4dD48cmVjdCBmaWxsPSIjRjFGMUYxIiBoZWlnaHQ9IjMyLjg0MzgiIHJ4PSIxMi41IiByeT0iMTIuNSIgc3R5bGU9InN0cm9rZTojMTgxODE4O3N0cm9rZS13aWR0aDowLjU7IiB3aWR0aD0iOTEiIHg9IjExIiB5PSI4NCIvPjx0ZXh0IGZpbGw9IiMwMDAwMDAiIGZvbnQtZmFtaWx5PSJzYW5zLXNlcmlmIiBmb250LXNpemU9IjEyIiBsZW5ndGhBZGp1c3Q9InNwYWNpbmciIHRleHRMZW5ndGg9IjcxIiB4PSIyMSIgeT0iMTA1LjM0MzgiPnRpZGFrIHZhbGlkPC90ZXh0PjxlbGxpcHNlIGN4PSI1Ni41IiBjeT0iMTQ3Ljg0MzgiIGZpbGw9Im5vbmUiIHJ4PSIxMSIgcnk9IjExIiBzdHlsZT0ic3Ryb2tlOiMyMjIyMjI7c3Ryb2tlLXdpZHRoOjEuMDsiLz48ZWxsaXBzZSBjeD0iNTYuNSIgY3k9IjE0Ny44NDM4IiBmaWxsPSIjMjIyMjIyIiByeD0iNiIgcnk9IjYiIHN0eWxlPSJzdHJva2U6IzIyMjIyMjtzdHJva2Utd2lkdGg6MS4wOyIvPjxyZWN0IGZpbGw9IiNGMUYxRjEiIGhlaWdodD0iMzIuODQzOCIgcng9IjEyLjUiIHJ5PSIxMi41IiBzdHlsZT0ic3Ryb2tlOiMxODE4MTg7c3Ryb2tlLXdpZHRoOjAuNTsiIHdpZHRoPSI3MSIgeD0iMzEyLjc1IiB5PSI4NCIvPjx0ZXh0IGZpbGw9IiMwMDAwMDAiIGZvbnQtZmFtaWx5PSJzYW5zLXNlcmlmIiBmb250LXNpemU9IjEyIiBsZW5ndGhBZGp1c3Q9InNwYWNpbmciIHRleHRMZW5ndGg9IjUxIiB4PSIzMjIuNzUiIHk9IjEwNS4zNDM4Ij5ha2FyID0gMDwvdGV4dD48cmVjdCBmaWxsPSIjRjFGMUYxIiBoZWlnaHQ9IjMyLjg0MzgiIHJ4PSIxMi41IiByeT0iMTIuNSIgc3R5bGU9InN0cm9rZTojMTgxODE4O3N0cm9rZS13aWR0aDowLjU7IiB3aWR0aD0iNTkiIHg9IjMxOC43NSIgeT0iMTkyLjc0MjIiLz48dGV4dCBmaWxsPSIjMDAwMDAwIiBmb250LWZhbWlseT0ic2Fucy1zZXJpZiIgZm9udC1zaXplPSIxMiIgbGVuZ3RoQWRqdXN0PSJzcGFjaW5nIiB0ZXh0TGVuZ3RoPSIzOSIgeD0iMzI4Ljc1IiB5PSIyMTQuMDg1OSI+YWthcisrPC90ZXh0Pjxwb2x5Z29uIGZpbGw9IiNGMUYxRjEiIHBvaW50cz0iMjk0LjI1LDEzNi44NDM4LDQwMi4yNSwxMzYuODQzOCw0MTQuMjUsMTQ4Ljg0MzgsNDAyLjI1LDE2MC44NDM4LDI5NC4yNSwxNjAuODQzOCwyODIuMjUsMTQ4Ljg0MzgsMjk0LjI1LDEzNi44NDM4IiBzdHlsZT0ic3Ryb2tlOiMxODE4MTg7c3Ryb2tlLXdpZHRoOjAuNTsiLz48dGV4dCBmaWxsPSIjMDAwMDAwIiBmb250LWZhbWlseT0ic2Fucy1zZXJpZiIgZm9udC1zaXplPSIxMSIgbGVuZ3RoQWRqdXN0PSJzcGFjaW5nIiB0ZXh0TGVuZ3RoPSIyNCIgeD0iMzUyLjI1IiB5PSIxNzEuMjQyMiI+bG9vcDwvdGV4dD48dGV4dCBmaWxsPSIjMDAwMDAwIiBmb250LWZhbWlseT0ic2Fucy1zZXJpZiIgZm9udC1zaXplPSIxMSIgbGVuZ3RoQWRqdXN0PSJzcGFjaW5nIiB0ZXh0TGVuZ3RoPSIxMDgiIHg9IjI5NC4yNSIgeT0iMTUzLjM1NTUiPmFrYXIgKiBha2FyICZsdDs9IGJpbDwvdGV4dD48dGV4dCBmaWxsPSIjMDAwMDAwIiBmb250LWZhbWlseT0ic2Fucy1zZXJpZiIgZm9udC1zaXplPSIxMSIgbGVuZ3RoQWRqdXN0PSJzcGFjaW5nIiB0ZXh0TGVuZ3RoPSIyNCIgeD0iMjU4LjI1IiB5PSIxNDcuNDY4OCI+bG9vcDwvdGV4dD48cmVjdCBmaWxsPSIjRjFGMUYxIiBoZWlnaHQ9IjMyLjg0MzgiIHJ4PSIxMi41IiByeT0iMTIuNSIgc3R5bGU9InN0cm9rZTojMTgxODE4O3N0cm9rZS13aWR0aDowLjU7IiB3aWR0aD0iNTkiIHg9IjMxOC43NSIgeT0iMjY3LjU4NTkiLz48dGV4dCBmaWxsPSIjMDAwMDAwIiBmb250LWZhbWlseT0ic2Fucy1zZXJpZiIgZm9udC1zaXplPSIxMiIgbGVuZ3RoQWRqdXN0PSJzcGFjaW5nIiB0ZXh0TGVuZ3RoPSIzOSIgeD0iMzI4Ljc1IiB5PSIyODguOTI5NyI+YWthci0tPC90ZXh0Pjxwb2x5Z29uIGZpbGw9IiNGMUYxRjEiIHBvaW50cz0iMjk3LjI1LDMyMC40Mjk3LDM5OS4yNSwzMjAuNDI5Nyw0MTEuMjUsMzMyLjQyOTcsMzk5LjI1LDM0NC40Mjk3LDI5Ny4yNSwzNDQuNDI5NywyODUuMjUsMzMyLjQyOTcsMjk3LjI1LDMyMC40Mjk3IiBzdHlsZT0ic3Ryb2tlOiMxODE4MTg7c3Ryb2tlLXdpZHRoOjAuNTsiLz48dGV4dCBmaWxsPSIjMDAwMDAwIiBmb250LWZhbWlseT0ic2Fucy1zZXJpZiIgZm9udC1zaXplPSIxMSIgbGVuZ3RoQWRqdXN0PSJzcGFjaW5nIiB0ZXh0TGVuZ3RoPSIxMDIiIHg9IjI5Ny4yNSIgeT0iMzM2Ljk0MTQiPmFrYXIgKiBha2FyID0gYmlsPC90ZXh0Pjx0ZXh0IGZpbGw9IiMwMDAwMDAiIGZvbnQtZmFtaWx5PSJzYW5zLXNlcmlmIiBmb250LXNpemU9IjExIiBsZW5ndGhBZGp1c3Q9InNwYWNpbmciIHRleHRMZW5ndGg9IjEyIiB4PSIyNzMuMjUiIHk9IjMzMS4wNTQ3Ij55YTwvdGV4dD48dGV4dCBmaWxsPSIjMDAwMDAwIiBmb250LWZhbWlseT0ic2Fucy1zZXJpZiIgZm9udC1zaXplPSIxMSIgbGVuZ3RoQWRqdXN0PSJzcGFjaW5nIiB0ZXh0TGVuZ3RoPSIzMCIgeD0iNDExLjI1IiB5PSIzMzEuMDU0NyI+dGlkYWs8L3RleHQ+PHJlY3QgZmlsbD0iI0YxRjFGMSIgaGVpZ2h0PSIzMi44NDM4IiByeD0iMTIuNSIgcnk9IjEyLjUiIHN0eWxlPSJzdHJva2U6IzE4MTgxODtzdHJva2Utd2lkdGg6MC41OyIgd2lkdGg9IjE4MCIgeD0iMTEyIiB5PSIzNTQuNDI5NyIvPjx0ZXh0IGZpbGw9IiMwMDAwMDAiIGZvbnQtZmFtaWx5PSJzYW5zLXNlcmlmIiBmb250LXNpemU9IjEyIiBsZW5ndGhBZGp1c3Q9InNwYWNpbmciIHRleHRMZW5ndGg9IjE2MCIgeD0iMTIyIiB5PSIzNzUuNzczNCI+YWthciBhZGFsYWggYWthciBrdWFkcmF0PC90ZXh0PjxyZWN0IGZpbGw9IiNGMUYxRjEiIGhlaWdodD0iMzIuODQzOCIgcng9IjEyLjUiIHJ5PSIxMi41IiBzdHlsZT0ic3Ryb2tlOiMxODE4MTg7c3Ryb2tlLXdpZHRoOjAuNTsiIHdpZHRoPSIzNjUiIHg9IjMxMiIgeT0iMzU0LjQyOTciLz48dGV4dCBmaWxsPSIjMDAwMDAwIiBmb250LWZhbWlseT0ic2Fucy1zZXJpZiIgZm9udC1zaXplPSIxMiIgbGVuZ3RoQWRqdXN0PSJzcGFjaW5nIiB0ZXh0TGVuZ3RoPSIzNDUiIHg9IjMyMiIgeT0iMzc1Ljc3MzQiPmFrYXIgYWRhbGFoIGhhc2lsIHBlbWJ1bGF0YW4gYmF3YWggZGFyaSBha2FyIGt1YWRyYXQ8L3RleHQ+PHBvbHlnb24gZmlsbD0iI0YxRjFGMSIgcG9pbnRzPSIzNDguMjUsMzkzLjI3MzQsMzYwLjI1LDQwNS4yNzM0LDM0OC4yNSw0MTcuMjczNCwzMzYuMjUsNDA1LjI3MzQsMzQ4LjI1LDM5My4yNzM0IiBzdHlsZT0ic3Ryb2tlOiMxODE4MTg7c3Ryb2tlLXdpZHRoOjAuNTsiLz48ZWxsaXBzZSBjeD0iMzQ4LjI1IiBjeT0iNDQ4LjI3MzQiIGZpbGw9Im5vbmUiIHJ4PSIxMSIgcnk9IjExIiBzdHlsZT0ic3Ryb2tlOiMyMjIyMjI7c3Ryb2tlLXdpZHRoOjEuMDsiLz48ZWxsaXBzZSBjeD0iMzQ4LjI1IiBjeT0iNDQ4LjI3MzQiIGZpbGw9IiMyMjIyMjIiIHJ4PSI2IiByeT0iNiIgc3R5bGU9InN0cm9rZTojMjIyMjIyO3N0cm9rZS13aWR0aDoxLjA7Ii8+PGxpbmUgc3R5bGU9InN0cm9rZTojMTgxODE4O3N0cm9rZS13aWR0aDoxLjA7IiB4MT0iNTYuNSIgeDI9IjU2LjUiIHkxPSIxMTYuODQzOCIgeTI9IjEzNi44NDM4Ii8+PHBvbHlnb24gZmlsbD0iIzE4MTgxOCIgcG9pbnRzPSI1Mi41LDEyNi44NDM4LDU2LjUsMTM2Ljg0MzgsNjAuNSwxMjYuODQzOCw1Ni41LDEzMC44NDM4IiBzdHlsZT0ic3Ryb2tlOiMxODE4MTg7c3Ryb2tlLXdpZHRoOjEuMDsiLz48bGluZSBzdHlsZT0ic3Ryb2tlOiMxODE4MTg7c3Ryb2tlLXdpZHRoOjEuMDsiIHgxPSIzNDguMjUiIHgyPSIzNDguMjUiIHkxPSIxNjAuODQzOCIgeTI9IjE5Mi43NDIyIi8+PHBvbHlnb24gZmlsbD0iIzE4MTgxOCIgcG9pbnRzPSIzNDQuMjUsMTgyLjc0MjIsMzQ4LjI1LDE5Mi43NDIyLDM1Mi4yNSwxODIuNzQyMiwzNDguMjUsMTg2Ljc0MjIiIHN0eWxlPSJzdHJva2U6IzE4MTgxODtzdHJva2Utd2lkdGg6MS4wOyIvPjxsaW5lIHN0eWxlPSJzdHJva2U6IzE4MTgxODtzdHJva2Utd2lkdGg6MS4wOyIgeDE9IjM0OC4yNSIgeDI9IjM0OC4yNSIgeTE9IjIyNS41ODU5IiB5Mj0iMjM1LjU4NTkiLz48bGluZSBzdHlsZT0ic3Ryb2tlOiMxODE4MTg7c3Ryb2tlLXdpZHRoOjEuMDsiIHgxPSIzNDguMjUiIHgyPSI0MjYuMjUiIHkxPSIyMzUuNTg1OSIgeTI9IjIzNS41ODU5Ii8+PHBvbHlnb24gZmlsbD0iIzE4MTgxOCIgcG9pbnRzPSI0MjIuMjUsMjAxLjI3NzMsNDI2LjI1LDE5MS4yNzczLDQzMC4yNSwyMDEuMjc3Myw0MjYuMjUsMTk3LjI3NzMiIHN0eWxlPSJzdHJva2U6IzE4MTgxODtzdHJva2Utd2lkdGg6MS4wOyIvPjxsaW5lIHN0eWxlPSJzdHJva2U6IzE4MTgxODtzdHJva2Utd2lkdGg6MS4wOyIgeDE9IjQyNi4yNSIgeDI9IjQyNi4yNSIgeTE9IjE0OC44NDM4IiB5Mj0iMjM1LjU4NTkiLz48bGluZSBzdHlsZT0ic3Ryb2tlOiMxODE4MTg7c3Ryb2tlLXdpZHRoOjEuMDsiIHgxPSI0MjYuMjUiIHgyPSI0MTQuMjUiIHkxPSIxNDguODQzOCIgeTI9IjE0OC44NDM4Ii8+PHBvbHlnb24gZmlsbD0iIzE4MTgxOCIgcG9pbnRzPSI0MjQuMjUsMTQ0Ljg0MzgsNDE0LjI1LDE0OC44NDM4LDQyNC4yNSwxNTIuODQzOCw0MjAuMjUsMTQ4Ljg0MzgiIHN0eWxlPSJzdHJva2U6IzE4MTgxODtzdHJva2Utd2lkdGg6MS4wOyIvPjxsaW5lIHN0eWxlPSJzdHJva2U6IzE4MTgxODtzdHJva2Utd2lkdGg6MS4wOyIgeDE9IjI4Mi4yNSIgeDI9IjI3MC4yNSIgeTE9IjE0OC44NDM4IiB5Mj0iMTQ4Ljg0MzgiLz48cG9seWdvbiBmaWxsPSIjMTgxODE4IiBwb2ludHM9IjI2Ni4yNSwxODcuMjc3MywyNzAuMjUsMTk3LjI3NzMsMjc0LjI1LDE4Ny4yNzczLDI3MC4yNSwxOTEuMjc3MyIgc3R5bGU9InN0cm9rZTojMTgxODE4O3N0cm9rZS13aWR0aDoxLjA7Ii8+PGxpbmUgc3R5bGU9InN0cm9rZTojMTgxODE4O3N0cm9rZS13aWR0aDoxLjA7IiB4MT0iMjcwLjI1IiB4Mj0iMjcwLjI1IiB5MT0iMTQ4Ljg0MzgiIHkyPSIyNDcuNTg1OSIvPjxsaW5lIHN0eWxlPSJzdHJva2U6IzE4MTgxODtzdHJva2Utd2lkdGg6MS4wOyIgeDE9IjI3MC4yNSIgeDI9IjM0OC4yNSIgeTE9IjI0Ny41ODU5IiB5Mj0iMjQ3LjU4NTkiLz48bGluZSBzdHlsZT0ic3Ryb2tlOiMxODE4MTg7c3Ryb2tlLXdpZHRoOjEuMDsiIHgxPSIzNDguMjUiIHgyPSIzNDguMjUiIHkxPSIyNDcuNTg1OSIgeTI9IjI2Ny41ODU5Ii8+PHBvbHlnb24gZmlsbD0iIzE4MTgxOCIgcG9pbnRzPSIzNDQuMjUsMjU3LjU4NTksMzQ4LjI1LDI2Ny41ODU5LDM1Mi4yNSwyNTcuNTg1OSwzNDguMjUsMjYxLjU4NTkiIHN0eWxlPSJzdHJva2U6IzE4MTgxODtzdHJva2Utd2lkdGg6MS4wOyIvPjxsaW5lIHN0eWxlPSJzdHJva2U6IzE4MTgxODtzdHJva2Utd2lkdGg6MS4wOyIgeDE9IjM0OC4yNSIgeDI9IjM0OC4yNSIgeTE9IjExNi44NDM4IiB5Mj0iMTM2Ljg0MzgiLz48cG9seWdvbiBmaWxsPSIjMTgxODE4IiBwb2ludHM9IjM0NC4yNSwxMjYuODQzOCwzNDguMjUsMTM2Ljg0MzgsMzUyLjI1LDEyNi44NDM4LDM0OC4yNSwxMzAuODQzOCIgc3R5bGU9InN0cm9rZTojMTgxODE4O3N0cm9rZS13aWR0aDoxLjA7Ii8+PGxpbmUgc3R5bGU9InN0cm9rZTojMTgxODE4O3N0cm9rZS13aWR0aDoxLjA7IiB4MT0iMjg1LjI1IiB4Mj0iMjAyIiB5MT0iMzMyLjQyOTciIHkyPSIzMzIuNDI5NyIvPjxsaW5lIHN0eWxlPSJzdHJva2U6IzE4MTgxODtzdHJva2Utd2lkdGg6MS4wOyIgeDE9IjIwMiIgeDI9IjIwMiIgeTE9IjMzMi40Mjk3IiB5Mj0iMzU0LjQyOTciLz48cG9seWdvbiBmaWxsPSIjMTgxODE4IiBwb2ludHM9IjE5OCwzNDQuNDI5NywyMDIsMzU0LjQyOTcsMjA2LDM0NC40Mjk3LDIwMiwzNDguNDI5NyIgc3R5bGU9InN0cm9rZTojMTgxODE4O3N0cm9rZS13aWR0aDoxLjA7Ii8+PGxpbmUgc3R5bGU9InN0cm9rZTojMTgxODE4O3N0cm9rZS13aWR0aDoxLjA7IiB4MT0iNDExLjI1IiB4Mj0iNDk0LjUiIHkxPSIzMzIuNDI5NyIgeTI9IjMzMi40Mjk3Ii8+PGxpbmUgc3R5bGU9InN0cm9rZTojMTgxODE4O3N0cm9rZS13aWR0aDoxLjA7IiB4MT0iNDk0LjUiIHgyPSI0OTQuNSIgeTE9IjMzMi40Mjk3IiB5Mj0iMzU0LjQyOTciLz48cG9seWdvbiBmaWxsPSIjMTgxODE4IiBwb2ludHM9IjQ5MC41LDM0NC40Mjk3LDQ5NC41LDM1NC40Mjk3LDQ5OC41LDM0NC40Mjk3LDQ5NC41LDM0OC40Mjk3IiBzdHlsZT0ic3Ryb2tlOiMxODE4MTg7c3Ryb2tlLXdpZHRoOjEuMDsiLz48bGluZSBzdHlsZT0ic3Ryb2tlOiMxODE4MTg7c3Ryb2tlLXdpZHRoOjEuMDsiIHgxPSIyMDIiIHgyPSIyMDIiIHkxPSIzODcuMjczNCIgeTI9IjQwNS4yNzM0Ii8+PGxpbmUgc3R5bGU9InN0cm9rZTojMTgxODE4O3N0cm9rZS13aWR0aDoxLjA7IiB4MT0iMjAyIiB4Mj0iMzM2LjI1IiB5MT0iNDA1LjI3MzQiIHkyPSI0MDUuMjczNCIvPjxwb2x5Z29uIGZpbGw9IiMxODE4MTgiIHBvaW50cz0iMzI2LjI1LDQwMS4yNzM0LDMzNi4yNSw0MDUuMjczNCwzMjYuMjUsNDA5LjI3MzQsMzMwLjI1LDQwNS4yNzM0IiBzdHlsZT0ic3Ryb2tlOiMxODE4MTg7c3Ryb2tlLXdpZHRoOjEuMDsiLz48bGluZSBzdHlsZT0ic3Ryb2tlOiMxODE4MTg7c3Ryb2tlLXdpZHRoOjEuMDsiIHgxPSI0OTQuNSIgeDI9IjQ5NC41IiB5MT0iMzg3LjI3MzQiIHkyPSI0MDUuMjczNCIvPjxsaW5lIHN0eWxlPSJzdHJva2U6IzE4MTgxODtzdHJva2Utd2lkdGg6MS4wOyIgeDE9IjQ5NC41IiB4Mj0iMzYwLjI1IiB5MT0iNDA1LjI3MzQiIHkyPSI0MDUuMjczNCIvPjxwb2x5Z29uIGZpbGw9IiMxODE4MTgiIHBvaW50cz0iMzcwLjI1LDQwMS4yNzM0LDM2MC4yNSw0MDUuMjczNCwzNzAuMjUsNDA5LjI3MzQsMzY2LjI1LDQwNS4yNzM0IiBzdHlsZT0ic3Ryb2tlOiMxODE4MTg7c3Ryb2tlLXdpZHRoOjEuMDsiLz48bGluZSBzdHlsZT0ic3Ryb2tlOiMxODE4MTg7c3Ryb2tlLXdpZHRoOjEuMDsiIHgxPSIzNDguMjUiIHgyPSIzNDguMjUiIHkxPSIzMDAuNDI5NyIgeTI9IjMyMC40Mjk3Ii8+PHBvbHlnb24gZmlsbD0iIzE4MTgxOCIgcG9pbnRzPSIzNDQuMjUsMzEwLjQyOTcsMzQ4LjI1LDMyMC40Mjk3LDM1Mi4yNSwzMTAuNDI5NywzNDguMjUsMzE0LjQyOTciIHN0eWxlPSJzdHJva2U6IzE4MTgxODtzdHJva2Utd2lkdGg6MS4wOyIvPjxsaW5lIHN0eWxlPSJzdHJva2U6IzE4MTgxODtzdHJva2Utd2lkdGg6MS4wOyIgeDE9IjM0OC4yNSIgeDI9IjM0OC4yNSIgeTE9IjQxNy4yNzM0IiB5Mj0iNDM3LjI3MzQiLz48cG9seWdvbiBmaWxsPSIjMTgxODE4IiBwb2ludHM9IjM0NC4yNSw0MjcuMjczNCwzNDguMjUsNDM3LjI3MzQsMzUyLjI1LDQyNy4yNzM0LDM0OC4yNSw0MzEuMjczNCIgc3R5bGU9InN0cm9rZTojMTgxODE4O3N0cm9rZS13aWR0aDoxLjA7Ii8+PGxpbmUgc3R5bGU9InN0cm9rZTojMTgxODE4O3N0cm9rZS13aWR0aDoxLjA7IiB4MT0iMTU5LjM3NSIgeDI9IjU2LjUiIHkxPSI2MiIgeTI9IjYyIi8+PGxpbmUgc3R5bGU9InN0cm9rZTojMTgxODE4O3N0cm9rZS13aWR0aDoxLjA7IiB4MT0iNTYuNSIgeDI9IjU2LjUiIHkxPSI2MiIgeTI9Ijg0Ii8+PHBvbHlnb24gZmlsbD0iIzE4MTgxOCIgcG9pbnRzPSI1Mi41LDc0LDU2LjUsODQsNjAuNSw3NCw1Ni41LDc4IiBzdHlsZT0ic3Ryb2tlOiMxODE4MTg7c3Ryb2tlLXdpZHRoOjEuMDsiLz48bGluZSBzdHlsZT0ic3Ryb2tlOiMxODE4MTg7c3Ryb2tlLXdpZHRoOjEuMDsiIHgxPSIyMjUuMzc1IiB4Mj0iMzQ4LjI1IiB5MT0iNjIiIHkyPSI2MiIvPjxsaW5lIHN0eWxlPSJzdHJva2U6IzE4MTgxODtzdHJva2Utd2lkdGg6MS4wOyIgeDE9IjM0OC4yNSIgeDI9IjM0OC4yNSIgeTE9IjYyIiB5Mj0iODQiLz48cG9seWdvbiBmaWxsPSIjMTgxODE4IiBwb2ludHM9IjM0NC4yNSw3NCwzNDguMjUsODQsMzUyLjI1LDc0LDM0OC4yNSw3OCIgc3R5bGU9InN0cm9rZTojMTgxODE4O3N0cm9rZS13aWR0aDoxLjA7Ii8+PGxpbmUgc3R5bGU9InN0cm9rZTojMTgxODE4O3N0cm9rZS13aWR0aDoxLjA7IiB4MT0iMTkyLjM3NSIgeDI9IjE5Mi4zNzUiIHkxPSIzMCIgeTI9IjUwIi8+PHBvbHlnb24gZmlsbD0iIzE4MTgxOCIgcG9pbnRzPSIxODguMzc1LDQwLDE5Mi4zNzUsNTAsMTk2LjM3NSw0MCwxOTIuMzc1LDQ0IiBzdHlsZT0ic3Ryb2tlOiMxODE4MTg7c3Ryb2tlLXdpZHRoOjEuMDsiLz48IS0tU1JDPVtQUDMxM2VDVzQ0SmxWQ0tTaVNSNFN3aVZpbU9DNm9hUW05aC1WTzVnT3ppSnNOcXBhcmIyOTEtNXUxNW9POGlFUk9MZWo4RHlLWU0wUXNINTRudmFNVHRJN0VBeTI2czNYWW9hUTZXWVpudmo1Y282Uk85YlRLNXZrWHVma204N0kzbEZJX1JpaGhoRTdrdEtSWmptV0tzSk9RdnNKamwzcFlNRjJnSjhhZGRCZmZNS2ZyWllsLWwtZzBzNVRGWVl4eURnQVBCM0c1alFBX0J5ZC1HS1p2elZvQ0NCXS0tPjwvZz48L3N2Zz4=;" vertex="1" parent="1">
            <mxGeometry x="480" y="10" width="508" height="347.03" as="geometry" />
          </mxCell>
        </UserObject>
      </root>
    </mxGraphModel>
  </diagram>
  <diagram id="nF4BXhyYD_2vg2I3y_Bc" name="Page-2">
    <mxGraphModel dx="1064" dy="1569" grid="1" gridSize="10" guides="1" tooltips="1" connect="1" arrows="1" fold="1" page="1" pageScale="1" pageWidth="850" pageHeight="1100" math="0" shadow="0">
      <root>
        <mxCell id="0" />
        <mxCell id="1" parent="0" />
        <UserObject label="" plantUmlData="{&quot;data&quot;:&quot;@startuml\n\nstart\nif (Bilangan &lt; 0) then (ya)\n  :Tidak valid;\n  stop\nelse (tidak)\n  :Akar = 0;\n  while (Akar * Akar &lt;= Bilangan) is (loop)\n    :Akar++;\n  endwhile (loop)\n  if (Akar * Akar = Bilangan) then (ya)\n    :Akar adalah akar kuadrat;\n  else (tidak)\n    :Akar adalah hasil pembulatan bawah dari akar kuadrat;\n  endif\n  stop\nendif\n\n@enduml\n&quot;,&quot;format&quot;:&quot;svg&quot;}" id="qF0b4LydsWmltH2cJaBn-20">
          <mxCell style="shape=image;noLabel=1;verticalAlign=top;aspect=fixed;imageAspect=0;image=data:image/svg+xml,PD94bWwgdmVyc2lvbj0iMS4wIiBlbmNvZGluZz0idXMtYXNjaWkiIHN0YW5kYWxvbmU9Im5vIj8+PHN2ZyB4bWxucz0iaHR0cDovL3d3dy53My5vcmcvMjAwMC9zdmciIHhtbG5zOnhsaW5rPSJodHRwOi8vd3d3LnczLm9yZy8xOTk5L3hsaW5rIiBjb250ZW50U3R5bGVUeXBlPSJ0ZXh0L2NzcyIgaGVpZ2h0PSI0MTdweCIgcHJlc2VydmVBc3BlY3RSYXRpbz0ibm9uZSIgc3R5bGU9IndpZHRoOjY4OHB4O2hlaWdodDo0MTdweDtiYWNrZ3JvdW5kOiNGRkZGRkY7IiB2ZXJzaW9uPSIxLjEiIHZpZXdCb3g9IjAgMCA2ODggNDE3IiB3aWR0aD0iNjg4cHgiIHpvb21BbmRQYW49Im1hZ25pZnkiPjxkZWZzLz48Zz48ZWxsaXBzZSBjeD0iMTkyLjM3NSIgY3k9IjIwIiBmaWxsPSIjMjIyMjIyIiByeD0iMTAiIHJ5PSIxMCIgc3R5bGU9InN0cm9rZTojMjIyMjIyO3N0cm9rZS13aWR0aDoxLjA7Ii8+PHBvbHlnb24gZmlsbD0iI0YxRjFGMSIgcG9pbnRzPSIxNTYuMzc1LDUwLDIyOC4zNzUsNTAsMjQwLjM3NSw2MiwyMjguMzc1LDc0LDE1Ni4zNzUsNzQsMTQ0LjM3NSw2MiwxNTYuMzc1LDUwIiBzdHlsZT0ic3Ryb2tlOiMxODE4MTg7c3Ryb2tlLXdpZHRoOjAuNTsiLz48dGV4dCBmaWxsPSIjMDAwMDAwIiBmb250LWZhbWlseT0ic2Fucy1zZXJpZiIgZm9udC1zaXplPSIxMSIgbGVuZ3RoQWRqdXN0PSJzcGFjaW5nIiB0ZXh0TGVuZ3RoPSI3MiIgeD0iMTU2LjM3NSIgeT0iNjYuNTExNyI+QmlsYW5nYW4gJmx0OyAwPC90ZXh0Pjx0ZXh0IGZpbGw9IiMwMDAwMDAiIGZvbnQtZmFtaWx5PSJzYW5zLXNlcmlmIiBmb250LXNpemU9IjExIiBsZW5ndGhBZGp1c3Q9InNwYWNpbmciIHRleHRMZW5ndGg9IjEyIiB4PSIxMzIuMzc1IiB5PSI2MC42MjUiPnlhPC90ZXh0Pjx0ZXh0IGZpbGw9IiMwMDAwMDAiIGZvbnQtZmFtaWx5PSJzYW5zLXNlcmlmIiBmb250LXNpemU9IjExIiBsZW5ndGhBZGp1c3Q9InNwYWNpbmciIHRleHRMZW5ndGg9IjMwIiB4PSIyNDAuMzc1IiB5PSI2MC42MjUiPnRpZGFrPC90ZXh0PjxyZWN0IGZpbGw9IiNGMUYxRjEiIGhlaWdodD0iMzIuODQzOCIgcng9IjEyLjUiIHJ5PSIxMi41IiBzdHlsZT0ic3Ryb2tlOiMxODE4MTg7c3Ryb2tlLXdpZHRoOjAuNTsiIHdpZHRoPSI5MSIgeD0iMTEiIHk9Ijg0Ii8+PHRleHQgZmlsbD0iIzAwMDAwMCIgZm9udC1mYW1pbHk9InNhbnMtc2VyaWYiIGZvbnQtc2l6ZT0iMTIiIGxlbmd0aEFkanVzdD0ic3BhY2luZyIgdGV4dExlbmd0aD0iNzEiIHg9IjIxIiB5PSIxMDUuMzQzOCI+VGlkYWsgdmFsaWQ8L3RleHQ+PGVsbGlwc2UgY3g9IjU2LjUiIGN5PSIxNDcuODQzOCIgZmlsbD0ibm9uZSIgcng9IjExIiByeT0iMTEiIHN0eWxlPSJzdHJva2U6IzIyMjIyMjtzdHJva2Utd2lkdGg6MS4wOyIvPjxlbGxpcHNlIGN4PSI1Ni41IiBjeT0iMTQ3Ljg0MzgiIGZpbGw9IiMyMjIyMjIiIHJ4PSI2IiByeT0iNiIgc3R5bGU9InN0cm9rZTojMjIyMjIyO3N0cm9rZS13aWR0aDoxLjA7Ii8+PHJlY3QgZmlsbD0iI0YxRjFGMSIgaGVpZ2h0PSIzMi44NDM4IiByeD0iMTIuNSIgcnk9IjEyLjUiIHN0eWxlPSJzdHJva2U6IzE4MTgxODtzdHJva2Utd2lkdGg6MC41OyIgd2lkdGg9IjcxIiB4PSIzMTIuNzUiIHk9Ijg0Ii8+PHRleHQgZmlsbD0iIzAwMDAwMCIgZm9udC1mYW1pbHk9InNhbnMtc2VyaWYiIGZvbnQtc2l6ZT0iMTIiIGxlbmd0aEFkanVzdD0ic3BhY2luZyIgdGV4dExlbmd0aD0iNTEiIHg9IjMyMi43NSIgeT0iMTA1LjM0MzgiPkFrYXIgPSAwPC90ZXh0PjxyZWN0IGZpbGw9IiNGMUYxRjEiIGhlaWdodD0iMzIuODQzOCIgcng9IjEyLjUiIHJ5PSIxMi41IiBzdHlsZT0ic3Ryb2tlOiMxODE4MTg7c3Ryb2tlLXdpZHRoOjAuNTsiIHdpZHRoPSI1OSIgeD0iMzE4Ljc1IiB5PSIxOTIuNzQyMiIvPjx0ZXh0IGZpbGw9IiMwMDAwMDAiIGZvbnQtZmFtaWx5PSJzYW5zLXNlcmlmIiBmb250LXNpemU9IjEyIiBsZW5ndGhBZGp1c3Q9InNwYWNpbmciIHRleHRMZW5ndGg9IjM5IiB4PSIzMjguNzUiIHk9IjIxNC4wODU5Ij5Ba2FyKys8L3RleHQ+PHBvbHlnb24gZmlsbD0iI0YxRjFGMSIgcG9pbnRzPSIyNzkuMjUsMTM2Ljg0MzgsNDE3LjI1LDEzNi44NDM4LDQyOS4yNSwxNDguODQzOCw0MTcuMjUsMTYwLjg0MzgsMjc5LjI1LDE2MC44NDM4LDI2Ny4yNSwxNDguODQzOCwyNzkuMjUsMTM2Ljg0MzgiIHN0eWxlPSJzdHJva2U6IzE4MTgxODtzdHJva2Utd2lkdGg6MC41OyIvPjx0ZXh0IGZpbGw9IiMwMDAwMDAiIGZvbnQtZmFtaWx5PSJzYW5zLXNlcmlmIiBmb250LXNpemU9IjExIiBsZW5ndGhBZGp1c3Q9InNwYWNpbmciIHRleHRMZW5ndGg9IjI0IiB4PSIzNTIuMjUiIHk9IjE3MS4yNDIyIj5sb29wPC90ZXh0Pjx0ZXh0IGZpbGw9IiMwMDAwMDAiIGZvbnQtZmFtaWx5PSJzYW5zLXNlcmlmIiBmb250LXNpemU9IjExIiBsZW5ndGhBZGp1c3Q9InNwYWNpbmciIHRleHRMZW5ndGg9IjEzOCIgeD0iMjc5LjI1IiB5PSIxNTMuMzU1NSI+QWthciAqIEFrYXIgJmx0Oz0gQmlsYW5nYW48L3RleHQ+PHRleHQgZmlsbD0iIzAwMDAwMCIgZm9udC1mYW1pbHk9InNhbnMtc2VyaWYiIGZvbnQtc2l6ZT0iMTEiIGxlbmd0aEFkanVzdD0ic3BhY2luZyIgdGV4dExlbmd0aD0iMjQiIHg9IjI0My4yNSIgeT0iMTQ3LjQ2ODgiPmxvb3A8L3RleHQ+PHBvbHlnb24gZmlsbD0iI0YxRjFGMSIgcG9pbnRzPSIyODIuMjUsMjY3LjU4NTksNDE0LjI1LDI2Ny41ODU5LDQyNi4yNSwyNzkuNTg1OSw0MTQuMjUsMjkxLjU4NTksMjgyLjI1LDI5MS41ODU5LDI3MC4yNSwyNzkuNTg1OSwyODIuMjUsMjY3LjU4NTkiIHN0eWxlPSJzdHJva2U6IzE4MTgxODtzdHJva2Utd2lkdGg6MC41OyIvPjx0ZXh0IGZpbGw9IiMwMDAwMDAiIGZvbnQtZmFtaWx5PSJzYW5zLXNlcmlmIiBmb250LXNpemU9IjExIiBsZW5ndGhBZGp1c3Q9InNwYWNpbmciIHRleHRMZW5ndGg9IjEzMiIgeD0iMjgyLjI1IiB5PSIyODQuMDk3NyI+QWthciAqIEFrYXIgPSBCaWxhbmdhbjwvdGV4dD48dGV4dCBmaWxsPSIjMDAwMDAwIiBmb250LWZhbWlseT0ic2Fucy1zZXJpZiIgZm9udC1zaXplPSIxMSIgbGVuZ3RoQWRqdXN0PSJzcGFjaW5nIiB0ZXh0TGVuZ3RoPSIxMiIgeD0iMjU4LjI1IiB5PSIyNzguMjEwOSI+eWE8L3RleHQ+PHRleHQgZmlsbD0iIzAwMDAwMCIgZm9udC1mYW1pbHk9InNhbnMtc2VyaWYiIGZvbnQtc2l6ZT0iMTEiIGxlbmd0aEFkanVzdD0ic3BhY2luZyIgdGV4dExlbmd0aD0iMzAiIHg9IjQyNi4yNSIgeT0iMjc4LjIxMDkiPnRpZGFrPC90ZXh0PjxyZWN0IGZpbGw9IiNGMUYxRjEiIGhlaWdodD0iMzIuODQzOCIgcng9IjEyLjUiIHJ5PSIxMi41IiBzdHlsZT0ic3Ryb2tlOiMxODE4MTg7c3Ryb2tlLXdpZHRoOjAuNTsiIHdpZHRoPSIxODAiIHg9IjExMiIgeT0iMzAxLjU4NTkiLz48dGV4dCBmaWxsPSIjMDAwMDAwIiBmb250LWZhbWlseT0ic2Fucy1zZXJpZiIgZm9udC1zaXplPSIxMiIgbGVuZ3RoQWRqdXN0PSJzcGFjaW5nIiB0ZXh0TGVuZ3RoPSIxNjAiIHg9IjEyMiIgeT0iMzIyLjkyOTciPkFrYXIgYWRhbGFoIGFrYXIga3VhZHJhdDwvdGV4dD48cmVjdCBmaWxsPSIjRjFGMUYxIiBoZWlnaHQ9IjMyLjg0MzgiIHJ4PSIxMi41IiByeT0iMTIuNSIgc3R5bGU9InN0cm9rZTojMTgxODE4O3N0cm9rZS13aWR0aDowLjU7IiB3aWR0aD0iMzY1IiB4PSIzMTIiIHk9IjMwMS41ODU5Ii8+PHRleHQgZmlsbD0iIzAwMDAwMCIgZm9udC1mYW1pbHk9InNhbnMtc2VyaWYiIGZvbnQtc2l6ZT0iMTIiIGxlbmd0aEFkanVzdD0ic3BhY2luZyIgdGV4dExlbmd0aD0iMzQ1IiB4PSIzMjIiIHk9IjMyMi45Mjk3Ij5Ba2FyIGFkYWxhaCBoYXNpbCBwZW1idWxhdGFuIGJhd2FoIGRhcmkgYWthciBrdWFkcmF0PC90ZXh0Pjxwb2x5Z29uIGZpbGw9IiNGMUYxRjEiIHBvaW50cz0iMzQ4LjI1LDM0MC40Mjk3LDM2MC4yNSwzNTIuNDI5NywzNDguMjUsMzY0LjQyOTcsMzM2LjI1LDM1Mi40Mjk3LDM0OC4yNSwzNDAuNDI5NyIgc3R5bGU9InN0cm9rZTojMTgxODE4O3N0cm9rZS13aWR0aDowLjU7Ii8+PGVsbGlwc2UgY3g9IjM0OC4yNSIgY3k9IjM5NS40Mjk3IiBmaWxsPSJub25lIiByeD0iMTEiIHJ5PSIxMSIgc3R5bGU9InN0cm9rZTojMjIyMjIyO3N0cm9rZS13aWR0aDoxLjA7Ii8+PGVsbGlwc2UgY3g9IjM0OC4yNSIgY3k9IjM5NS40Mjk3IiBmaWxsPSIjMjIyMjIyIiByeD0iNiIgcnk9IjYiIHN0eWxlPSJzdHJva2U6IzIyMjIyMjtzdHJva2Utd2lkdGg6MS4wOyIvPjxsaW5lIHN0eWxlPSJzdHJva2U6IzE4MTgxODtzdHJva2Utd2lkdGg6MS4wOyIgeDE9IjU2LjUiIHgyPSI1Ni41IiB5MT0iMTE2Ljg0MzgiIHkyPSIxMzYuODQzOCIvPjxwb2x5Z29uIGZpbGw9IiMxODE4MTgiIHBvaW50cz0iNTIuNSwxMjYuODQzOCw1Ni41LDEzNi44NDM4LDYwLjUsMTI2Ljg0MzgsNTYuNSwxMzAuODQzOCIgc3R5bGU9InN0cm9rZTojMTgxODE4O3N0cm9rZS13aWR0aDoxLjA7Ii8+PGxpbmUgc3R5bGU9InN0cm9rZTojMTgxODE4O3N0cm9rZS13aWR0aDoxLjA7IiB4MT0iMzQ4LjI1IiB4Mj0iMzQ4LjI1IiB5MT0iMTYwLjg0MzgiIHkyPSIxOTIuNzQyMiIvPjxwb2x5Z29uIGZpbGw9IiMxODE4MTgiIHBvaW50cz0iMzQ0LjI1LDE4Mi43NDIyLDM0OC4yNSwxOTIuNzQyMiwzNTIuMjUsMTgyLjc0MjIsMzQ4LjI1LDE4Ni43NDIyIiBzdHlsZT0ic3Ryb2tlOiMxODE4MTg7c3Ryb2tlLXdpZHRoOjEuMDsiLz48bGluZSBzdHlsZT0ic3Ryb2tlOiMxODE4MTg7c3Ryb2tlLXdpZHRoOjEuMDsiIHgxPSIzNDguMjUiIHgyPSIzNDguMjUiIHkxPSIyMjUuNTg1OSIgeTI9IjIzNS41ODU5Ii8+PGxpbmUgc3R5bGU9InN0cm9rZTojMTgxODE4O3N0cm9rZS13aWR0aDoxLjA7IiB4MT0iMzQ4LjI1IiB4Mj0iNDQxLjI1IiB5MT0iMjM1LjU4NTkiIHkyPSIyMzUuNTg1OSIvPjxwb2x5Z29uIGZpbGw9IiMxODE4MTgiIHBvaW50cz0iNDM3LjI1LDIwMS4yNzczLDQ0MS4yNSwxOTEuMjc3Myw0NDUuMjUsMjAxLjI3NzMsNDQxLjI1LDE5Ny4yNzczIiBzdHlsZT0ic3Ryb2tlOiMxODE4MTg7c3Ryb2tlLXdpZHRoOjEuMDsiLz48bGluZSBzdHlsZT0ic3Ryb2tlOiMxODE4MTg7c3Ryb2tlLXdpZHRoOjEuMDsiIHgxPSI0NDEuMjUiIHgyPSI0NDEuMjUiIHkxPSIxNDguODQzOCIgeTI9IjIzNS41ODU5Ii8+PGxpbmUgc3R5bGU9InN0cm9rZTojMTgxODE4O3N0cm9rZS13aWR0aDoxLjA7IiB4MT0iNDQxLjI1IiB4Mj0iNDI5LjI1IiB5MT0iMTQ4Ljg0MzgiIHkyPSIxNDguODQzOCIvPjxwb2x5Z29uIGZpbGw9IiMxODE4MTgiIHBvaW50cz0iNDM5LjI1LDE0NC44NDM4LDQyOS4yNSwxNDguODQzOCw0MzkuMjUsMTUyLjg0MzgsNDM1LjI1LDE0OC44NDM4IiBzdHlsZT0ic3Ryb2tlOiMxODE4MTg7c3Ryb2tlLXdpZHRoOjEuMDsiLz48bGluZSBzdHlsZT0ic3Ryb2tlOiMxODE4MTg7c3Ryb2tlLXdpZHRoOjEuMDsiIHgxPSIyNjcuMjUiIHgyPSIyNTUuMjUiIHkxPSIxNDguODQzOCIgeTI9IjE0OC44NDM4Ii8+PHBvbHlnb24gZmlsbD0iIzE4MTgxOCIgcG9pbnRzPSIyNTEuMjUsMTg3LjI3NzMsMjU1LjI1LDE5Ny4yNzczLDI1OS4yNSwxODcuMjc3MywyNTUuMjUsMTkxLjI3NzMiIHN0eWxlPSJzdHJva2U6IzE4MTgxODtzdHJva2Utd2lkdGg6MS4wOyIvPjxsaW5lIHN0eWxlPSJzdHJva2U6IzE4MTgxODtzdHJva2Utd2lkdGg6MS4wOyIgeDE9IjI1NS4yNSIgeDI9IjI1NS4yNSIgeTE9IjE0OC44NDM4IiB5Mj0iMjQ3LjU4NTkiLz48bGluZSBzdHlsZT0ic3Ryb2tlOiMxODE4MTg7c3Ryb2tlLXdpZHRoOjEuMDsiIHgxPSIyNTUuMjUiIHgyPSIzNDguMjUiIHkxPSIyNDcuNTg1OSIgeTI9IjI0Ny41ODU5Ii8+PGxpbmUgc3R5bGU9InN0cm9rZTojMTgxODE4O3N0cm9rZS13aWR0aDoxLjA7IiB4MT0iMzQ4LjI1IiB4Mj0iMzQ4LjI1IiB5MT0iMjQ3LjU4NTkiIHkyPSIyNjcuNTg1OSIvPjxwb2x5Z29uIGZpbGw9IiMxODE4MTgiIHBvaW50cz0iMzQ0LjI1LDI1Ny41ODU5LDM0OC4yNSwyNjcuNTg1OSwzNTIuMjUsMjU3LjU4NTksMzQ4LjI1LDI2MS41ODU5IiBzdHlsZT0ic3Ryb2tlOiMxODE4MTg7c3Ryb2tlLXdpZHRoOjEuMDsiLz48bGluZSBzdHlsZT0ic3Ryb2tlOiMxODE4MTg7c3Ryb2tlLXdpZHRoOjEuMDsiIHgxPSIzNDguMjUiIHgyPSIzNDguMjUiIHkxPSIxMTYuODQzOCIgeTI9IjEzNi44NDM4Ii8+PHBvbHlnb24gZmlsbD0iIzE4MTgxOCIgcG9pbnRzPSIzNDQuMjUsMTI2Ljg0MzgsMzQ4LjI1LDEzNi44NDM4LDM1Mi4yNSwxMjYuODQzOCwzNDguMjUsMTMwLjg0MzgiIHN0eWxlPSJzdHJva2U6IzE4MTgxODtzdHJva2Utd2lkdGg6MS4wOyIvPjxsaW5lIHN0eWxlPSJzdHJva2U6IzE4MTgxODtzdHJva2Utd2lkdGg6MS4wOyIgeDE9IjI3MC4yNSIgeDI9IjIwMiIgeTE9IjI3OS41ODU5IiB5Mj0iMjc5LjU4NTkiLz48bGluZSBzdHlsZT0ic3Ryb2tlOiMxODE4MTg7c3Ryb2tlLXdpZHRoOjEuMDsiIHgxPSIyMDIiIHgyPSIyMDIiIHkxPSIyNzkuNTg1OSIgeTI9IjMwMS41ODU5Ii8+PHBvbHlnb24gZmlsbD0iIzE4MTgxOCIgcG9pbnRzPSIxOTgsMjkxLjU4NTksMjAyLDMwMS41ODU5LDIwNiwyOTEuNTg1OSwyMDIsMjk1LjU4NTkiIHN0eWxlPSJzdHJva2U6IzE4MTgxODtzdHJva2Utd2lkdGg6MS4wOyIvPjxsaW5lIHN0eWxlPSJzdHJva2U6IzE4MTgxODtzdHJva2Utd2lkdGg6MS4wOyIgeDE9IjQyNi4yNSIgeDI9IjQ5NC41IiB5MT0iMjc5LjU4NTkiIHkyPSIyNzkuNTg1OSIvPjxsaW5lIHN0eWxlPSJzdHJva2U6IzE4MTgxODtzdHJva2Utd2lkdGg6MS4wOyIgeDE9IjQ5NC41IiB4Mj0iNDk0LjUiIHkxPSIyNzkuNTg1OSIgeTI9IjMwMS41ODU5Ii8+PHBvbHlnb24gZmlsbD0iIzE4MTgxOCIgcG9pbnRzPSI0OTAuNSwyOTEuNTg1OSw0OTQuNSwzMDEuNTg1OSw0OTguNSwyOTEuNTg1OSw0OTQuNSwyOTUuNTg1OSIgc3R5bGU9InN0cm9rZTojMTgxODE4O3N0cm9rZS13aWR0aDoxLjA7Ii8+PGxpbmUgc3R5bGU9InN0cm9rZTojMTgxODE4O3N0cm9rZS13aWR0aDoxLjA7IiB4MT0iMjAyIiB4Mj0iMjAyIiB5MT0iMzM0LjQyOTciIHkyPSIzNTIuNDI5NyIvPjxsaW5lIHN0eWxlPSJzdHJva2U6IzE4MTgxODtzdHJva2Utd2lkdGg6MS4wOyIgeDE9IjIwMiIgeDI9IjMzNi4yNSIgeTE9IjM1Mi40Mjk3IiB5Mj0iMzUyLjQyOTciLz48cG9seWdvbiBmaWxsPSIjMTgxODE4IiBwb2ludHM9IjMyNi4yNSwzNDguNDI5NywzMzYuMjUsMzUyLjQyOTcsMzI2LjI1LDM1Ni40Mjk3LDMzMC4yNSwzNTIuNDI5NyIgc3R5bGU9InN0cm9rZTojMTgxODE4O3N0cm9rZS13aWR0aDoxLjA7Ii8+PGxpbmUgc3R5bGU9InN0cm9rZTojMTgxODE4O3N0cm9rZS13aWR0aDoxLjA7IiB4MT0iNDk0LjUiIHgyPSI0OTQuNSIgeTE9IjMzNC40Mjk3IiB5Mj0iMzUyLjQyOTciLz48bGluZSBzdHlsZT0ic3Ryb2tlOiMxODE4MTg7c3Ryb2tlLXdpZHRoOjEuMDsiIHgxPSI0OTQuNSIgeDI9IjM2MC4yNSIgeTE9IjM1Mi40Mjk3IiB5Mj0iMzUyLjQyOTciLz48cG9seWdvbiBmaWxsPSIjMTgxODE4IiBwb2ludHM9IjM3MC4yNSwzNDguNDI5NywzNjAuMjUsMzUyLjQyOTcsMzcwLjI1LDM1Ni40Mjk3LDM2Ni4yNSwzNTIuNDI5NyIgc3R5bGU9InN0cm9rZTojMTgxODE4O3N0cm9rZS13aWR0aDoxLjA7Ii8+PGxpbmUgc3R5bGU9InN0cm9rZTojMTgxODE4O3N0cm9rZS13aWR0aDoxLjA7IiB4MT0iMzQ4LjI1IiB4Mj0iMzQ4LjI1IiB5MT0iMzY0LjQyOTciIHkyPSIzODQuNDI5NyIvPjxwb2x5Z29uIGZpbGw9IiMxODE4MTgiIHBvaW50cz0iMzQ0LjI1LDM3NC40Mjk3LDM0OC4yNSwzODQuNDI5NywzNTIuMjUsMzc0LjQyOTcsMzQ4LjI1LDM3OC40Mjk3IiBzdHlsZT0ic3Ryb2tlOiMxODE4MTg7c3Ryb2tlLXdpZHRoOjEuMDsiLz48bGluZSBzdHlsZT0ic3Ryb2tlOiMxODE4MTg7c3Ryb2tlLXdpZHRoOjEuMDsiIHgxPSIxNDQuMzc1IiB4Mj0iNTYuNSIgeTE9IjYyIiB5Mj0iNjIiLz48bGluZSBzdHlsZT0ic3Ryb2tlOiMxODE4MTg7c3Ryb2tlLXdpZHRoOjEuMDsiIHgxPSI1Ni41IiB4Mj0iNTYuNSIgeTE9IjYyIiB5Mj0iODQiLz48cG9seWdvbiBmaWxsPSIjMTgxODE4IiBwb2ludHM9IjUyLjUsNzQsNTYuNSw4NCw2MC41LDc0LDU2LjUsNzgiIHN0eWxlPSJzdHJva2U6IzE4MTgxODtzdHJva2Utd2lkdGg6MS4wOyIvPjxsaW5lIHN0eWxlPSJzdHJva2U6IzE4MTgxODtzdHJva2Utd2lkdGg6MS4wOyIgeDE9IjI0MC4zNzUiIHgyPSIzNDguMjUiIHkxPSI2MiIgeTI9IjYyIi8+PGxpbmUgc3R5bGU9InN0cm9rZTojMTgxODE4O3N0cm9rZS13aWR0aDoxLjA7IiB4MT0iMzQ4LjI1IiB4Mj0iMzQ4LjI1IiB5MT0iNjIiIHkyPSI4NCIvPjxwb2x5Z29uIGZpbGw9IiMxODE4MTgiIHBvaW50cz0iMzQ0LjI1LDc0LDM0OC4yNSw4NCwzNTIuMjUsNzQsMzQ4LjI1LDc4IiBzdHlsZT0ic3Ryb2tlOiMxODE4MTg7c3Ryb2tlLXdpZHRoOjEuMDsiLz48bGluZSBzdHlsZT0ic3Ryb2tlOiMxODE4MTg7c3Ryb2tlLXdpZHRoOjEuMDsiIHgxPSIxOTIuMzc1IiB4Mj0iMTkyLjM3NSIgeTE9IjMwIiB5Mj0iNTAiLz48cG9seWdvbiBmaWxsPSIjMTgxODE4IiBwb2ludHM9IjE4OC4zNzUsNDAsMTkyLjM3NSw1MCwxOTYuMzc1LDQwLDE5Mi4zNzUsNDQiIHN0eWxlPSJzdHJva2U6IzE4MTgxODtzdHJva2Utd2lkdGg6MS4wOyIvPjwhLS1TUkM9W1BMMUIzZThtNURucFliYzJSNW1oQkZHQ05jMThZdHNYNWFBQm5EbFI0WjJlZ19VUHB2aXk3cFk2SjVoYUx4NXFUcGZLRTFPOEhabGFCbk9QU0JnOU9lU2RoUVhwZDd0ZVhxblJodjY3WDJvU0l5U0hET3c5QzFrbjRMbk0xb29iZ2g0VEEyMFVrVXR4OEdiTlFMYWNlTlBnck12bUloUnRzVGxpQ3N1OWc2WGZtREh0NHpOOGkxWF9mX3JYNnRnbjZGSVpjSW4zVjQ3M0VRdUxIX2J0U2FoUXBuRkl5ME8wXS0tPjwvZz48L3N2Zz4=;" vertex="1" parent="1">
            <mxGeometry x="170" y="-155.45" width="598" height="362.45" as="geometry" />
          </mxCell>
        </UserObject>
      </root>
    </mxGraphModel>
  </diagram>
  <diagram id="g2HC83AvopPtOGYbUJIM" name="Page-3">
    <mxGraphModel dx="958" dy="422" grid="1" gridSize="10" guides="1" tooltips="1" connect="1" arrows="1" fold="1" page="1" pageScale="1" pageWidth="850" pageHeight="1100" math="0" shadow="0">
      <root>
        <mxCell id="0" />
        <mxCell id="1" parent="0" />
        <UserObject label="" plantUmlData="{&#xa;  &quot;data&quot;: &quot;@startuml\nstart\n:Inisialisasi n;\n:akar := 0;\nwhile (akar * akar &lt; n) is (true)\n  :akar := akar + 1;\nendwhile (false)\nif (akar * akar &gt; n) then (true)\n  :akar := akar - 1;\nendif\n:Akar bilangan adalah akar;\nstop\n@enduml\n&quot;,&#xa;  &quot;format&quot;: &quot;svg&quot;&#xa;}" id="WrDCZJXCZhnI1aJd4x_w-1">
          <mxCell style="shape=image;noLabel=1;verticalAlign=top;aspect=fixed;imageAspect=0;image=data:image/svg+xml,PD94bWwgdmVyc2lvbj0iMS4wIiBlbmNvZGluZz0idXMtYXNjaWkiIHN0YW5kYWxvbmU9Im5vIj8+PHN2ZyB4bWxucz0iaHR0cDovL3d3dy53My5vcmcvMjAwMC9zdmciIHhtbG5zOnhsaW5rPSJodHRwOi8vd3d3LnczLm9yZy8xOTk5L3hsaW5rIiBjb250ZW50U3R5bGVUeXBlPSJ0ZXh0L2NzcyIgaGVpZ2h0PSI1MTdweCIgcHJlc2VydmVBc3BlY3RSYXRpbz0ibm9uZSIgc3R5bGU9IndpZHRoOjIwOXB4O2hlaWdodDo1MTdweDtiYWNrZ3JvdW5kOiNGRkZGRkY7IiB2ZXJzaW9uPSIxLjEiIHZpZXdCb3g9IjAgMCAyMDkgNTE3IiB3aWR0aD0iMjA5cHgiIHpvb21BbmRQYW49Im1hZ25pZnkiPjxkZWZzLz48Zz48ZWxsaXBzZSBjeD0iMTA0LjUiIGN5PSIyMCIgZmlsbD0iIzIyMjIyMiIgcng9IjEwIiByeT0iMTAiIHN0eWxlPSJzdHJva2U6IzIyMjIyMjtzdHJva2Utd2lkdGg6MS4wOyIvPjxyZWN0IGZpbGw9IiNGMUYxRjEiIGhlaWdodD0iMzIuODQzOCIgcng9IjEyLjUiIHJ5PSIxMi41IiBzdHlsZT0ic3Ryb2tlOiMxODE4MTg7c3Ryb2tlLXdpZHRoOjAuNTsiIHdpZHRoPSIxMTEiIHg9IjQ5IiB5PSI1MCIvPjx0ZXh0IGZpbGw9IiMwMDAwMDAiIGZvbnQtZmFtaWx5PSJzYW5zLXNlcmlmIiBmb250LXNpemU9IjEyIiBsZW5ndGhBZGp1c3Q9InNwYWNpbmciIHRleHRMZW5ndGg9IjkxIiB4PSI1OSIgeT0iNzEuMzQzOCI+SW5pc2lhbGlzYXNpIG48L3RleHQ+PHJlY3QgZmlsbD0iI0YxRjFGMSIgaGVpZ2h0PSIzMi44NDM4IiByeD0iMTIuNSIgcnk9IjEyLjUiIHN0eWxlPSJzdHJva2U6IzE4MTgxODtzdHJva2Utd2lkdGg6MC41OyIgd2lkdGg9Ijc3IiB4PSI2NiIgeT0iMTAyLjg0MzgiLz48dGV4dCBmaWxsPSIjMDAwMDAwIiBmb250LWZhbWlseT0ic2Fucy1zZXJpZiIgZm9udC1zaXplPSIxMiIgbGVuZ3RoQWRqdXN0PSJzcGFjaW5nIiB0ZXh0TGVuZ3RoPSI1NyIgeD0iNzYiIHk9IjEyNC4xODc1Ij5ha2FyIDo9IDA8L3RleHQ+PHJlY3QgZmlsbD0iI0YxRjFGMSIgaGVpZ2h0PSIzMi44NDM4IiByeD0iMTIuNSIgcnk9IjEyLjUiIHN0eWxlPSJzdHJva2U6IzE4MTgxODtzdHJva2Utd2lkdGg6MC41OyIgd2lkdGg9IjEyMiIgeD0iNDMuNSIgeT0iMjExLjU4NTkiLz48dGV4dCBmaWxsPSIjMDAwMDAwIiBmb250LWZhbWlseT0ic2Fucy1zZXJpZiIgZm9udC1zaXplPSIxMiIgbGVuZ3RoQWRqdXN0PSJzcGFjaW5nIiB0ZXh0TGVuZ3RoPSIxMDIiIHg9IjUzLjUiIHk9IjIzMi45Mjk3Ij5ha2FyIDo9IGFrYXIgKyAxPC90ZXh0Pjxwb2x5Z29uIGZpbGw9IiNGMUYxRjEiIHBvaW50cz0iNTkuNSwxNTUuNjg3NSwxNDkuNSwxNTUuNjg3NSwxNjEuNSwxNjcuNjg3NSwxNDkuNSwxNzkuNjg3NSw1OS41LDE3OS42ODc1LDQ3LjUsMTY3LjY4NzUsNTkuNSwxNTUuNjg3NSIgc3R5bGU9InN0cm9rZTojMTgxODE4O3N0cm9rZS13aWR0aDowLjU7Ii8+PHRleHQgZmlsbD0iIzAwMDAwMCIgZm9udC1mYW1pbHk9InNhbnMtc2VyaWYiIGZvbnQtc2l6ZT0iMTEiIGxlbmd0aEFkanVzdD0ic3BhY2luZyIgdGV4dExlbmd0aD0iMjQiIHg9IjEwOC41IiB5PSIxOTAuMDg1OSI+dHJ1ZTwvdGV4dD48dGV4dCBmaWxsPSIjMDAwMDAwIiBmb250LWZhbWlseT0ic2Fucy1zZXJpZiIgZm9udC1zaXplPSIxMSIgbGVuZ3RoQWRqdXN0PSJzcGFjaW5nIiB0ZXh0TGVuZ3RoPSI5MCIgeD0iNTkuNSIgeT0iMTcyLjE5OTIiPmFrYXIgKiBha2FyICZsdDsgbjwvdGV4dD48dGV4dCBmaWxsPSIjMDAwMDAwIiBmb250LWZhbWlseT0ic2Fucy1zZXJpZiIgZm9udC1zaXplPSIxMSIgbGVuZ3RoQWRqdXN0PSJzcGFjaW5nIiB0ZXh0TGVuZ3RoPSIzMCIgeD0iMTcuNSIgeT0iMTY2LjMxMjUiPmZhbHNlPC90ZXh0PjxyZWN0IGZpbGw9IiNGMUYxRjEiIGhlaWdodD0iMzIuODQzOCIgcng9IjEyLjUiIHJ5PSIxMi41IiBzdHlsZT0ic3Ryb2tlOiMxODE4MTg7c3Ryb2tlLXdpZHRoOjAuNTsiIHdpZHRoPSIxMjIiIHg9IjQzLjUiIHk9IjMzNC40Mjk3Ii8+PHRleHQgZmlsbD0iIzAwMDAwMCIgZm9udC1mYW1pbHk9InNhbnMtc2VyaWYiIGZvbnQtc2l6ZT0iMTIiIGxlbmd0aEFkanVzdD0ic3BhY2luZyIgdGV4dExlbmd0aD0iMTAyIiB4PSI1My41IiB5PSIzNTUuNzczNCI+YWthciA6PSBha2FyIC0gMTwvdGV4dD48cG9seWdvbiBmaWxsPSIjRjFGMUYxIiBwb2ludHM9IjU5LjUsMjg2LjQyOTcsMTQ5LjUsMjg2LjQyOTcsMTYxLjUsMjk4LjQyOTcsMTQ5LjUsMzEwLjQyOTcsNTkuNSwzMTAuNDI5Nyw0Ny41LDI5OC40Mjk3LDU5LjUsMjg2LjQyOTciIHN0eWxlPSJzdHJva2U6IzE4MTgxODtzdHJva2Utd2lkdGg6MC41OyIvPjx0ZXh0IGZpbGw9IiMwMDAwMDAiIGZvbnQtZmFtaWx5PSJzYW5zLXNlcmlmIiBmb250LXNpemU9IjExIiBsZW5ndGhBZGp1c3Q9InNwYWNpbmciIHRleHRMZW5ndGg9IjI0IiB4PSIxMDguNSIgeT0iMzIwLjgyODEiPnRydWU8L3RleHQ+PHRleHQgZmlsbD0iIzAwMDAwMCIgZm9udC1mYW1pbHk9InNhbnMtc2VyaWYiIGZvbnQtc2l6ZT0iMTEiIGxlbmd0aEFkanVzdD0ic3BhY2luZyIgdGV4dExlbmd0aD0iOTAiIHg9IjU5LjUiIHk9IjMwMi45NDE0Ij5ha2FyICogYWthciAmZ3Q7IG48L3RleHQ+PHBvbHlnb24gZmlsbD0iI0YxRjFGMSIgcG9pbnRzPSIxMDQuNSwzODcuMjczNCwxMTYuNSwzOTkuMjczNCwxMDQuNSw0MTEuMjczNCw5Mi41LDM5OS4yNzM0LDEwNC41LDM4Ny4yNzM0IiBzdHlsZT0ic3Ryb2tlOiMxODE4MTg7c3Ryb2tlLXdpZHRoOjAuNTsiLz48cmVjdCBmaWxsPSIjRjFGMUYxIiBoZWlnaHQ9IjMyLjg0MzgiIHJ4PSIxMi41IiByeT0iMTIuNSIgc3R5bGU9InN0cm9rZTojMTgxODE4O3N0cm9rZS13aWR0aDowLjU7IiB3aWR0aD0iMTg3IiB4PSIxMSIgeT0iNDMxLjI3MzQiLz48dGV4dCBmaWxsPSIjMDAwMDAwIiBmb250LWZhbWlseT0ic2Fucy1zZXJpZiIgZm9udC1zaXplPSIxMiIgbGVuZ3RoQWRqdXN0PSJzcGFjaW5nIiB0ZXh0TGVuZ3RoPSIxNjciIHg9IjIxIiB5PSI0NTIuNjE3MiI+QWthciBiaWxhbmdhbiBhZGFsYWggYWthcjwvdGV4dD48ZWxsaXBzZSBjeD0iMTA0LjUiIGN5PSI0OTUuMTE3MiIgZmlsbD0ibm9uZSIgcng9IjExIiByeT0iMTEiIHN0eWxlPSJzdHJva2U6IzIyMjIyMjtzdHJva2Utd2lkdGg6MS4wOyIvPjxlbGxpcHNlIGN4PSIxMDQuNSIgY3k9IjQ5NS4xMTcyIiBmaWxsPSIjMjIyMjIyIiByeD0iNiIgcnk9IjYiIHN0eWxlPSJzdHJva2U6IzIyMjIyMjtzdHJva2Utd2lkdGg6MS4wOyIvPjxsaW5lIHN0eWxlPSJzdHJva2U6IzE4MTgxODtzdHJva2Utd2lkdGg6MS4wOyIgeDE9IjEwNC41IiB4Mj0iMTA0LjUiIHkxPSIzMCIgeTI9IjUwIi8+PHBvbHlnb24gZmlsbD0iIzE4MTgxOCIgcG9pbnRzPSIxMDAuNSw0MCwxMDQuNSw1MCwxMDguNSw0MCwxMDQuNSw0NCIgc3R5bGU9InN0cm9rZTojMTgxODE4O3N0cm9rZS13aWR0aDoxLjA7Ii8+PGxpbmUgc3R5bGU9InN0cm9rZTojMTgxODE4O3N0cm9rZS13aWR0aDoxLjA7IiB4MT0iMTA0LjUiIHgyPSIxMDQuNSIgeTE9IjgyLjg0MzgiIHkyPSIxMDIuODQzOCIvPjxwb2x5Z29uIGZpbGw9IiMxODE4MTgiIHBvaW50cz0iMTAwLjUsOTIuODQzOCwxMDQuNSwxMDIuODQzOCwxMDguNSw5Mi44NDM4LDEwNC41LDk2Ljg0MzgiIHN0eWxlPSJzdHJva2U6IzE4MTgxODtzdHJva2Utd2lkdGg6MS4wOyIvPjxsaW5lIHN0eWxlPSJzdHJva2U6IzE4MTgxODtzdHJva2Utd2lkdGg6MS4wOyIgeDE9IjEwNC41IiB4Mj0iMTA0LjUiIHkxPSIxNzkuNjg3NSIgeTI9IjIxMS41ODU5Ii8+PHBvbHlnb24gZmlsbD0iIzE4MTgxOCIgcG9pbnRzPSIxMDAuNSwyMDEuNTg1OSwxMDQuNSwyMTEuNTg1OSwxMDguNSwyMDEuNTg1OSwxMDQuNSwyMDUuNTg1OSIgc3R5bGU9InN0cm9rZTojMTgxODE4O3N0cm9rZS13aWR0aDoxLjA7Ii8+PGxpbmUgc3R5bGU9InN0cm9rZTojMTgxODE4O3N0cm9rZS13aWR0aDoxLjA7IiB4MT0iMTA0LjUiIHgyPSIxMDQuNSIgeTE9IjI0NC40Mjk3IiB5Mj0iMjU0LjQyOTciLz48bGluZSBzdHlsZT0ic3Ryb2tlOiMxODE4MTg7c3Ryb2tlLXdpZHRoOjEuMDsiIHgxPSIxMDQuNSIgeDI9IjE3Ny41IiB5MT0iMjU0LjQyOTciIHkyPSIyNTQuNDI5NyIvPjxwb2x5Z29uIGZpbGw9IiMxODE4MTgiIHBvaW50cz0iMTczLjUsMjIwLjEyMTEsMTc3LjUsMjEwLjEyMTEsMTgxLjUsMjIwLjEyMTEsMTc3LjUsMjE2LjEyMTEiIHN0eWxlPSJzdHJva2U6IzE4MTgxODtzdHJva2Utd2lkdGg6MS4wOyIvPjxsaW5lIHN0eWxlPSJzdHJva2U6IzE4MTgxODtzdHJva2Utd2lkdGg6MS4wOyIgeDE9IjE3Ny41IiB4Mj0iMTc3LjUiIHkxPSIxNjcuNjg3NSIgeTI9IjI1NC40Mjk3Ii8+PGxpbmUgc3R5bGU9InN0cm9rZTojMTgxODE4O3N0cm9rZS13aWR0aDoxLjA7IiB4MT0iMTc3LjUiIHgyPSIxNjEuNSIgeTE9IjE2Ny42ODc1IiB5Mj0iMTY3LjY4NzUiLz48cG9seWdvbiBmaWxsPSIjMTgxODE4IiBwb2ludHM9IjE3MS41LDE2My42ODc1LDE2MS41LDE2Ny42ODc1LDE3MS41LDE3MS42ODc1LDE2Ny41LDE2Ny42ODc1IiBzdHlsZT0ic3Ryb2tlOiMxODE4MTg7c3Ryb2tlLXdpZHRoOjEuMDsiLz48bGluZSBzdHlsZT0ic3Ryb2tlOiMxODE4MTg7c3Ryb2tlLXdpZHRoOjEuMDsiIHgxPSI0Ny41IiB4Mj0iMzEuNSIgeTE9IjE2Ny42ODc1IiB5Mj0iMTY3LjY4NzUiLz48cG9seWdvbiBmaWxsPSIjMTgxODE4IiBwb2ludHM9IjI3LjUsMjA2LjEyMTEsMzEuNSwyMTYuMTIxMSwzNS41LDIwNi4xMjExLDMxLjUsMjEwLjEyMTEiIHN0eWxlPSJzdHJva2U6IzE4MTgxODtzdHJva2Utd2lkdGg6MS4wOyIvPjxsaW5lIHN0eWxlPSJzdHJva2U6IzE4MTgxODtzdHJva2Utd2lkdGg6MS4wOyIgeDE9IjMxLjUiIHgyPSIzMS41IiB5MT0iMTY3LjY4NzUiIHkyPSIyNjYuNDI5NyIvPjxsaW5lIHN0eWxlPSJzdHJva2U6IzE4MTgxODtzdHJva2Utd2lkdGg6MS4wOyIgeDE9IjMxLjUiIHgyPSIxMDQuNSIgeTE9IjI2Ni40Mjk3IiB5Mj0iMjY2LjQyOTciLz48bGluZSBzdHlsZT0ic3Ryb2tlOiMxODE4MTg7c3Ryb2tlLXdpZHRoOjEuMDsiIHgxPSIxMDQuNSIgeDI9IjEwNC41IiB5MT0iMjY2LjQyOTciIHkyPSIyODYuNDI5NyIvPjxwb2x5Z29uIGZpbGw9IiMxODE4MTgiIHBvaW50cz0iMTAwLjUsMjc2LjQyOTcsMTA0LjUsMjg2LjQyOTcsMTA4LjUsMjc2LjQyOTcsMTA0LjUsMjgwLjQyOTciIHN0eWxlPSJzdHJva2U6IzE4MTgxODtzdHJva2Utd2lkdGg6MS4wOyIvPjxsaW5lIHN0eWxlPSJzdHJva2U6IzE4MTgxODtzdHJva2Utd2lkdGg6MS4wOyIgeDE9IjEwNC41IiB4Mj0iMTA0LjUiIHkxPSIxMzUuNjg3NSIgeTI9IjE1NS42ODc1Ii8+PHBvbHlnb24gZmlsbD0iIzE4MTgxOCIgcG9pbnRzPSIxMDAuNSwxNDUuNjg3NSwxMDQuNSwxNTUuNjg3NSwxMDguNSwxNDUuNjg3NSwxMDQuNSwxNDkuNjg3NSIgc3R5bGU9InN0cm9rZTojMTgxODE4O3N0cm9rZS13aWR0aDoxLjA7Ii8+PGxpbmUgc3R5bGU9InN0cm9rZTojMTgxODE4O3N0cm9rZS13aWR0aDoxLjA7IiB4MT0iMTA0LjUiIHgyPSIxMDQuNSIgeTE9IjMxMC40Mjk3IiB5Mj0iMzM0LjQyOTciLz48cG9seWdvbiBmaWxsPSIjMTgxODE4IiBwb2ludHM9IjEwMC41LDMyNC40Mjk3LDEwNC41LDMzNC40Mjk3LDEwOC41LDMyNC40Mjk3LDEwNC41LDMyOC40Mjk3IiBzdHlsZT0ic3Ryb2tlOiMxODE4MTg7c3Ryb2tlLXdpZHRoOjEuMDsiLz48bGluZSBzdHlsZT0ic3Ryb2tlOiMxODE4MTg7c3Ryb2tlLXdpZHRoOjEuMDsiIHgxPSIxNjEuNSIgeDI9IjE3NS41IiB5MT0iMjk4LjQyOTciIHkyPSIyOTguNDI5NyIvPjxwb2x5Z29uIGZpbGw9IiMxODE4MTgiIHBvaW50cz0iMTcxLjUsMzQwLjg1MTYsMTc1LjUsMzUwLjg1MTYsMTc5LjUsMzQwLjg1MTYsMTc1LjUsMzQ0Ljg1MTYiIHN0eWxlPSJzdHJva2U6IzE4MTgxODtzdHJva2Utd2lkdGg6MS4wOyIvPjxsaW5lIHN0eWxlPSJzdHJva2U6IzE4MTgxODtzdHJva2Utd2lkdGg6MS4wOyIgeDE9IjE3NS41IiB4Mj0iMTc1LjUiIHkxPSIyOTguNDI5NyIgeTI9IjM5OS4yNzM0Ii8+PGxpbmUgc3R5bGU9InN0cm9rZTojMTgxODE4O3N0cm9rZS13aWR0aDoxLjA7IiB4MT0iMTc1LjUiIHgyPSIxMTYuNSIgeTE9IjM5OS4yNzM0IiB5Mj0iMzk5LjI3MzQiLz48cG9seWdvbiBmaWxsPSIjMTgxODE4IiBwb2ludHM9IjEyNi41LDM5NS4yNzM0LDExNi41LDM5OS4yNzM0LDEyNi41LDQwMy4yNzM0LDEyMi41LDM5OS4yNzM0IiBzdHlsZT0ic3Ryb2tlOiMxODE4MTg7c3Ryb2tlLXdpZHRoOjEuMDsiLz48bGluZSBzdHlsZT0ic3Ryb2tlOiMxODE4MTg7c3Ryb2tlLXdpZHRoOjEuMDsiIHgxPSIxMDQuNSIgeDI9IjEwNC41IiB5MT0iMzY3LjI3MzQiIHkyPSIzODcuMjczNCIvPjxwb2x5Z29uIGZpbGw9IiMxODE4MTgiIHBvaW50cz0iMTAwLjUsMzc3LjI3MzQsMTA0LjUsMzg3LjI3MzQsMTA4LjUsMzc3LjI3MzQsMTA0LjUsMzgxLjI3MzQiIHN0eWxlPSJzdHJva2U6IzE4MTgxODtzdHJva2Utd2lkdGg6MS4wOyIvPjxsaW5lIHN0eWxlPSJzdHJva2U6IzE4MTgxODtzdHJva2Utd2lkdGg6MS4wOyIgeDE9IjEwNC41IiB4Mj0iMTA0LjUiIHkxPSI0MTEuMjczNCIgeTI9IjQzMS4yNzM0Ii8+PHBvbHlnb24gZmlsbD0iIzE4MTgxOCIgcG9pbnRzPSIxMDAuNSw0MjEuMjczNCwxMDQuNSw0MzEuMjczNCwxMDguNSw0MjEuMjczNCwxMDQuNSw0MjUuMjczNCIgc3R5bGU9InN0cm9rZTojMTgxODE4O3N0cm9rZS13aWR0aDoxLjA7Ii8+PGxpbmUgc3R5bGU9InN0cm9rZTojMTgxODE4O3N0cm9rZS13aWR0aDoxLjA7IiB4MT0iMTA0LjUiIHgyPSIxMDQuNSIgeTE9IjQ2NC4xMTcyIiB5Mj0iNDg0LjExNzIiLz48cG9seWdvbiBmaWxsPSIjMTgxODE4IiBwb2ludHM9IjEwMC41LDQ3NC4xMTcyLDEwNC41LDQ4NC4xMTcyLDEwOC41LDQ3NC4xMTcyLDEwNC41LDQ3OC4xMTcyIiBzdHlsZT0ic3Ryb2tlOiMxODE4MTg7c3Ryb2tlLXdpZHRoOjEuMDsiLz48IS0tU1JDPVtUT24xMlc4bjQwSmx5dWUteFlnMk5YQ0xGRmdDYUt0Q08xV2JDLUJ0VFNDWVVGM0tLNUlORUpVZFM1T251SWg2OWoxOFdNX1M0MHhPSGRlTGdHYjM5b2xxc0tEN1k2N216YW1aMEwtX3huZ3hJNGNkdlBjdnNpVUlfMWl2cFg0bElWemJEYWo2Q2VOSjMydklNUS1pdThhaGJzdjVDaHlfdFcwMF0tLT48L2c+PC9zdmc+;" vertex="1" parent="1">
            <mxGeometry x="80" y="20" width="165.74" height="410" as="geometry" />
          </mxCell>
        </UserObject>
        <UserObject label="" plantUmlData="{&quot;data&quot;:&quot;@startuml\nstart\n:Inisialisasi n;\n:batas_bawah := 0;\n:batas_atas := n;\nwhile (batas_bawah &lt;= batas_atas) is (true)\n  :tengah := (batas_bawah + batas_atas) / 2;\n  if (tengah * tengah &lt; n) then (true)\n    :batas_bawah := tengah + 1;\n  else (false)\n    :batas_atas := tengah - 1;\n  endif\nendwhile (false)\n:Akar bilangan adalah batas_atas;\nstop\n@enduml\n&quot;,&quot;format&quot;:&quot;svg&quot;}" id="WrDCZJXCZhnI1aJd4x_w-3">
          <mxCell style="shape=image;noLabel=1;verticalAlign=top;aspect=fixed;imageAspect=0;image=data:image/svg+xml,PD94bWwgdmVyc2lvbj0iMS4wIiBlbmNvZGluZz0idXMtYXNjaWkiIHN0YW5kYWxvbmU9Im5vIj8+PHN2ZyB4bWxucz0iaHR0cDovL3d3dy53My5vcmcvMjAwMC9zdmciIHhtbG5zOnhsaW5rPSJodHRwOi8vd3d3LnczLm9yZy8xOTk5L3hsaW5rIiBjb250ZW50U3R5bGVUeXBlPSJ0ZXh0L2NzcyIgaGVpZ2h0PSI1NDFweCIgcHJlc2VydmVBc3BlY3RSYXRpbz0ibm9uZSIgc3R5bGU9IndpZHRoOjQ1N3B4O2hlaWdodDo1NDFweDtiYWNrZ3JvdW5kOiNGRkZGRkY7IiB2ZXJzaW9uPSIxLjEiIHZpZXdCb3g9IjAgMCA0NTcgNTQxIiB3aWR0aD0iNDU3cHgiIHpvb21BbmRQYW49Im1hZ25pZnkiPjxkZWZzLz48Zz48ZWxsaXBzZSBjeD0iMjI5LjI1IiBjeT0iMjAiIGZpbGw9IiMyMjIyMjIiIHJ4PSIxMCIgcnk9IjEwIiBzdHlsZT0ic3Ryb2tlOiMyMjIyMjI7c3Ryb2tlLXdpZHRoOjEuMDsiLz48cmVjdCBmaWxsPSIjRjFGMUYxIiBoZWlnaHQ9IjMyLjg0MzgiIHJ4PSIxMi41IiByeT0iMTIuNSIgc3R5bGU9InN0cm9rZTojMTgxODE4O3N0cm9rZS13aWR0aDowLjU7IiB3aWR0aD0iMTExIiB4PSIxNzMuNzUiIHk9IjUwIi8+PHRleHQgZmlsbD0iIzAwMDAwMCIgZm9udC1mYW1pbHk9InNhbnMtc2VyaWYiIGZvbnQtc2l6ZT0iMTIiIGxlbmd0aEFkanVzdD0ic3BhY2luZyIgdGV4dExlbmd0aD0iOTEiIHg9IjE4My43NSIgeT0iNzEuMzQzOCI+SW5pc2lhbGlzYXNpIG48L3RleHQ+PHJlY3QgZmlsbD0iI0YxRjFGMSIgaGVpZ2h0PSIzMi44NDM4IiByeD0iMTIuNSIgcnk9IjEyLjUiIHN0eWxlPSJzdHJva2U6IzE4MTgxODtzdHJva2Utd2lkdGg6MC41OyIgd2lkdGg9IjEyNCIgeD0iMTY3LjI1IiB5PSIxMDIuODQzOCIvPjx0ZXh0IGZpbGw9IiMwMDAwMDAiIGZvbnQtZmFtaWx5PSJzYW5zLXNlcmlmIiBmb250LXNpemU9IjEyIiBsZW5ndGhBZGp1c3Q9InNwYWNpbmciIHRleHRMZW5ndGg9IjEwNCIgeD0iMTc3LjI1IiB5PSIxMjQuMTg3NSI+YmF0YXNfYmF3YWggOj0gMDwvdGV4dD48cmVjdCBmaWxsPSIjRjFGMUYxIiBoZWlnaHQ9IjMyLjg0MzgiIHJ4PSIxMi41IiByeT0iMTIuNSIgc3R5bGU9InN0cm9rZTojMTgxODE4O3N0cm9rZS13aWR0aDowLjU7IiB3aWR0aD0iMTE4IiB4PSIxNzAuMjUiIHk9IjE1NS42ODc1Ii8+PHRleHQgZmlsbD0iIzAwMDAwMCIgZm9udC1mYW1pbHk9InNhbnMtc2VyaWYiIGZvbnQtc2l6ZT0iMTIiIGxlbmd0aEFkanVzdD0ic3BhY2luZyIgdGV4dExlbmd0aD0iOTgiIHg9IjE4MC4yNSIgeT0iMTc3LjAzMTMiPmJhdGFzX2F0YXMgOj0gbjwvdGV4dD48cmVjdCBmaWxsPSIjRjFGMUYxIiBoZWlnaHQ9IjMyLjg0MzgiIHJ4PSIxMi41IiByeT0iMTIuNSIgc3R5bGU9InN0cm9rZTojMTgxODE4O3N0cm9rZS13aWR0aDowLjU7IiB3aWR0aD0iMjgxIiB4PSI4OC43NSIgeT0iMjY0LjQyOTciLz48dGV4dCBmaWxsPSIjMDAwMDAwIiBmb250LWZhbWlseT0ic2Fucy1zZXJpZiIgZm9udC1zaXplPSIxMiIgbGVuZ3RoQWRqdXN0PSJzcGFjaW5nIiB0ZXh0TGVuZ3RoPSIyNjEiIHg9Ijk4Ljc1IiB5PSIyODUuNzczNCI+dGVuZ2FoIDo9IChiYXRhc19iYXdhaCArIGJhdGFzX2F0YXMpIC8gMjwvdGV4dD48cG9seWdvbiBmaWxsPSIjRjFGMUYxIiBwb2ludHM9IjE3Mi4yNSwzMTcuMjczNCwyODYuMjUsMzE3LjI3MzQsMjk4LjI1LDMyOS4yNzM0LDI4Ni4yNSwzNDEuMjczNCwxNzIuMjUsMzQxLjI3MzQsMTYwLjI1LDMyOS4yNzM0LDE3Mi4yNSwzMTcuMjczNCIgc3R5bGU9InN0cm9rZTojMTgxODE4O3N0cm9rZS13aWR0aDowLjU7Ii8+PHRleHQgZmlsbD0iIzAwMDAwMCIgZm9udC1mYW1pbHk9InNhbnMtc2VyaWYiIGZvbnQtc2l6ZT0iMTEiIGxlbmd0aEFkanVzdD0ic3BhY2luZyIgdGV4dExlbmd0aD0iMTE0IiB4PSIxNzIuMjUiIHk9IjMzMy43ODUyIj50ZW5nYWggKiB0ZW5nYWggJmx0OyBuPC90ZXh0Pjx0ZXh0IGZpbGw9IiMwMDAwMDAiIGZvbnQtZmFtaWx5PSJzYW5zLXNlcmlmIiBmb250LXNpemU9IjExIiBsZW5ndGhBZGp1c3Q9InNwYWNpbmciIHRleHRMZW5ndGg9IjI0IiB4PSIxMzYuMjUiIHk9IjMyNy44OTg0Ij50cnVlPC90ZXh0Pjx0ZXh0IGZpbGw9IiMwMDAwMDAiIGZvbnQtZmFtaWx5PSJzYW5zLXNlcmlmIiBmb250LXNpemU9IjExIiBsZW5ndGhBZGp1c3Q9InNwYWNpbmciIHRleHRMZW5ndGg9IjMwIiB4PSIyOTguMjUiIHk9IjMyNy44OTg0Ij5mYWxzZTwvdGV4dD48cmVjdCBmaWxsPSIjRjFGMUYxIiBoZWlnaHQ9IjMyLjg0MzgiIHJ4PSIxMi41IiByeT0iMTIuNSIgc3R5bGU9InN0cm9rZTojMTgxODE4O3N0cm9rZS13aWR0aDowLjU7IiB3aWR0aD0iMTgzIiB4PSIzOCIgeT0iMzUxLjI3MzQiLz48dGV4dCBmaWxsPSIjMDAwMDAwIiBmb250LWZhbWlseT0ic2Fucy1zZXJpZiIgZm9udC1zaXplPSIxMiIgbGVuZ3RoQWRqdXN0PSJzcGFjaW5nIiB0ZXh0TGVuZ3RoPSIxNjMiIHg9IjQ4IiB5PSIzNzIuNjE3MiI+YmF0YXNfYmF3YWggOj0gdGVuZ2FoICsgMTwvdGV4dD48cmVjdCBmaWxsPSIjRjFGMUYxIiBoZWlnaHQ9IjMyLjg0MzgiIHJ4PSIxMi41IiByeT0iMTIuNSIgc3R5bGU9InN0cm9rZTojMTgxODE4O3N0cm9rZS13aWR0aDowLjU7IiB3aWR0aD0iMTc2IiB4PSIyNDEiIHk9IjM1MS4yNzM0Ii8+PHRleHQgZmlsbD0iIzAwMDAwMCIgZm9udC1mYW1pbHk9InNhbnMtc2VyaWYiIGZvbnQtc2l6ZT0iMTIiIGxlbmd0aEFkanVzdD0ic3BhY2luZyIgdGV4dExlbmd0aD0iMTU2IiB4PSIyNTEiIHk9IjM3Mi42MTcyIj5iYXRhc19hdGFzIDo9IHRlbmdhaCAtIDE8L3RleHQ+PHBvbHlnb24gZmlsbD0iI0YxRjFGMSIgcG9pbnRzPSIyMjkuMjUsMzkwLjExNzIsMjQxLjI1LDQwMi4xMTcyLDIyOS4yNSw0MTQuMTE3MiwyMTcuMjUsNDAyLjExNzIsMjI5LjI1LDM5MC4xMTcyIiBzdHlsZT0ic3Ryb2tlOiMxODE4MTg7c3Ryb2tlLXdpZHRoOjAuNTsiLz48cG9seWdvbiBmaWxsPSIjRjFGMUYxIiBwb2ludHM9IjE1NC4yNSwyMDguNTMxMywzMDQuMjUsMjA4LjUzMTMsMzE2LjI1LDIyMC41MzEzLDMwNC4yNSwyMzIuNTMxMywxNTQuMjUsMjMyLjUzMTMsMTQyLjI1LDIyMC41MzEzLDE1NC4yNSwyMDguNTMxMyIgc3R5bGU9InN0cm9rZTojMTgxODE4O3N0cm9rZS13aWR0aDowLjU7Ii8+PHRleHQgZmlsbD0iIzAwMDAwMCIgZm9udC1mYW1pbHk9InNhbnMtc2VyaWYiIGZvbnQtc2l6ZT0iMTEiIGxlbmd0aEFkanVzdD0ic3BhY2luZyIgdGV4dExlbmd0aD0iMjQiIHg9IjIzMy4yNSIgeT0iMjQyLjkyOTciPnRydWU8L3RleHQ+PHRleHQgZmlsbD0iIzAwMDAwMCIgZm9udC1mYW1pbHk9InNhbnMtc2VyaWYiIGZvbnQtc2l6ZT0iMTEiIGxlbmd0aEFkanVzdD0ic3BhY2luZyIgdGV4dExlbmd0aD0iMTUwIiB4PSIxNTQuMjUiIHk9IjIyNS4wNDMiPmJhdGFzX2Jhd2FoICZsdDs9IGJhdGFzX2F0YXM8L3RleHQ+PHRleHQgZmlsbD0iIzAwMDAwMCIgZm9udC1mYW1pbHk9InNhbnMtc2VyaWYiIGZvbnQtc2l6ZT0iMTEiIGxlbmd0aEFkanVzdD0ic3BhY2luZyIgdGV4dExlbmd0aD0iMzAiIHg9IjExMi4yNSIgeT0iMjE5LjE1NjMiPmZhbHNlPC90ZXh0PjxyZWN0IGZpbGw9IiNGMUYxRjEiIGhlaWdodD0iMzIuODQzOCIgcng9IjEyLjUiIHJ5PSIxMi41IiBzdHlsZT0ic3Ryb2tlOiMxODE4MTg7c3Ryb2tlLXdpZHRoOjAuNTsiIHdpZHRoPSIyMjciIHg9IjExNS43NSIgeT0iNDU2LjExNzIiLz48dGV4dCBmaWxsPSIjMDAwMDAwIiBmb250LWZhbWlseT0ic2Fucy1zZXJpZiIgZm9udC1zaXplPSIxMiIgbGVuZ3RoQWRqdXN0PSJzcGFjaW5nIiB0ZXh0TGVuZ3RoPSIyMDciIHg9IjEyNS43NSIgeT0iNDc3LjQ2MDkiPkFrYXIgYmlsYW5nYW4gYWRhbGFoIGJhdGFzX2F0YXM8L3RleHQ+PGVsbGlwc2UgY3g9IjIyOS4yNSIgY3k9IjUxOS45NjA5IiBmaWxsPSJub25lIiByeD0iMTEiIHJ5PSIxMSIgc3R5bGU9InN0cm9rZTojMjIyMjIyO3N0cm9rZS13aWR0aDoxLjA7Ii8+PGVsbGlwc2UgY3g9IjIyOS4yNSIgY3k9IjUxOS45NjA5IiBmaWxsPSIjMjIyMjIyIiByeD0iNiIgcnk9IjYiIHN0eWxlPSJzdHJva2U6IzIyMjIyMjtzdHJva2Utd2lkdGg6MS4wOyIvPjxsaW5lIHN0eWxlPSJzdHJva2U6IzE4MTgxODtzdHJva2Utd2lkdGg6MS4wOyIgeDE9IjIyOS4yNSIgeDI9IjIyOS4yNSIgeTE9IjMwIiB5Mj0iNTAiLz48cG9seWdvbiBmaWxsPSIjMTgxODE4IiBwb2ludHM9IjIyNS4yNSw0MCwyMjkuMjUsNTAsMjMzLjI1LDQwLDIyOS4yNSw0NCIgc3R5bGU9InN0cm9rZTojMTgxODE4O3N0cm9rZS13aWR0aDoxLjA7Ii8+PGxpbmUgc3R5bGU9InN0cm9rZTojMTgxODE4O3N0cm9rZS13aWR0aDoxLjA7IiB4MT0iMjI5LjI1IiB4Mj0iMjI5LjI1IiB5MT0iODIuODQzOCIgeTI9IjEwMi44NDM4Ii8+PHBvbHlnb24gZmlsbD0iIzE4MTgxOCIgcG9pbnRzPSIyMjUuMjUsOTIuODQzOCwyMjkuMjUsMTAyLjg0MzgsMjMzLjI1LDkyLjg0MzgsMjI5LjI1LDk2Ljg0MzgiIHN0eWxlPSJzdHJva2U6IzE4MTgxODtzdHJva2Utd2lkdGg6MS4wOyIvPjxsaW5lIHN0eWxlPSJzdHJva2U6IzE4MTgxODtzdHJva2Utd2lkdGg6MS4wOyIgeDE9IjIyOS4yNSIgeDI9IjIyOS4yNSIgeTE9IjEzNS42ODc1IiB5Mj0iMTU1LjY4NzUiLz48cG9seWdvbiBmaWxsPSIjMTgxODE4IiBwb2ludHM9IjIyNS4yNSwxNDUuNjg3NSwyMjkuMjUsMTU1LjY4NzUsMjMzLjI1LDE0NS42ODc1LDIyOS4yNSwxNDkuNjg3NSIgc3R5bGU9InN0cm9rZTojMTgxODE4O3N0cm9rZS13aWR0aDoxLjA7Ii8+PGxpbmUgc3R5bGU9InN0cm9rZTojMTgxODE4O3N0cm9rZS13aWR0aDoxLjA7IiB4MT0iMTYwLjI1IiB4Mj0iMTI5LjUiIHkxPSIzMjkuMjczNCIgeTI9IjMyOS4yNzM0Ii8+PGxpbmUgc3R5bGU9InN0cm9rZTojMTgxODE4O3N0cm9rZS13aWR0aDoxLjA7IiB4MT0iMTI5LjUiIHgyPSIxMjkuNSIgeTE9IjMyOS4yNzM0IiB5Mj0iMzUxLjI3MzQiLz48cG9seWdvbiBmaWxsPSIjMTgxODE4IiBwb2ludHM9IjEyNS41LDM0MS4yNzM0LDEyOS41LDM1MS4yNzM0LDEzMy41LDM0MS4yNzM0LDEyOS41LDM0NS4yNzM0IiBzdHlsZT0ic3Ryb2tlOiMxODE4MTg7c3Ryb2tlLXdpZHRoOjEuMDsiLz48bGluZSBzdHlsZT0ic3Ryb2tlOiMxODE4MTg7c3Ryb2tlLXdpZHRoOjEuMDsiIHgxPSIyOTguMjUiIHgyPSIzMjkiIHkxPSIzMjkuMjczNCIgeTI9IjMyOS4yNzM0Ii8+PGxpbmUgc3R5bGU9InN0cm9rZTojMTgxODE4O3N0cm9rZS13aWR0aDoxLjA7IiB4MT0iMzI5IiB4Mj0iMzI5IiB5MT0iMzI5LjI3MzQiIHkyPSIzNTEuMjczNCIvPjxwb2x5Z29uIGZpbGw9IiMxODE4MTgiIHBvaW50cz0iMzI1LDM0MS4yNzM0LDMyOSwzNTEuMjczNCwzMzMsMzQxLjI3MzQsMzI5LDM0NS4yNzM0IiBzdHlsZT0ic3Ryb2tlOiMxODE4MTg7c3Ryb2tlLXdpZHRoOjEuMDsiLz48bGluZSBzdHlsZT0ic3Ryb2tlOiMxODE4MTg7c3Ryb2tlLXdpZHRoOjEuMDsiIHgxPSIxMjkuNSIgeDI9IjEyOS41IiB5MT0iMzg0LjExNzIiIHkyPSI0MDIuMTE3MiIvPjxsaW5lIHN0eWxlPSJzdHJva2U6IzE4MTgxODtzdHJva2Utd2lkdGg6MS4wOyIgeDE9IjEyOS41IiB4Mj0iMjE3LjI1IiB5MT0iNDAyLjExNzIiIHkyPSI0MDIuMTE3MiIvPjxwb2x5Z29uIGZpbGw9IiMxODE4MTgiIHBvaW50cz0iMjA3LjI1LDM5OC4xMTcyLDIxNy4yNSw0MDIuMTE3MiwyMDcuMjUsNDA2LjExNzIsMjExLjI1LDQwMi4xMTcyIiBzdHlsZT0ic3Ryb2tlOiMxODE4MTg7c3Ryb2tlLXdpZHRoOjEuMDsiLz48bGluZSBzdHlsZT0ic3Ryb2tlOiMxODE4MTg7c3Ryb2tlLXdpZHRoOjEuMDsiIHgxPSIzMjkiIHgyPSIzMjkiIHkxPSIzODQuMTE3MiIgeTI9IjQwMi4xMTcyIi8+PGxpbmUgc3R5bGU9InN0cm9rZTojMTgxODE4O3N0cm9rZS13aWR0aDoxLjA7IiB4MT0iMzI5IiB4Mj0iMjQxLjI1IiB5MT0iNDAyLjExNzIiIHkyPSI0MDIuMTE3MiIvPjxwb2x5Z29uIGZpbGw9IiMxODE4MTgiIHBvaW50cz0iMjUxLjI1LDM5OC4xMTcyLDI0MS4yNSw0MDIuMTE3MiwyNTEuMjUsNDA2LjExNzIsMjQ3LjI1LDQwMi4xMTcyIiBzdHlsZT0ic3Ryb2tlOiMxODE4MTg7c3Ryb2tlLXdpZHRoOjEuMDsiLz48bGluZSBzdHlsZT0ic3Ryb2tlOiMxODE4MTg7c3Ryb2tlLXdpZHRoOjEuMDsiIHgxPSIyMjkuMjUiIHgyPSIyMjkuMjUiIHkxPSIyOTcuMjczNCIgeTI9IjMxNy4yNzM0Ii8+PHBvbHlnb24gZmlsbD0iIzE4MTgxOCIgcG9pbnRzPSIyMjUuMjUsMzA3LjI3MzQsMjI5LjI1LDMxNy4yNzM0LDIzMy4yNSwzMDcuMjczNCwyMjkuMjUsMzExLjI3MzQiIHN0eWxlPSJzdHJva2U6IzE4MTgxODtzdHJva2Utd2lkdGg6MS4wOyIvPjxsaW5lIHN0eWxlPSJzdHJva2U6IzE4MTgxODtzdHJva2Utd2lkdGg6MS4wOyIgeDE9IjIyOS4yNSIgeDI9IjIyOS4yNSIgeTE9IjIzMi41MzEzIiB5Mj0iMjY0LjQyOTciLz48cG9seWdvbiBmaWxsPSIjMTgxODE4IiBwb2ludHM9IjIyNS4yNSwyNTQuNDI5NywyMjkuMjUsMjY0LjQyOTcsMjMzLjI1LDI1NC40Mjk3LDIyOS4yNSwyNTguNDI5NyIgc3R5bGU9InN0cm9rZTojMTgxODE4O3N0cm9rZS13aWR0aDoxLjA7Ii8+PGxpbmUgc3R5bGU9InN0cm9rZTojMTgxODE4O3N0cm9rZS13aWR0aDoxLjA7IiB4MT0iMjI5LjI1IiB4Mj0iMjI5LjI1IiB5MT0iNDE0LjExNzIiIHkyPSI0MjQuMTE3MiIvPjxsaW5lIHN0eWxlPSJzdHJva2U6IzE4MTgxODtzdHJva2Utd2lkdGg6MS4wOyIgeDE9IjIyOS4yNSIgeDI9IjQzMSIgeTE9IjQyNC4xMTcyIiB5Mj0iNDI0LjExNzIiLz48cG9seWdvbiBmaWxsPSIjMTgxODE4IiBwb2ludHM9IjQyNywzMjMuODg2Nyw0MzEsMzEzLjg4NjcsNDM1LDMyMy44ODY3LDQzMSwzMTkuODg2NyIgc3R5bGU9InN0cm9rZTojMTgxODE4O3N0cm9rZS13aWR0aDoxLjA7Ii8+PGxpbmUgc3R5bGU9InN0cm9rZTojMTgxODE4O3N0cm9rZS13aWR0aDoxLjA7IiB4MT0iNDMxIiB4Mj0iNDMxIiB5MT0iMjIwLjUzMTMiIHkyPSI0MjQuMTE3MiIvPjxsaW5lIHN0eWxlPSJzdHJva2U6IzE4MTgxODtzdHJva2Utd2lkdGg6MS4wOyIgeDE9IjQzMSIgeDI9IjMxNi4yNSIgeTE9IjIyMC41MzEzIiB5Mj0iMjIwLjUzMTMiLz48cG9seWdvbiBmaWxsPSIjMTgxODE4IiBwb2ludHM9IjMyNi4yNSwyMTYuNTMxMywzMTYuMjUsMjIwLjUzMTMsMzI2LjI1LDIyNC41MzEzLDMyMi4yNSwyMjAuNTMxMyIgc3R5bGU9InN0cm9rZTojMTgxODE4O3N0cm9rZS13aWR0aDoxLjA7Ii8+PGxpbmUgc3R5bGU9InN0cm9rZTojMTgxODE4O3N0cm9rZS13aWR0aDoxLjA7IiB4MT0iMTQyLjI1IiB4Mj0iMjQiIHkxPSIyMjAuNTMxMyIgeTI9IjIyMC41MzEzIi8+PHBvbHlnb24gZmlsbD0iIzE4MTgxOCIgcG9pbnRzPSIyMCwzMDkuODg2NywyNCwzMTkuODg2NywyOCwzMDkuODg2NywyNCwzMTMuODg2NyIgc3R5bGU9InN0cm9rZTojMTgxODE4O3N0cm9rZS13aWR0aDoxLjA7Ii8+PGxpbmUgc3R5bGU9InN0cm9rZTojMTgxODE4O3N0cm9rZS13aWR0aDoxLjA7IiB4MT0iMjQiIHgyPSIyNCIgeTE9IjIyMC41MzEzIiB5Mj0iNDM2LjExNzIiLz48bGluZSBzdHlsZT0ic3Ryb2tlOiMxODE4MTg7c3Ryb2tlLXdpZHRoOjEuMDsiIHgxPSIyNCIgeDI9IjIyOS4yNSIgeTE9IjQzNi4xMTcyIiB5Mj0iNDM2LjExNzIiLz48bGluZSBzdHlsZT0ic3Ryb2tlOiMxODE4MTg7c3Ryb2tlLXdpZHRoOjEuMDsiIHgxPSIyMjkuMjUiIHgyPSIyMjkuMjUiIHkxPSI0MzYuMTE3MiIgeTI9IjQ1Ni4xMTcyIi8+PHBvbHlnb24gZmlsbD0iIzE4MTgxOCIgcG9pbnRzPSIyMjUuMjUsNDQ2LjExNzIsMjI5LjI1LDQ1Ni4xMTcyLDIzMy4yNSw0NDYuMTE3MiwyMjkuMjUsNDUwLjExNzIiIHN0eWxlPSJzdHJva2U6IzE4MTgxODtzdHJva2Utd2lkdGg6MS4wOyIvPjxsaW5lIHN0eWxlPSJzdHJva2U6IzE4MTgxODtzdHJva2Utd2lkdGg6MS4wOyIgeDE9IjIyOS4yNSIgeDI9IjIyOS4yNSIgeTE9IjE4OC41MzEzIiB5Mj0iMjA4LjUzMTMiLz48cG9seWdvbiBmaWxsPSIjMTgxODE4IiBwb2ludHM9IjIyNS4yNSwxOTguNTMxMywyMjkuMjUsMjA4LjUzMTMsMjMzLjI1LDE5OC41MzEzLDIyOS4yNSwyMDIuNTMxMyIgc3R5bGU9InN0cm9rZTojMTgxODE4O3N0cm9rZS13aWR0aDoxLjA7Ii8+PGxpbmUgc3R5bGU9InN0cm9rZTojMTgxODE4O3N0cm9rZS13aWR0aDoxLjA7IiB4MT0iMjI5LjI1IiB4Mj0iMjI5LjI1IiB5MT0iNDg4Ljk2MDkiIHkyPSI1MDguOTYwOSIvPjxwb2x5Z29uIGZpbGw9IiMxODE4MTgiIHBvaW50cz0iMjI1LjI1LDQ5OC45NjA5LDIyOS4yNSw1MDguOTYwOSwyMzMuMjUsNDk4Ljk2MDksMjI5LjI1LDUwMi45NjA5IiBzdHlsZT0ic3Ryb2tlOiMxODE4MTg7c3Ryb2tlLXdpZHRoOjEuMDsiLz48IS0tU1JDPVtOT19CM2U5MDM0TnR5bkx0MkhCWk9wZDBXZ0xWT0tlT2Y3NG82Wmc2dHhVNEtTSERzcEpkZGhHSVFPcDZOVzhCYXNTWE9PSklzOU9Zb1JNYllHUk82aVZsUVl4cEhnNWZPRS1HX1E5TFpITkJtTzhpWlktTjZ5MTY1c3dCUkhDZkRlYTNwZ04ydDZqbXVOVDhHdU1HOG11a2g0d3JfWHNRczBBZE1VRXl3ODR6UVRsV2RvU0lsS3pxd0JXdE1qRFpBTVVSRXVyZXNQRjIwVElIcnltZ0FldDRuX0NEXS0tPjwvZz48L3N2Zz4=;" vertex="1" parent="1">
            <mxGeometry x="250" y="120" width="211.18" height="250" as="geometry" />
          </mxCell>
        </UserObject>
      </root>
    </mxGraphModel>
  </diagram>
  <diagram id="4nwlL3krbOP3KZMpR4G0" name="Page-4">
    <mxGraphModel dx="2129" dy="938" grid="1" gridSize="10" guides="1" tooltips="1" connect="1" arrows="1" fold="1" page="1" pageScale="1" pageWidth="850" pageHeight="1100" math="0" shadow="0">
      <root>
        <mxCell id="0" />
        <mxCell id="1" parent="0" />
        <mxCell id="Opz3tPYvRYJz5mPI6RPD-2" value="" style="edgeStyle=orthogonalEdgeStyle;rounded=0;orthogonalLoop=1;jettySize=auto;html=1;" edge="1" parent="1" source="g9kEGycRhpzPAMJ_jhu9-1" target="Opz3tPYvRYJz5mPI6RPD-1">
          <mxGeometry relative="1" as="geometry" />
        </mxCell>
        <mxCell id="g9kEGycRhpzPAMJ_jhu9-1" value="start" style="ellipse;whiteSpace=wrap;html=1;aspect=fixed;" vertex="1" parent="1">
          <mxGeometry x="137" y="39.75" width="60" height="60" as="geometry" />
        </mxCell>
        <mxCell id="30QUV8_7FRUxPMP67GUx-2" value="" style="edgeStyle=orthogonalEdgeStyle;rounded=0;orthogonalLoop=1;jettySize=auto;html=1;" edge="1" parent="1" source="Opz3tPYvRYJz5mPI6RPD-1" target="30QUV8_7FRUxPMP67GUx-1">
          <mxGeometry relative="1" as="geometry" />
        </mxCell>
        <mxCell id="Opz3tPYvRYJz5mPI6RPD-1" value="inisialisasi n" style="whiteSpace=wrap;html=1;" vertex="1" parent="1">
          <mxGeometry x="112" y="129.75" width="110" height="40" as="geometry" />
        </mxCell>
        <mxCell id="bBol4EPPAs7pQPBsM7Bm-2" value="" style="edgeStyle=orthogonalEdgeStyle;rounded=0;orthogonalLoop=1;jettySize=auto;html=1;" edge="1" parent="1" source="30QUV8_7FRUxPMP67GUx-1" target="bBol4EPPAs7pQPBsM7Bm-1">
          <mxGeometry relative="1" as="geometry" />
        </mxCell>
        <mxCell id="30QUV8_7FRUxPMP67GUx-1" value="akar := 0" style="whiteSpace=wrap;html=1;" vertex="1" parent="1">
          <mxGeometry x="112" y="199.75" width="110" height="40" as="geometry" />
        </mxCell>
        <mxCell id="uwWQ-1RLJbY0H_YTWK3p-4" value="" style="edgeStyle=orthogonalEdgeStyle;rounded=0;orthogonalLoop=1;jettySize=auto;html=1;" edge="1" parent="1" source="bBol4EPPAs7pQPBsM7Bm-1" target="uwWQ-1RLJbY0H_YTWK3p-3">
          <mxGeometry relative="1" as="geometry" />
        </mxCell>
        <mxCell id="-dMym8YJEMh1sJRDaULY-11" value="true" style="edgeLabel;html=1;align=center;verticalAlign=middle;resizable=0;points=[];" vertex="1" connectable="0" parent="uwWQ-1RLJbY0H_YTWK3p-4">
          <mxGeometry x="-0.696" y="-1" relative="1" as="geometry">
            <mxPoint x="16" y="8" as="offset" />
          </mxGeometry>
        </mxCell>
        <mxCell id="uwWQ-1RLJbY0H_YTWK3p-8" value="" style="edgeStyle=orthogonalEdgeStyle;rounded=0;orthogonalLoop=1;jettySize=auto;html=1;entryX=0;entryY=0.5;entryDx=0;entryDy=0;" edge="1" parent="1" source="bBol4EPPAs7pQPBsM7Bm-1" target="uwWQ-1RLJbY0H_YTWK3p-7">
          <mxGeometry relative="1" as="geometry">
            <Array as="points">
              <mxPoint x="97" y="294.75" />
              <mxPoint x="97" y="454.75" />
            </Array>
          </mxGeometry>
        </mxCell>
        <mxCell id="bBol4EPPAs7pQPBsM7Bm-1" value="akar * akar &amp;lt; n&amp;nbsp;" style="shape=hexagon;perimeter=hexagonPerimeter2;whiteSpace=wrap;html=1;fixedSize=1;" vertex="1" parent="1">
          <mxGeometry x="117" y="269.75" width="100" height="50" as="geometry" />
        </mxCell>
        <mxCell id="uwWQ-1RLJbY0H_YTWK3p-5" style="edgeStyle=orthogonalEdgeStyle;rounded=0;orthogonalLoop=1;jettySize=auto;html=1;entryX=1;entryY=0.5;entryDx=0;entryDy=0;exitX=0.5;exitY=1;exitDx=0;exitDy=0;" edge="1" parent="1" source="uwWQ-1RLJbY0H_YTWK3p-3" target="bBol4EPPAs7pQPBsM7Bm-1">
          <mxGeometry relative="1" as="geometry">
            <Array as="points">
              <mxPoint x="167" y="409.75" />
              <mxPoint x="237" y="409.75" />
              <mxPoint x="237" y="294.75" />
            </Array>
          </mxGeometry>
        </mxCell>
        <mxCell id="uwWQ-1RLJbY0H_YTWK3p-3" value="akar := akar + 1" style="whiteSpace=wrap;html=1;" vertex="1" parent="1">
          <mxGeometry x="122" y="349.75" width="90" height="40" as="geometry" />
        </mxCell>
        <mxCell id="uwWQ-1RLJbY0H_YTWK3p-10" style="edgeStyle=orthogonalEdgeStyle;rounded=0;orthogonalLoop=1;jettySize=auto;html=1;entryX=0.5;entryY=0;entryDx=0;entryDy=0;" edge="1" parent="1" source="uwWQ-1RLJbY0H_YTWK3p-7" target="uwWQ-1RLJbY0H_YTWK3p-9">
          <mxGeometry relative="1" as="geometry" />
        </mxCell>
        <mxCell id="uwWQ-1RLJbY0H_YTWK3p-13" style="edgeStyle=orthogonalEdgeStyle;rounded=0;orthogonalLoop=1;jettySize=auto;html=1;entryX=1;entryY=0.5;entryDx=0;entryDy=0;" edge="1" parent="1" source="uwWQ-1RLJbY0H_YTWK3p-7" target="uwWQ-1RLJbY0H_YTWK3p-11">
          <mxGeometry relative="1" as="geometry">
            <Array as="points">
              <mxPoint x="237" y="454.75" />
              <mxPoint x="237" y="594.75" />
            </Array>
          </mxGeometry>
        </mxCell>
        <mxCell id="uwWQ-1RLJbY0H_YTWK3p-7" value="akar * akar &amp;gt; n&amp;nbsp;" style="shape=hexagon;perimeter=hexagonPerimeter2;whiteSpace=wrap;html=1;fixedSize=1;" vertex="1" parent="1">
          <mxGeometry x="117" y="429.75" width="100" height="50" as="geometry" />
        </mxCell>
        <mxCell id="uwWQ-1RLJbY0H_YTWK3p-12" value="" style="edgeStyle=orthogonalEdgeStyle;rounded=0;orthogonalLoop=1;jettySize=auto;html=1;" edge="1" parent="1" source="uwWQ-1RLJbY0H_YTWK3p-9" target="uwWQ-1RLJbY0H_YTWK3p-11">
          <mxGeometry relative="1" as="geometry" />
        </mxCell>
        <mxCell id="uwWQ-1RLJbY0H_YTWK3p-9" value="akar := akar - 1" style="whiteSpace=wrap;html=1;" vertex="1" parent="1">
          <mxGeometry x="122" y="509.75" width="90" height="40" as="geometry" />
        </mxCell>
        <mxCell id="-dMym8YJEMh1sJRDaULY-7" value="" style="edgeStyle=orthogonalEdgeStyle;rounded=0;orthogonalLoop=1;jettySize=auto;html=1;" edge="1" parent="1" source="uwWQ-1RLJbY0H_YTWK3p-11" target="-dMym8YJEMh1sJRDaULY-6">
          <mxGeometry relative="1" as="geometry" />
        </mxCell>
        <mxCell id="uwWQ-1RLJbY0H_YTWK3p-11" value="" style="rhombus;whiteSpace=wrap;html=1;" vertex="1" parent="1">
          <mxGeometry x="152" y="579.75" width="30" height="30" as="geometry" />
        </mxCell>
        <mxCell id="-dMym8YJEMh1sJRDaULY-9" value="" style="edgeStyle=orthogonalEdgeStyle;rounded=0;orthogonalLoop=1;jettySize=auto;html=1;" edge="1" parent="1" source="-dMym8YJEMh1sJRDaULY-6" target="-dMym8YJEMh1sJRDaULY-8">
          <mxGeometry relative="1" as="geometry" />
        </mxCell>
        <mxCell id="-dMym8YJEMh1sJRDaULY-6" value="akar bilangan adalah akar" style="shape=parallelogram;perimeter=parallelogramPerimeter;whiteSpace=wrap;html=1;fixedSize=1;" vertex="1" parent="1">
          <mxGeometry x="97" y="639.75" width="140" height="50" as="geometry" />
        </mxCell>
        <mxCell id="-dMym8YJEMh1sJRDaULY-8" value="end" style="ellipse;whiteSpace=wrap;html=1;" vertex="1" parent="1">
          <mxGeometry x="147" y="719.75" width="40" height="37.5" as="geometry" />
        </mxCell>
        <mxCell id="-dMym8YJEMh1sJRDaULY-10" value="false" style="text;html=1;align=center;verticalAlign=middle;resizable=0;points=[];autosize=1;strokeColor=none;fillColor=none;" vertex="1" parent="1">
          <mxGeometry x="47" y="319.75" width="50" height="30" as="geometry" />
        </mxCell>
        <mxCell id="-dMym8YJEMh1sJRDaULY-12" value="true" style="edgeLabel;html=1;align=center;verticalAlign=middle;resizable=0;points=[];" vertex="1" connectable="0" parent="1">
          <mxGeometry x="182.0034782608695" y="429.74608695652176" as="geometry">
            <mxPoint x="2" y="62" as="offset" />
          </mxGeometry>
        </mxCell>
        <mxCell id="-dMym8YJEMh1sJRDaULY-17" value="" style="edgeStyle=orthogonalEdgeStyle;rounded=0;orthogonalLoop=1;jettySize=auto;html=1;" edge="1" parent="1" source="-dMym8YJEMh1sJRDaULY-15" target="-dMym8YJEMh1sJRDaULY-16">
          <mxGeometry relative="1" as="geometry" />
        </mxCell>
        <mxCell id="-dMym8YJEMh1sJRDaULY-15" value="start" style="ellipse;whiteSpace=wrap;html=1;aspect=fixed;" vertex="1" parent="1">
          <mxGeometry x="560" y="40" width="60" height="60" as="geometry" />
        </mxCell>
        <mxCell id="-dMym8YJEMh1sJRDaULY-19" value="" style="edgeStyle=orthogonalEdgeStyle;rounded=0;orthogonalLoop=1;jettySize=auto;html=1;" edge="1" parent="1" source="-dMym8YJEMh1sJRDaULY-16" target="-dMym8YJEMh1sJRDaULY-18">
          <mxGeometry relative="1" as="geometry" />
        </mxCell>
        <mxCell id="-dMym8YJEMh1sJRDaULY-16" value="inisialisasi n" style="whiteSpace=wrap;html=1;" vertex="1" parent="1">
          <mxGeometry x="540" y="130" width="100" height="40" as="geometry" />
        </mxCell>
        <mxCell id="-dMym8YJEMh1sJRDaULY-21" value="" style="edgeStyle=orthogonalEdgeStyle;rounded=0;orthogonalLoop=1;jettySize=auto;html=1;" edge="1" parent="1" source="-dMym8YJEMh1sJRDaULY-18" target="-dMym8YJEMh1sJRDaULY-20">
          <mxGeometry relative="1" as="geometry" />
        </mxCell>
        <mxCell id="-dMym8YJEMh1sJRDaULY-18" value="batas_bawah := 0&amp;nbsp;" style="whiteSpace=wrap;html=1;" vertex="1" parent="1">
          <mxGeometry x="530" y="200" width="120" height="50" as="geometry" />
        </mxCell>
        <mxCell id="-dMym8YJEMh1sJRDaULY-23" value="" style="edgeStyle=orthogonalEdgeStyle;rounded=0;orthogonalLoop=1;jettySize=auto;html=1;" edge="1" parent="1" source="-dMym8YJEMh1sJRDaULY-20" target="-dMym8YJEMh1sJRDaULY-22">
          <mxGeometry relative="1" as="geometry" />
        </mxCell>
        <mxCell id="-dMym8YJEMh1sJRDaULY-20" value="batas_atas := n" style="whiteSpace=wrap;html=1;" vertex="1" parent="1">
          <mxGeometry x="530" y="290" width="120" height="50" as="geometry" />
        </mxCell>
        <mxCell id="-dMym8YJEMh1sJRDaULY-25" value="" style="edgeStyle=orthogonalEdgeStyle;rounded=0;orthogonalLoop=1;jettySize=auto;html=1;" edge="1" parent="1" source="-dMym8YJEMh1sJRDaULY-22" target="-dMym8YJEMh1sJRDaULY-24">
          <mxGeometry relative="1" as="geometry" />
        </mxCell>
        <mxCell id="-dMym8YJEMh1sJRDaULY-48" style="edgeStyle=orthogonalEdgeStyle;rounded=0;orthogonalLoop=1;jettySize=auto;html=1;entryX=0;entryY=0.5;entryDx=0;entryDy=0;" edge="1" parent="1" source="-dMym8YJEMh1sJRDaULY-22" target="-dMym8YJEMh1sJRDaULY-47">
          <mxGeometry relative="1" as="geometry">
            <mxPoint x="430" y="730" as="targetPoint" />
            <Array as="points">
              <mxPoint x="350" y="402" />
              <mxPoint x="350" y="760" />
              <mxPoint x="530" y="760" />
              <mxPoint x="530" y="766" />
            </Array>
          </mxGeometry>
        </mxCell>
        <mxCell id="-dMym8YJEMh1sJRDaULY-49" value="&lt;font style=&quot;font-size: 12px;&quot;&gt;false&lt;/font&gt;" style="edgeLabel;html=1;align=center;verticalAlign=middle;resizable=0;points=[];" vertex="1" connectable="0" parent="-dMym8YJEMh1sJRDaULY-48">
          <mxGeometry x="-0.7908" y="-5" relative="1" as="geometry">
            <mxPoint y="-8" as="offset" />
          </mxGeometry>
        </mxCell>
        <mxCell id="-dMym8YJEMh1sJRDaULY-22" value="batas_bawah &amp;lt;= batas_atas" style="shape=hexagon;perimeter=hexagonPerimeter2;whiteSpace=wrap;html=1;fixedSize=1;" vertex="1" parent="1">
          <mxGeometry x="495" y="380" width="190" height="45" as="geometry" />
        </mxCell>
        <mxCell id="-dMym8YJEMh1sJRDaULY-27" value="" style="edgeStyle=orthogonalEdgeStyle;rounded=0;orthogonalLoop=1;jettySize=auto;html=1;" edge="1" parent="1" source="-dMym8YJEMh1sJRDaULY-24" target="-dMym8YJEMh1sJRDaULY-26">
          <mxGeometry relative="1" as="geometry" />
        </mxCell>
        <mxCell id="-dMym8YJEMh1sJRDaULY-24" value="tengah := (batas_bawah + batas_atas) / 2" style="whiteSpace=wrap;html=1;" vertex="1" parent="1">
          <mxGeometry x="467.5" y="461" width="245" height="50" as="geometry" />
        </mxCell>
        <mxCell id="-dMym8YJEMh1sJRDaULY-30" value="" style="edgeStyle=orthogonalEdgeStyle;rounded=0;orthogonalLoop=1;jettySize=auto;html=1;entryX=0.5;entryY=0;entryDx=0;entryDy=0;exitX=1;exitY=0.5;exitDx=0;exitDy=0;" edge="1" parent="1" source="-dMym8YJEMh1sJRDaULY-26" target="-dMym8YJEMh1sJRDaULY-29">
          <mxGeometry relative="1" as="geometry">
            <Array as="points">
              <mxPoint x="730" y="572" />
            </Array>
          </mxGeometry>
        </mxCell>
        <mxCell id="-dMym8YJEMh1sJRDaULY-38" value="&lt;font style=&quot;font-size: 12px;&quot;&gt;false&lt;/font&gt;" style="edgeLabel;html=1;align=center;verticalAlign=middle;resizable=0;points=[];" vertex="1" connectable="0" parent="-dMym8YJEMh1sJRDaULY-30">
          <mxGeometry x="-0.4256" y="4" relative="1" as="geometry">
            <mxPoint x="15" y="-6" as="offset" />
          </mxGeometry>
        </mxCell>
        <mxCell id="-dMym8YJEMh1sJRDaULY-32" value="" style="edgeStyle=orthogonalEdgeStyle;rounded=0;orthogonalLoop=1;jettySize=auto;html=1;" edge="1" parent="1" source="-dMym8YJEMh1sJRDaULY-26" target="-dMym8YJEMh1sJRDaULY-31">
          <mxGeometry relative="1" as="geometry" />
        </mxCell>
        <mxCell id="-dMym8YJEMh1sJRDaULY-26" value="tengah * tengah &amp;lt; n" style="shape=hexagon;perimeter=hexagonPerimeter2;whiteSpace=wrap;html=1;fixedSize=1;" vertex="1" parent="1">
          <mxGeometry x="530" y="550" width="120" height="44" as="geometry" />
        </mxCell>
        <mxCell id="-dMym8YJEMh1sJRDaULY-42" value="" style="edgeStyle=orthogonalEdgeStyle;rounded=0;orthogonalLoop=1;jettySize=auto;html=1;exitX=0.5;exitY=1;exitDx=0;exitDy=0;entryX=1;entryY=0.5;entryDx=0;entryDy=0;" edge="1" parent="1" source="-dMym8YJEMh1sJRDaULY-29" target="-dMym8YJEMh1sJRDaULY-41">
          <mxGeometry relative="1" as="geometry" />
        </mxCell>
        <mxCell id="-dMym8YJEMh1sJRDaULY-29" value="batas_atas := tengah - 1" style="whiteSpace=wrap;html=1;" vertex="1" parent="1">
          <mxGeometry x="660" y="600" width="140" height="46" as="geometry" />
        </mxCell>
        <mxCell id="-dMym8YJEMh1sJRDaULY-43" style="edgeStyle=orthogonalEdgeStyle;rounded=0;orthogonalLoop=1;jettySize=auto;html=1;entryX=0;entryY=0.5;entryDx=0;entryDy=0;exitX=0.5;exitY=1;exitDx=0;exitDy=0;" edge="1" parent="1" source="-dMym8YJEMh1sJRDaULY-31" target="-dMym8YJEMh1sJRDaULY-41">
          <mxGeometry relative="1" as="geometry" />
        </mxCell>
        <mxCell id="-dMym8YJEMh1sJRDaULY-31" value="batas_bawah := tengah + 1" style="whiteSpace=wrap;html=1;" vertex="1" parent="1">
          <mxGeometry x="370" y="600" width="155" height="46" as="geometry" />
        </mxCell>
        <mxCell id="-dMym8YJEMh1sJRDaULY-33" value="true" style="text;html=1;align=center;verticalAlign=middle;resizable=0;points=[];autosize=1;strokeColor=none;fillColor=none;" vertex="1" parent="1">
          <mxGeometry x="470" y="548" width="40" height="30" as="geometry" />
        </mxCell>
        <mxCell id="-dMym8YJEMh1sJRDaULY-44" style="edgeStyle=orthogonalEdgeStyle;rounded=0;orthogonalLoop=1;jettySize=auto;html=1;entryX=1;entryY=0.5;entryDx=0;entryDy=0;" edge="1" parent="1" source="-dMym8YJEMh1sJRDaULY-41" target="-dMym8YJEMh1sJRDaULY-22">
          <mxGeometry relative="1" as="geometry">
            <Array as="points">
              <mxPoint x="590" y="710" />
              <mxPoint x="820" y="710" />
              <mxPoint x="820" y="402" />
            </Array>
          </mxGeometry>
        </mxCell>
        <mxCell id="-dMym8YJEMh1sJRDaULY-41" value="" style="rhombus;whiteSpace=wrap;html=1;" vertex="1" parent="1">
          <mxGeometry x="570" y="653.75" width="40" height="41.25" as="geometry" />
        </mxCell>
        <mxCell id="-dMym8YJEMh1sJRDaULY-52" value="" style="edgeStyle=orthogonalEdgeStyle;rounded=0;orthogonalLoop=1;jettySize=auto;html=1;" edge="1" parent="1" source="-dMym8YJEMh1sJRDaULY-47" target="-dMym8YJEMh1sJRDaULY-51">
          <mxGeometry relative="1" as="geometry" />
        </mxCell>
        <mxCell id="-dMym8YJEMh1sJRDaULY-47" value="akar bilangan adalah batas_alas" style="shape=parallelogram;perimeter=parallelogramPerimeter;whiteSpace=wrap;html=1;fixedSize=1;" vertex="1" parent="1">
          <mxGeometry x="515" y="740" width="150" height="52" as="geometry" />
        </mxCell>
        <mxCell id="-dMym8YJEMh1sJRDaULY-50" value="true" style="text;html=1;align=center;verticalAlign=middle;resizable=0;points=[];autosize=1;strokeColor=none;fillColor=none;" vertex="1" parent="1">
          <mxGeometry x="590" y="425" width="40" height="30" as="geometry" />
        </mxCell>
        <mxCell id="-dMym8YJEMh1sJRDaULY-51" value="end" style="ellipse;whiteSpace=wrap;html=1;" vertex="1" parent="1">
          <mxGeometry x="570" y="820" width="40" height="42" as="geometry" />
        </mxCell>
      </root>
    </mxGraphModel>
  </diagram>
  <diagram id="X0okt5nZa1oWIvFGCe6i" name="Page-5">
    <mxGraphModel dx="1916" dy="844" grid="1" gridSize="10" guides="1" tooltips="1" connect="1" arrows="1" fold="1" page="1" pageScale="1" pageWidth="850" pageHeight="1100" math="0" shadow="0">
      <root>
        <mxCell id="0" />
        <mxCell id="1" parent="0" />
        <UserObject label="" plantUmlData="{&quot;data&quot;:&quot;@startuml\nstart\n:masukkan bil;\nif (bil &lt; 0) then (ya)\n  :tampilkan \&quot;tidak valid\&quot;;\nelse (tidak)\n  :inisialisasi variabel akar = 0;\n  while (akar * akar &lt;= bil) is (loop)\n    :akar++;\n  endwhile (loop)\n  if (akar * akar = bilangan) then (ya)\n    :tampilkan \&quot;akar kuadrat dari bilangan\&quot;;\n  else (tidak)\n    :tampilkan \&quot;Hasil pembulatan bawah dari akar kuadrat\&quot;;\n  endif\nendif\nstop\n@enduml\n&quot;,&quot;format&quot;:&quot;svg&quot;}" id="TGxddmiIBb3Svs3RJMah-2">
          <mxCell style="shape=image;noLabel=1;verticalAlign=top;aspect=fixed;imageAspect=0;image=data:image/svg+xml,PD94bWwgdmVyc2lvbj0iMS4wIiBlbmNvZGluZz0idXMtYXNjaWkiIHN0YW5kYWxvbmU9Im5vIj8+PHN2ZyB4bWxucz0iaHR0cDovL3d3dy53My5vcmcvMjAwMC9zdmciIHhtbG5zOnhsaW5rPSJodHRwOi8vd3d3LnczLm9yZy8xOTk5L3hsaW5rIiBjb250ZW50U3R5bGVUeXBlPSJ0ZXh0L2NzcyIgaGVpZ2h0PSI1MDBweCIgcHJlc2VydmVBc3BlY3RSYXRpbz0ibm9uZSIgc3R5bGU9IndpZHRoOjg0OXB4O2hlaWdodDo1MDBweDtiYWNrZ3JvdW5kOiNGRkZGRkY7IiB2ZXJzaW9uPSIxLjEiIHZpZXdCb3g9IjAgMCA4NDkgNTAwIiB3aWR0aD0iODQ5cHgiIHpvb21BbmRQYW49Im1hZ25pZnkiPjxkZWZzLz48Zz48ZWxsaXBzZSBjeD0iMjgyLjI1IiBjeT0iMjAiIGZpbGw9IiMyMjIyMjIiIHJ4PSIxMCIgcnk9IjEwIiBzdHlsZT0ic3Ryb2tlOiMyMjIyMjI7c3Ryb2tlLXdpZHRoOjEuMDsiLz48cmVjdCBmaWxsPSIjRjFGMUYxIiBoZWlnaHQ9IjMyLjg0MzgiIHJ4PSIxMi41IiByeT0iMTIuNSIgc3R5bGU9InN0cm9rZTojMTgxODE4O3N0cm9rZS13aWR0aDowLjU7IiB3aWR0aD0iOTgiIHg9IjIzMy4yNSIgeT0iNTAiLz48dGV4dCBmaWxsPSIjMDAwMDAwIiBmb250LWZhbWlseT0ic2Fucy1zZXJpZiIgZm9udC1zaXplPSIxMiIgbGVuZ3RoQWRqdXN0PSJzcGFjaW5nIiB0ZXh0TGVuZ3RoPSI3OCIgeD0iMjQzLjI1IiB5PSI3MS4zNDM4Ij5tYXN1a2thbiBiaWw8L3RleHQ+PHBvbHlnb24gZmlsbD0iI0YxRjFGMSIgcG9pbnRzPSIyNjEuMjUsMTAyLjg0MzgsMzAzLjI1LDEwMi44NDM4LDMxNS4yNSwxMTQuODQzOCwzMDMuMjUsMTI2Ljg0MzgsMjYxLjI1LDEyNi44NDM4LDI0OS4yNSwxMTQuODQzOCwyNjEuMjUsMTAyLjg0MzgiIHN0eWxlPSJzdHJva2U6IzE4MTgxODtzdHJva2Utd2lkdGg6MC41OyIvPjx0ZXh0IGZpbGw9IiMwMDAwMDAiIGZvbnQtZmFtaWx5PSJzYW5zLXNlcmlmIiBmb250LXNpemU9IjExIiBsZW5ndGhBZGp1c3Q9InNwYWNpbmciIHRleHRMZW5ndGg9IjQyIiB4PSIyNjEuMjUiIHk9IjExOS4zNTU1Ij5iaWwgJmx0OyAwPC90ZXh0Pjx0ZXh0IGZpbGw9IiMwMDAwMDAiIGZvbnQtZmFtaWx5PSJzYW5zLXNlcmlmIiBmb250LXNpemU9IjExIiBsZW5ndGhBZGp1c3Q9InNwYWNpbmciIHRleHRMZW5ndGg9IjEyIiB4PSIyMzcuMjUiIHk9IjExMy40Njg4Ij55YTwvdGV4dD48dGV4dCBmaWxsPSIjMDAwMDAwIiBmb250LWZhbWlseT0ic2Fucy1zZXJpZiIgZm9udC1zaXplPSIxMSIgbGVuZ3RoQWRqdXN0PSJzcGFjaW5nIiB0ZXh0TGVuZ3RoPSIzMCIgeD0iMzE1LjI1IiB5PSIxMTMuNDY4OCI+dGlkYWs8L3RleHQ+PHJlY3QgZmlsbD0iI0YxRjFGMSIgaGVpZ2h0PSIzMi44NDM4IiByeD0iMTIuNSIgcnk9IjEyLjUiIHN0eWxlPSJzdHJva2U6IzE4MTgxODtzdHJva2Utd2lkdGg6MC41OyIgd2lkdGg9IjE2NyIgeD0iMTEiIHk9IjEzNi44NDM4Ii8+PHRleHQgZmlsbD0iIzAwMDAwMCIgZm9udC1mYW1pbHk9InNhbnMtc2VyaWYiIGZvbnQtc2l6ZT0iMTIiIGxlbmd0aEFkanVzdD0ic3BhY2luZyIgdGV4dExlbmd0aD0iMTQ3IiB4PSIyMSIgeT0iMTU4LjE4NzUiPnRhbXBpbGthbiAidGlkYWsgdmFsaWQiPC90ZXh0PjxyZWN0IGZpbGw9IiNGMUYxRjEiIGhlaWdodD0iMzIuODQzOCIgcng9IjEyLjUiIHJ5PSIxMi41IiBzdHlsZT0ic3Ryb2tlOiMxODE4MTg7c3Ryb2tlLXdpZHRoOjAuNTsiIHdpZHRoPSIyMTUiIHg9IjM4Mi41IiB5PSIxMzYuODQzOCIvPjx0ZXh0IGZpbGw9IiMwMDAwMDAiIGZvbnQtZmFtaWx5PSJzYW5zLXNlcmlmIiBmb250LXNpemU9IjEyIiBsZW5ndGhBZGp1c3Q9InNwYWNpbmciIHRleHRMZW5ndGg9IjE5NSIgeD0iMzkyLjUiIHk9IjE1OC4xODc1Ij5pbmlzaWFsaXNhc2kgdmFyaWFiZWwgYWthciA9IDA8L3RleHQ+PHJlY3QgZmlsbD0iI0YxRjFGMSIgaGVpZ2h0PSIzMi44NDM4IiByeD0iMTIuNSIgcnk9IjEyLjUiIHN0eWxlPSJzdHJva2U6IzE4MTgxODtzdHJva2Utd2lkdGg6MC41OyIgd2lkdGg9IjU5IiB4PSI0NjAuNSIgeT0iMjQ1LjU4NTkiLz48dGV4dCBmaWxsPSIjMDAwMDAwIiBmb250LWZhbWlseT0ic2Fucy1zZXJpZiIgZm9udC1zaXplPSIxMiIgbGVuZ3RoQWRqdXN0PSJzcGFjaW5nIiB0ZXh0TGVuZ3RoPSIzOSIgeD0iNDcwLjUiIHk9IjI2Ni45Mjk3Ij5ha2FyKys8L3RleHQ+PHBvbHlnb24gZmlsbD0iI0YxRjFGMSIgcG9pbnRzPSI0MzYsMTg5LjY4NzUsNTQ0LDE4OS42ODc1LDU1NiwyMDEuNjg3NSw1NDQsMjEzLjY4NzUsNDM2LDIxMy42ODc1LDQyNCwyMDEuNjg3NSw0MzYsMTg5LjY4NzUiIHN0eWxlPSJzdHJva2U6IzE4MTgxODtzdHJva2Utd2lkdGg6MC41OyIvPjx0ZXh0IGZpbGw9IiMwMDAwMDAiIGZvbnQtZmFtaWx5PSJzYW5zLXNlcmlmIiBmb250LXNpemU9IjExIiBsZW5ndGhBZGp1c3Q9InNwYWNpbmciIHRleHRMZW5ndGg9IjI0IiB4PSI0OTQiIHk9IjIyNC4wODU5Ij5sb29wPC90ZXh0Pjx0ZXh0IGZpbGw9IiMwMDAwMDAiIGZvbnQtZmFtaWx5PSJzYW5zLXNlcmlmIiBmb250LXNpemU9IjExIiBsZW5ndGhBZGp1c3Q9InNwYWNpbmciIHRleHRMZW5ndGg9IjEwOCIgeD0iNDM2IiB5PSIyMDYuMTk5MiI+YWthciAqIGFrYXIgJmx0Oz0gYmlsPC90ZXh0Pjx0ZXh0IGZpbGw9IiMwMDAwMDAiIGZvbnQtZmFtaWx5PSJzYW5zLXNlcmlmIiBmb250LXNpemU9IjExIiBsZW5ndGhBZGp1c3Q9InNwYWNpbmciIHRleHRMZW5ndGg9IjI0IiB4PSI0MDAiIHk9IjIwMC4zMTI1Ij5sb29wPC90ZXh0Pjxwb2x5Z29uIGZpbGw9IiNGMUYxRjEiIHBvaW50cz0iNDI0LDMyMC40Mjk3LDU1NiwzMjAuNDI5Nyw1NjgsMzMyLjQyOTcsNTU2LDM0NC40Mjk3LDQyNCwzNDQuNDI5Nyw0MTIsMzMyLjQyOTcsNDI0LDMyMC40Mjk3IiBzdHlsZT0ic3Ryb2tlOiMxODE4MTg7c3Ryb2tlLXdpZHRoOjAuNTsiLz48dGV4dCBmaWxsPSIjMDAwMDAwIiBmb250LWZhbWlseT0ic2Fucy1zZXJpZiIgZm9udC1zaXplPSIxMSIgbGVuZ3RoQWRqdXN0PSJzcGFjaW5nIiB0ZXh0TGVuZ3RoPSIxMzIiIHg9IjQyNCIgeT0iMzM2Ljk0MTQiPmFrYXIgKiBha2FyID0gYmlsYW5nYW48L3RleHQ+PHRleHQgZmlsbD0iIzAwMDAwMCIgZm9udC1mYW1pbHk9InNhbnMtc2VyaWYiIGZvbnQtc2l6ZT0iMTEiIGxlbmd0aEFkanVzdD0ic3BhY2luZyIgdGV4dExlbmd0aD0iMTIiIHg9IjQwMCIgeT0iMzMxLjA1NDciPnlhPC90ZXh0Pjx0ZXh0IGZpbGw9IiMwMDAwMDAiIGZvbnQtZmFtaWx5PSJzYW5zLXNlcmlmIiBmb250LXNpemU9IjExIiBsZW5ndGhBZGp1c3Q9InNwYWNpbmciIHRleHRMZW5ndGg9IjMwIiB4PSI1NjgiIHk9IjMzMS4wNTQ3Ij50aWRhazwvdGV4dD48cmVjdCBmaWxsPSIjRjFGMUYxIiBoZWlnaHQ9IjMyLjg0MzgiIHJ4PSIxMi41IiByeT0iMTIuNSIgc3R5bGU9InN0cm9rZTojMTgxODE4O3N0cm9rZS13aWR0aDowLjU7IiB3aWR0aD0iMjY5IiB4PSIxODgiIHk9IjM1NC40Mjk3Ii8+PHRleHQgZmlsbD0iIzAwMDAwMCIgZm9udC1mYW1pbHk9InNhbnMtc2VyaWYiIGZvbnQtc2l6ZT0iMTIiIGxlbmd0aEFkanVzdD0ic3BhY2luZyIgdGV4dExlbmd0aD0iMjQ5IiB4PSIxOTgiIHk9IjM3NS43NzM0Ij50YW1waWxrYW4gImFrYXIga3VhZHJhdCBkYXJpIGJpbGFuZ2FuIjwvdGV4dD48cmVjdCBmaWxsPSIjRjFGMUYxIiBoZWlnaHQ9IjMyLjg0MzgiIHJ4PSIxMi41IiByeT0iMTIuNSIgc3R5bGU9InN0cm9rZTojMTgxODE4O3N0cm9rZS13aWR0aDowLjU7IiB3aWR0aD0iMzYxIiB4PSI0NzciIHk9IjM1NC40Mjk3Ii8+PHRleHQgZmlsbD0iIzAwMDAwMCIgZm9udC1mYW1pbHk9InNhbnMtc2VyaWYiIGZvbnQtc2l6ZT0iMTIiIGxlbmd0aEFkanVzdD0ic3BhY2luZyIgdGV4dExlbmd0aD0iMzQxIiB4PSI0ODciIHk9IjM3NS43NzM0Ij50YW1waWxrYW4gIkhhc2lsIHBlbWJ1bGF0YW4gYmF3YWggZGFyaSBha2FyIGt1YWRyYXQiPC90ZXh0Pjxwb2x5Z29uIGZpbGw9IiNGMUYxRjEiIHBvaW50cz0iNDkwLDM5My4yNzM0LDUwMiw0MDUuMjczNCw0OTAsNDE3LjI3MzQsNDc4LDQwNS4yNzM0LDQ5MCwzOTMuMjczNCIgc3R5bGU9InN0cm9rZTojMTgxODE4O3N0cm9rZS13aWR0aDowLjU7Ii8+PHBvbHlnb24gZmlsbD0iI0YxRjFGMSIgcG9pbnRzPSIyODIuMjUsNDIzLjI3MzQsMjk0LjI1LDQzNS4yNzM0LDI4Mi4yNSw0NDcuMjczNCwyNzAuMjUsNDM1LjI3MzQsMjgyLjI1LDQyMy4yNzM0IiBzdHlsZT0ic3Ryb2tlOiMxODE4MTg7c3Ryb2tlLXdpZHRoOjAuNTsiLz48ZWxsaXBzZSBjeD0iMjgyLjI1IiBjeT0iNDc4LjI3MzQiIGZpbGw9Im5vbmUiIHJ4PSIxMSIgcnk9IjExIiBzdHlsZT0ic3Ryb2tlOiMyMjIyMjI7c3Ryb2tlLXdpZHRoOjEuMDsiLz48ZWxsaXBzZSBjeD0iMjgyLjI1IiBjeT0iNDc4LjI3MzQiIGZpbGw9IiMyMjIyMjIiIHJ4PSI2IiByeT0iNiIgc3R5bGU9InN0cm9rZTojMjIyMjIyO3N0cm9rZS13aWR0aDoxLjA7Ii8+PGxpbmUgc3R5bGU9InN0cm9rZTojMTgxODE4O3N0cm9rZS13aWR0aDoxLjA7IiB4MT0iMjgyLjI1IiB4Mj0iMjgyLjI1IiB5MT0iMzAiIHkyPSI1MCIvPjxwb2x5Z29uIGZpbGw9IiMxODE4MTgiIHBvaW50cz0iMjc4LjI1LDQwLDI4Mi4yNSw1MCwyODYuMjUsNDAsMjgyLjI1LDQ0IiBzdHlsZT0ic3Ryb2tlOiMxODE4MTg7c3Ryb2tlLXdpZHRoOjEuMDsiLz48bGluZSBzdHlsZT0ic3Ryb2tlOiMxODE4MTg7c3Ryb2tlLXdpZHRoOjEuMDsiIHgxPSI0OTAiIHgyPSI0OTAiIHkxPSIyMTMuNjg3NSIgeTI9IjI0NS41ODU5Ii8+PHBvbHlnb24gZmlsbD0iIzE4MTgxOCIgcG9pbnRzPSI0ODYsMjM1LjU4NTksNDkwLDI0NS41ODU5LDQ5NCwyMzUuNTg1OSw0OTAsMjM5LjU4NTkiIHN0eWxlPSJzdHJva2U6IzE4MTgxODtzdHJva2Utd2lkdGg6MS4wOyIvPjxsaW5lIHN0eWxlPSJzdHJva2U6IzE4MTgxODtzdHJva2Utd2lkdGg6MS4wOyIgeDE9IjQ5MCIgeDI9IjQ5MCIgeTE9IjI3OC40Mjk3IiB5Mj0iMjg4LjQyOTciLz48bGluZSBzdHlsZT0ic3Ryb2tlOiMxODE4MTg7c3Ryb2tlLXdpZHRoOjEuMDsiIHgxPSI0OTAiIHgyPSI1NjgiIHkxPSIyODguNDI5NyIgeTI9IjI4OC40Mjk3Ii8+PHBvbHlnb24gZmlsbD0iIzE4MTgxOCIgcG9pbnRzPSI1NjQsMjU0LjEyMTEsNTY4LDI0NC4xMjExLDU3MiwyNTQuMTIxMSw1NjgsMjUwLjEyMTEiIHN0eWxlPSJzdHJva2U6IzE4MTgxODtzdHJva2Utd2lkdGg6MS4wOyIvPjxsaW5lIHN0eWxlPSJzdHJva2U6IzE4MTgxODtzdHJva2Utd2lkdGg6MS4wOyIgeDE9IjU2OCIgeDI9IjU2OCIgeTE9IjIwMS42ODc1IiB5Mj0iMjg4LjQyOTciLz48bGluZSBzdHlsZT0ic3Ryb2tlOiMxODE4MTg7c3Ryb2tlLXdpZHRoOjEuMDsiIHgxPSI1NjgiIHgyPSI1NTYiIHkxPSIyMDEuNjg3NSIgeTI9IjIwMS42ODc1Ii8+PHBvbHlnb24gZmlsbD0iIzE4MTgxOCIgcG9pbnRzPSI1NjYsMTk3LjY4NzUsNTU2LDIwMS42ODc1LDU2NiwyMDUuNjg3NSw1NjIsMjAxLjY4NzUiIHN0eWxlPSJzdHJva2U6IzE4MTgxODtzdHJva2Utd2lkdGg6MS4wOyIvPjxsaW5lIHN0eWxlPSJzdHJva2U6IzE4MTgxODtzdHJva2Utd2lkdGg6MS4wOyIgeDE9IjQyNCIgeDI9IjQxMiIgeTE9IjIwMS42ODc1IiB5Mj0iMjAxLjY4NzUiLz48cG9seWdvbiBmaWxsPSIjMTgxODE4IiBwb2ludHM9IjQwOCwyNDAuMTIxMSw0MTIsMjUwLjEyMTEsNDE2LDI0MC4xMjExLDQxMiwyNDQuMTIxMSIgc3R5bGU9InN0cm9rZTojMTgxODE4O3N0cm9rZS13aWR0aDoxLjA7Ii8+PGxpbmUgc3R5bGU9InN0cm9rZTojMTgxODE4O3N0cm9rZS13aWR0aDoxLjA7IiB4MT0iNDEyIiB4Mj0iNDEyIiB5MT0iMjAxLjY4NzUiIHkyPSIzMDAuNDI5NyIvPjxsaW5lIHN0eWxlPSJzdHJva2U6IzE4MTgxODtzdHJva2Utd2lkdGg6MS4wOyIgeDE9IjQxMiIgeDI9IjQ5MCIgeTE9IjMwMC40Mjk3IiB5Mj0iMzAwLjQyOTciLz48bGluZSBzdHlsZT0ic3Ryb2tlOiMxODE4MTg7c3Ryb2tlLXdpZHRoOjEuMDsiIHgxPSI0OTAiIHgyPSI0OTAiIHkxPSIzMDAuNDI5NyIgeTI9IjMyMC40Mjk3Ii8+PHBvbHlnb24gZmlsbD0iIzE4MTgxOCIgcG9pbnRzPSI0ODYsMzEwLjQyOTcsNDkwLDMyMC40Mjk3LDQ5NCwzMTAuNDI5Nyw0OTAsMzE0LjQyOTciIHN0eWxlPSJzdHJva2U6IzE4MTgxODtzdHJva2Utd2lkdGg6MS4wOyIvPjxsaW5lIHN0eWxlPSJzdHJva2U6IzE4MTgxODtzdHJva2Utd2lkdGg6MS4wOyIgeDE9IjQ5MCIgeDI9IjQ5MCIgeTE9IjE2OS42ODc1IiB5Mj0iMTg5LjY4NzUiLz48cG9seWdvbiBmaWxsPSIjMTgxODE4IiBwb2ludHM9IjQ4NiwxNzkuNjg3NSw0OTAsMTg5LjY4NzUsNDk0LDE3OS42ODc1LDQ5MCwxODMuNjg3NSIgc3R5bGU9InN0cm9rZTojMTgxODE4O3N0cm9rZS13aWR0aDoxLjA7Ii8+PGxpbmUgc3R5bGU9InN0cm9rZTojMTgxODE4O3N0cm9rZS13aWR0aDoxLjA7IiB4MT0iNDEyIiB4Mj0iMzIyLjUiIHkxPSIzMzIuNDI5NyIgeTI9IjMzMi40Mjk3Ii8+PGxpbmUgc3R5bGU9InN0cm9rZTojMTgxODE4O3N0cm9rZS13aWR0aDoxLjA7IiB4MT0iMzIyLjUiIHgyPSIzMjIuNSIgeTE9IjMzMi40Mjk3IiB5Mj0iMzU0LjQyOTciLz48cG9seWdvbiBmaWxsPSIjMTgxODE4IiBwb2ludHM9IjMxOC41LDM0NC40Mjk3LDMyMi41LDM1NC40Mjk3LDMyNi41LDM0NC40Mjk3LDMyMi41LDM0OC40Mjk3IiBzdHlsZT0ic3Ryb2tlOiMxODE4MTg7c3Ryb2tlLXdpZHRoOjEuMDsiLz48bGluZSBzdHlsZT0ic3Ryb2tlOiMxODE4MTg7c3Ryb2tlLXdpZHRoOjEuMDsiIHgxPSI1NjgiIHgyPSI2NTcuNSIgeTE9IjMzMi40Mjk3IiB5Mj0iMzMyLjQyOTciLz48bGluZSBzdHlsZT0ic3Ryb2tlOiMxODE4MTg7c3Ryb2tlLXdpZHRoOjEuMDsiIHgxPSI2NTcuNSIgeDI9IjY1Ny41IiB5MT0iMzMyLjQyOTciIHkyPSIzNTQuNDI5NyIvPjxwb2x5Z29uIGZpbGw9IiMxODE4MTgiIHBvaW50cz0iNjUzLjUsMzQ0LjQyOTcsNjU3LjUsMzU0LjQyOTcsNjYxLjUsMzQ0LjQyOTcsNjU3LjUsMzQ4LjQyOTciIHN0eWxlPSJzdHJva2U6IzE4MTgxODtzdHJva2Utd2lkdGg6MS4wOyIvPjxsaW5lIHN0eWxlPSJzdHJva2U6IzE4MTgxODtzdHJva2Utd2lkdGg6MS4wOyIgeDE9IjMyMi41IiB4Mj0iMzIyLjUiIHkxPSIzODcuMjczNCIgeTI9IjQwNS4yNzM0Ii8+PGxpbmUgc3R5bGU9InN0cm9rZTojMTgxODE4O3N0cm9rZS13aWR0aDoxLjA7IiB4MT0iMzIyLjUiIHgyPSI0NzgiIHkxPSI0MDUuMjczNCIgeTI9IjQwNS4yNzM0Ii8+PHBvbHlnb24gZmlsbD0iIzE4MTgxOCIgcG9pbnRzPSI0NjgsNDAxLjI3MzQsNDc4LDQwNS4yNzM0LDQ2OCw0MDkuMjczNCw0NzIsNDA1LjI3MzQiIHN0eWxlPSJzdHJva2U6IzE4MTgxODtzdHJva2Utd2lkdGg6MS4wOyIvPjxsaW5lIHN0eWxlPSJzdHJva2U6IzE4MTgxODtzdHJva2Utd2lkdGg6MS4wOyIgeDE9IjY1Ny41IiB4Mj0iNjU3LjUiIHkxPSIzODcuMjczNCIgeTI9IjQwNS4yNzM0Ii8+PGxpbmUgc3R5bGU9InN0cm9rZTojMTgxODE4O3N0cm9rZS13aWR0aDoxLjA7IiB4MT0iNjU3LjUiIHgyPSI1MDIiIHkxPSI0MDUuMjczNCIgeTI9IjQwNS4yNzM0Ii8+PHBvbHlnb24gZmlsbD0iIzE4MTgxOCIgcG9pbnRzPSI1MTIsNDAxLjI3MzQsNTAyLDQwNS4yNzM0LDUxMiw0MDkuMjczNCw1MDgsNDA1LjI3MzQiIHN0eWxlPSJzdHJva2U6IzE4MTgxODtzdHJva2Utd2lkdGg6MS4wOyIvPjxsaW5lIHN0eWxlPSJzdHJva2U6IzE4MTgxODtzdHJva2Utd2lkdGg6MS4wOyIgeDE9IjI0OS4yNSIgeDI9Ijk0LjUiIHkxPSIxMTQuODQzOCIgeTI9IjExNC44NDM4Ii8+PGxpbmUgc3R5bGU9InN0cm9rZTojMTgxODE4O3N0cm9rZS13aWR0aDoxLjA7IiB4MT0iOTQuNSIgeDI9Ijk0LjUiIHkxPSIxMTQuODQzOCIgeTI9IjEzNi44NDM4Ii8+PHBvbHlnb24gZmlsbD0iIzE4MTgxOCIgcG9pbnRzPSI5MC41LDEyNi44NDM4LDk0LjUsMTM2Ljg0MzgsOTguNSwxMjYuODQzOCw5NC41LDEzMC44NDM4IiBzdHlsZT0ic3Ryb2tlOiMxODE4MTg7c3Ryb2tlLXdpZHRoOjEuMDsiLz48bGluZSBzdHlsZT0ic3Ryb2tlOiMxODE4MTg7c3Ryb2tlLXdpZHRoOjEuMDsiIHgxPSIzMTUuMjUiIHgyPSI0OTAiIHkxPSIxMTQuODQzOCIgeTI9IjExNC44NDM4Ii8+PGxpbmUgc3R5bGU9InN0cm9rZTojMTgxODE4O3N0cm9rZS13aWR0aDoxLjA7IiB4MT0iNDkwIiB4Mj0iNDkwIiB5MT0iMTE0Ljg0MzgiIHkyPSIxMzYuODQzOCIvPjxwb2x5Z29uIGZpbGw9IiMxODE4MTgiIHBvaW50cz0iNDg2LDEyNi44NDM4LDQ5MCwxMzYuODQzOCw0OTQsMTI2Ljg0MzgsNDkwLDEzMC44NDM4IiBzdHlsZT0ic3Ryb2tlOiMxODE4MTg7c3Ryb2tlLXdpZHRoOjEuMDsiLz48bGluZSBzdHlsZT0ic3Ryb2tlOiMxODE4MTg7c3Ryb2tlLXdpZHRoOjEuMDsiIHgxPSI5NC41IiB4Mj0iOTQuNSIgeTE9IjE2OS42ODc1IiB5Mj0iNDM1LjI3MzQiLz48bGluZSBzdHlsZT0ic3Ryb2tlOiMxODE4MTg7c3Ryb2tlLXdpZHRoOjEuMDsiIHgxPSI5NC41IiB4Mj0iMjcwLjI1IiB5MT0iNDM1LjI3MzQiIHkyPSI0MzUuMjczNCIvPjxwb2x5Z29uIGZpbGw9IiMxODE4MTgiIHBvaW50cz0iMjYwLjI1LDQzMS4yNzM0LDI3MC4yNSw0MzUuMjczNCwyNjAuMjUsNDM5LjI3MzQsMjY0LjI1LDQzNS4yNzM0IiBzdHlsZT0ic3Ryb2tlOiMxODE4MTg7c3Ryb2tlLXdpZHRoOjEuMDsiLz48bGluZSBzdHlsZT0ic3Ryb2tlOiMxODE4MTg7c3Ryb2tlLXdpZHRoOjEuMDsiIHgxPSI0OTAiIHgyPSI0OTAiIHkxPSI0MTcuMjczNCIgeTI9IjQzNS4yNzM0Ii8+PGxpbmUgc3R5bGU9InN0cm9rZTojMTgxODE4O3N0cm9rZS13aWR0aDoxLjA7IiB4MT0iNDkwIiB4Mj0iMjk0LjI1IiB5MT0iNDM1LjI3MzQiIHkyPSI0MzUuMjczNCIvPjxwb2x5Z29uIGZpbGw9IiMxODE4MTgiIHBvaW50cz0iMzA0LjI1LDQzMS4yNzM0LDI5NC4yNSw0MzUuMjczNCwzMDQuMjUsNDM5LjI3MzQsMzAwLjI1LDQzNS4yNzM0IiBzdHlsZT0ic3Ryb2tlOiMxODE4MTg7c3Ryb2tlLXdpZHRoOjEuMDsiLz48bGluZSBzdHlsZT0ic3Ryb2tlOiMxODE4MTg7c3Ryb2tlLXdpZHRoOjEuMDsiIHgxPSIyODIuMjUiIHgyPSIyODIuMjUiIHkxPSI4Mi44NDM4IiB5Mj0iMTAyLjg0MzgiLz48cG9seWdvbiBmaWxsPSIjMTgxODE4IiBwb2ludHM9IjI3OC4yNSw5Mi44NDM4LDI4Mi4yNSwxMDIuODQzOCwyODYuMjUsOTIuODQzOCwyODIuMjUsOTYuODQzOCIgc3R5bGU9InN0cm9rZTojMTgxODE4O3N0cm9rZS13aWR0aDoxLjA7Ii8+PGxpbmUgc3R5bGU9InN0cm9rZTojMTgxODE4O3N0cm9rZS13aWR0aDoxLjA7IiB4MT0iMjgyLjI1IiB4Mj0iMjgyLjI1IiB5MT0iNDQ3LjI3MzQiIHkyPSI0NjcuMjczNCIvPjxwb2x5Z29uIGZpbGw9IiMxODE4MTgiIHBvaW50cz0iMjc4LjI1LDQ1Ny4yNzM0LDI4Mi4yNSw0NjcuMjczNCwyODYuMjUsNDU3LjI3MzQsMjgyLjI1LDQ2MS4yNzM0IiBzdHlsZT0ic3Ryb2tlOiMxODE4MTg7c3Ryb2tlLXdpZHRoOjEuMDsiLz48IS0tU1JDPVtMUDMxUmlDVzQ0SmxWQ044OXhrdnYxbWR6X3g2TTkxd25IZlIxWlZndG5UbTRpS05YOVlQanhGNG4zTVBveUl1VVMtMEdSR3RTYVVSQnhaWXQyNkRCZzN6T3NVMEktQXFZMVBaYXlKSXV2U2dqa2NEcS1aR3JoVGdiMjFIaVhPUDlQak11VTBLejVubm14ZEZiaVNlY1lGcndNak5oaFNvbHVENGozaEZJbzViTGo1RWZ2OW5tSnZaQnhiS19LSEswaUNGbXg3dmlOa3ItZXJzUE9CRHhUd2ZmZXV2QmRGQ1ZrVUQ1OGtSWGFzUG9mVm5tTjZkVjdBUlBzNnZjX3NDUUx4LTBHMDBdLS0+PC9nPjwvc3ZnPg==;" vertex="1" parent="1">
            <mxGeometry x="50" y="460.00000000000006" width="389" height="229.09" as="geometry" />
          </mxCell>
        </UserObject>
        <UserObject label="" plantUmlData="{&#xa;  &quot;data&quot;: &quot;@startuml\nstart\n:Masukkan bilangan;\nif (Bilangan &lt; 0) then (ya)\n  :Tampilkan \&quot;Tidak valid\&quot;;\nelse (tidak)\n  :Inisialisasi variabel rendah = 0, tinggi = Bilangan, hasil = Bilangan;\n  while (rendah &lt;= tinggi) is (loop)\n    :hitung tengah = (rendah + tinggi) / 2;\n    :hitung kuadratTengah = tengah * tengah;\n    if (kuadratTengah = Bilangan) then (ya)\n      :Tampilkan \&quot;Akar kuadrat dari bilangan\&quot;;\n      stop\n    endif\n    if (kuadratTengah &lt; Bilangan) then (ya)\n      :hasil = tengah;\n      :rendah = tengah + 1;\n    else (tidak)\n      :tinggi = tengah - 1;\n    endif\n  endwhile (loop)\n  :Tampilkan \&quot;Hasil pembulatan bawah dari akar kuadrat\&quot;;\nendif\nstop\n@enduml\n&quot;,&#xa;  &quot;format&quot;: &quot;svg&quot;&#xa;}" id="TGxddmiIBb3Svs3RJMah-3">
          <mxCell style="shape=image;noLabel=1;verticalAlign=top;aspect=fixed;imageAspect=0;image=data:image/svg+xml,PD94bWwgdmVyc2lvbj0iMS4wIiBlbmNvZGluZz0idXMtYXNjaWkiIHN0YW5kYWxvbmU9Im5vIj8+PHN2ZyB4bWxucz0iaHR0cDovL3d3dy53My5vcmcvMjAwMC9zdmciIHhtbG5zOnhsaW5rPSJodHRwOi8vd3d3LnczLm9yZy8xOTk5L3hsaW5rIiBjb250ZW50U3R5bGVUeXBlPSJ0ZXh0L2NzcyIgaGVpZ2h0PSI4MzhweCIgcHJlc2VydmVBc3BlY3RSYXRpbz0ibm9uZSIgc3R5bGU9IndpZHRoOjY3MHB4O2hlaWdodDo4MzhweDtiYWNrZ3JvdW5kOiNGRkZGRkY7IiB2ZXJzaW9uPSIxLjEiIHZpZXdCb3g9IjAgMCA2NzAgODM4IiB3aWR0aD0iNjcwcHgiIHpvb21BbmRQYW49Im1hZ25pZnkiPjxkZWZzLz48Zz48ZWxsaXBzZSBjeD0iMjU1IiBjeT0iMjAiIGZpbGw9IiMyMjIyMjIiIHJ4PSIxMCIgcnk9IjEwIiBzdHlsZT0ic3Ryb2tlOiMyMjIyMjI7c3Ryb2tlLXdpZHRoOjEuMDsiLz48cmVjdCBmaWxsPSIjRjFGMUYxIiBoZWlnaHQ9IjMyLjg0MzgiIHJ4PSIxMi41IiByeT0iMTIuNSIgc3R5bGU9InN0cm9rZTojMTgxODE4O3N0cm9rZS13aWR0aDowLjU7IiB3aWR0aD0iMTM0IiB4PSIxODgiIHk9IjUwIi8+PHRleHQgZmlsbD0iIzAwMDAwMCIgZm9udC1mYW1pbHk9InNhbnMtc2VyaWYiIGZvbnQtc2l6ZT0iMTIiIGxlbmd0aEFkanVzdD0ic3BhY2luZyIgdGV4dExlbmd0aD0iMTE0IiB4PSIxOTgiIHk9IjcxLjM0MzgiPk1hc3Vra2FuIGJpbGFuZ2FuPC90ZXh0Pjxwb2x5Z29uIGZpbGw9IiNGMUYxRjEiIHBvaW50cz0iMjE5LDEwMi44NDM4LDI5MSwxMDIuODQzOCwzMDMsMTE0Ljg0MzgsMjkxLDEyNi44NDM4LDIxOSwxMjYuODQzOCwyMDcsMTE0Ljg0MzgsMjE5LDEwMi44NDM4IiBzdHlsZT0ic3Ryb2tlOiMxODE4MTg7c3Ryb2tlLXdpZHRoOjAuNTsiLz48dGV4dCBmaWxsPSIjMDAwMDAwIiBmb250LWZhbWlseT0ic2Fucy1zZXJpZiIgZm9udC1zaXplPSIxMSIgbGVuZ3RoQWRqdXN0PSJzcGFjaW5nIiB0ZXh0TGVuZ3RoPSI3MiIgeD0iMjE5IiB5PSIxMTkuMzU1NSI+QmlsYW5nYW4gJmx0OyAwPC90ZXh0Pjx0ZXh0IGZpbGw9IiMwMDAwMDAiIGZvbnQtZmFtaWx5PSJzYW5zLXNlcmlmIiBmb250LXNpemU9IjExIiBsZW5ndGhBZGp1c3Q9InNwYWNpbmciIHRleHRMZW5ndGg9IjEyIiB4PSIxOTUiIHk9IjExMy40Njg4Ij55YTwvdGV4dD48dGV4dCBmaWxsPSIjMDAwMDAwIiBmb250LWZhbWlseT0ic2Fucy1zZXJpZiIgZm9udC1zaXplPSIxMSIgbGVuZ3RoQWRqdXN0PSJzcGFjaW5nIiB0ZXh0TGVuZ3RoPSIzMCIgeD0iMzAzIiB5PSIxMTMuNDY4OCI+dGlkYWs8L3RleHQ+PHJlY3QgZmlsbD0iI0YxRjFGMSIgaGVpZ2h0PSIzMi44NDM4IiByeD0iMTIuNSIgcnk9IjEyLjUiIHN0eWxlPSJzdHJva2U6IzE4MTgxODtzdHJva2Utd2lkdGg6MC41OyIgd2lkdGg9IjE2NyIgeD0iMTEiIHk9IjEzNi44NDM4Ii8+PHRleHQgZmlsbD0iIzAwMDAwMCIgZm9udC1mYW1pbHk9InNhbnMtc2VyaWYiIGZvbnQtc2l6ZT0iMTIiIGxlbmd0aEFkanVzdD0ic3BhY2luZyIgdGV4dExlbmd0aD0iMTQ3IiB4PSIyMSIgeT0iMTU4LjE4NzUiPlRhbXBpbGthbiAiVGlkYWsgdmFsaWQiPC90ZXh0PjxyZWN0IGZpbGw9IiNGMUYxRjEiIGhlaWdodD0iMzIuODQzOCIgcng9IjEyLjUiIHJ5PSIxMi41IiBzdHlsZT0ic3Ryb2tlOiMxODE4MTg7c3Ryb2tlLXdpZHRoOjAuNTsiIHdpZHRoPSI0NzAiIHg9IjE4OS4yNSIgeT0iMTM2Ljg0MzgiLz48dGV4dCBmaWxsPSIjMDAwMDAwIiBmb250LWZhbWlseT0ic2Fucy1zZXJpZiIgZm9udC1zaXplPSIxMiIgbGVuZ3RoQWRqdXN0PSJzcGFjaW5nIiB0ZXh0TGVuZ3RoPSI0NTAiIHg9IjE5OS4yNSIgeT0iMTU4LjE4NzUiPkluaXNpYWxpc2FzaSB2YXJpYWJlbCByZW5kYWggPSAwLCB0aW5nZ2kgPSBCaWxhbmdhbiwgaGFzaWwgPSBCaWxhbmdhbjwvdGV4dD48cmVjdCBmaWxsPSIjRjFGMUYxIiBoZWlnaHQ9IjMyLjg0MzgiIHJ4PSIxMi41IiByeT0iMTIuNSIgc3R5bGU9InN0cm9rZTojMTgxODE4O3N0cm9rZS13aWR0aDowLjU7IiB3aWR0aD0iMjYxIiB4PSIyOTMuNzUiIHk9IjI0NS41ODU5Ii8+PHRleHQgZmlsbD0iIzAwMDAwMCIgZm9udC1mYW1pbHk9InNhbnMtc2VyaWYiIGZvbnQtc2l6ZT0iMTIiIGxlbmd0aEFkanVzdD0ic3BhY2luZyIgdGV4dExlbmd0aD0iMjQxIiB4PSIzMDMuNzUiIHk9IjI2Ni45Mjk3Ij5oaXR1bmcgdGVuZ2FoID0gKHJlbmRhaCArIHRpbmdnaSkgLyAyPC90ZXh0PjxyZWN0IGZpbGw9IiNGMUYxRjEiIGhlaWdodD0iMzIuODQzOCIgcng9IjEyLjUiIHJ5PSIxMi41IiBzdHlsZT0ic3Ryb2tlOiMxODE4MTg7c3Ryb2tlLXdpZHRoOjAuNTsiIHdpZHRoPSIyNzIiIHg9IjI4OC4yNSIgeT0iMjk4LjQyOTciLz48dGV4dCBmaWxsPSIjMDAwMDAwIiBmb250LWZhbWlseT0ic2Fucy1zZXJpZiIgZm9udC1zaXplPSIxMiIgbGVuZ3RoQWRqdXN0PSJzcGFjaW5nIiB0ZXh0TGVuZ3RoPSIyNTIiIHg9IjI5OC4yNSIgeT0iMzE5Ljc3MzQiPmhpdHVuZyBrdWFkcmF0VGVuZ2FoID0gdGVuZ2FoICogdGVuZ2FoPC90ZXh0PjxyZWN0IGZpbGw9IiNGMUYxRjEiIGhlaWdodD0iMzIuODQzOCIgcng9IjEyLjUiIHJ5PSIxMi41IiBzdHlsZT0ic3Ryb2tlOiMxODE4MTg7c3Ryb2tlLXdpZHRoOjAuNTsiIHdpZHRoPSIyNjkiIHg9IjI4OS43NSIgeT0iMzk5LjI3MzQiLz48dGV4dCBmaWxsPSIjMDAwMDAwIiBmb250LWZhbWlseT0ic2Fucy1zZXJpZiIgZm9udC1zaXplPSIxMiIgbGVuZ3RoQWRqdXN0PSJzcGFjaW5nIiB0ZXh0TGVuZ3RoPSIyNDkiIHg9IjI5OS43NSIgeT0iNDIwLjYxNzIiPlRhbXBpbGthbiAiQWthciBrdWFkcmF0IGRhcmkgYmlsYW5nYW4iPC90ZXh0PjxlbGxpcHNlIGN4PSI0MjQuMjUiIGN5PSI0NzguMTE3MiIgZmlsbD0ibm9uZSIgcng9IjExIiByeT0iMTEiIHN0eWxlPSJzdHJva2U6IzIyMjIyMjtzdHJva2Utd2lkdGg6MS4wOyIvPjxlbGxpcHNlIGN4PSI0MjQuMjUiIGN5PSI0NzguMTE3MiIgZmlsbD0iIzIyMjIyMiIgcng9IjYiIHJ5PSI2IiBzdHlsZT0ic3Ryb2tlOiMyMjIyMjI7c3Ryb2tlLXdpZHRoOjEuMDsiLz48cG9seWdvbiBmaWxsPSIjRjFGMUYxIiBwb2ludHM9IjM1Mi4yNSwzNTEuMjczNCw0OTYuMjUsMzUxLjI3MzQsNTA4LjI1LDM2My4yNzM0LDQ5Ni4yNSwzNzUuMjczNCwzNTIuMjUsMzc1LjI3MzQsMzQwLjI1LDM2My4yNzM0LDM1Mi4yNSwzNTEuMjczNCIgc3R5bGU9InN0cm9rZTojMTgxODE4O3N0cm9rZS13aWR0aDowLjU7Ii8+PHRleHQgZmlsbD0iIzAwMDAwMCIgZm9udC1mYW1pbHk9InNhbnMtc2VyaWYiIGZvbnQtc2l6ZT0iMTEiIGxlbmd0aEFkanVzdD0ic3BhY2luZyIgdGV4dExlbmd0aD0iMTIiIHg9IjQyOC4yNSIgeT0iMzg1LjY3MTkiPnlhPC90ZXh0Pjx0ZXh0IGZpbGw9IiMwMDAwMDAiIGZvbnQtZmFtaWx5PSJzYW5zLXNlcmlmIiBmb250LXNpemU9IjExIiBsZW5ndGhBZGp1c3Q9InNwYWNpbmciIHRleHRMZW5ndGg9IjE0NCIgeD0iMzUyLjI1IiB5PSIzNjcuNzg1MiI+a3VhZHJhdFRlbmdhaCA9IEJpbGFuZ2FuPC90ZXh0Pjxwb2x5Z29uIGZpbGw9IiNGMUYxRjEiIHBvaW50cz0iMzUyLjI1LDUzMS4xMTcyLDQ5Ni4yNSw1MzEuMTE3Miw1MDguMjUsNTQzLjExNzIsNDk2LjI1LDU1NS4xMTcyLDM1Mi4yNSw1NTUuMTE3MiwzNDAuMjUsNTQzLjExNzIsMzUyLjI1LDUzMS4xMTcyIiBzdHlsZT0ic3Ryb2tlOiMxODE4MTg7c3Ryb2tlLXdpZHRoOjAuNTsiLz48dGV4dCBmaWxsPSIjMDAwMDAwIiBmb250LWZhbWlseT0ic2Fucy1zZXJpZiIgZm9udC1zaXplPSIxMSIgbGVuZ3RoQWRqdXN0PSJzcGFjaW5nIiB0ZXh0TGVuZ3RoPSIxNDQiIHg9IjM1Mi4yNSIgeT0iNTQ3LjYyODkiPmt1YWRyYXRUZW5nYWggJmx0OyBCaWxhbmdhbjwvdGV4dD48dGV4dCBmaWxsPSIjMDAwMDAwIiBmb250LWZhbWlseT0ic2Fucy1zZXJpZiIgZm9udC1zaXplPSIxMSIgbGVuZ3RoQWRqdXN0PSJzcGFjaW5nIiB0ZXh0TGVuZ3RoPSIxMiIgeD0iMzI4LjI1IiB5PSI1NDEuNzQyMiI+eWE8L3RleHQ+PHRleHQgZmlsbD0iIzAwMDAwMCIgZm9udC1mYW1pbHk9InNhbnMtc2VyaWYiIGZvbnQtc2l6ZT0iMTEiIGxlbmd0aEFkanVzdD0ic3BhY2luZyIgdGV4dExlbmd0aD0iMzAiIHg9IjUwOC4yNSIgeT0iNTQxLjc0MjIiPnRpZGFrPC90ZXh0PjxyZWN0IGZpbGw9IiNGMUYxRjEiIGhlaWdodD0iMzIuODQzOCIgcng9IjEyLjUiIHJ5PSIxMi41IiBzdHlsZT0ic3Ryb2tlOiMxODE4MTg7c3Ryb2tlLXdpZHRoOjAuNTsiIHdpZHRoPSIxMTIiIHg9IjI3NC4yNSIgeT0iNTY1LjExNzIiLz48dGV4dCBmaWxsPSIjMDAwMDAwIiBmb250LWZhbWlseT0ic2Fucy1zZXJpZiIgZm9udC1zaXplPSIxMiIgbGVuZ3RoQWRqdXN0PSJzcGFjaW5nIiB0ZXh0TGVuZ3RoPSI5MiIgeD0iMjg0LjI1IiB5PSI1ODYuNDYwOSI+aGFzaWwgPSB0ZW5nYWg8L3RleHQ+PHJlY3QgZmlsbD0iI0YxRjFGMSIgaGVpZ2h0PSIzMi44NDM4IiByeD0iMTIuNSIgcnk9IjEyLjUiIHN0eWxlPSJzdHJva2U6IzE4MTgxODtzdHJva2Utd2lkdGg6MC41OyIgd2lkdGg9IjE0NSIgeD0iMjU3Ljc1IiB5PSI2MTcuOTYwOSIvPjx0ZXh0IGZpbGw9IiMwMDAwMDAiIGZvbnQtZmFtaWx5PSJzYW5zLXNlcmlmIiBmb250LXNpemU9IjEyIiBsZW5ndGhBZGp1c3Q9InNwYWNpbmciIHRleHRMZW5ndGg9IjEyNSIgeD0iMjY3Ljc1IiB5PSI2MzkuMzA0NyI+cmVuZGFoID0gdGVuZ2FoICsgMTwvdGV4dD48cmVjdCBmaWxsPSIjRjFGMUYxIiBoZWlnaHQ9IjMyLjg0MzgiIHJ4PSIxMi41IiByeT0iMTIuNSIgc3R5bGU9InN0cm9rZTojMTgxODE4O3N0cm9rZS13aWR0aDowLjU7IiB3aWR0aD0iMTQyIiB4PSI0NDcuMjUiIHk9IjU2NS4xMTcyIi8+PHRleHQgZmlsbD0iIzAwMDAwMCIgZm9udC1mYW1pbHk9InNhbnMtc2VyaWYiIGZvbnQtc2l6ZT0iMTIiIGxlbmd0aEFkanVzdD0ic3BhY2luZyIgdGV4dExlbmd0aD0iMTIyIiB4PSI0NTcuMjUiIHk9IjU4Ni40NjA5Ij50aW5nZ2kgPSB0ZW5nYWggLSAxPC90ZXh0Pjxwb2x5Z29uIGZpbGw9IiNGMUYxRjEiIHBvaW50cz0iNDI0LjI1LDY1Ni44MDQ3LDQzNi4yNSw2NjguODA0Nyw0MjQuMjUsNjgwLjgwNDcsNDEyLjI1LDY2OC44MDQ3LDQyNC4yNSw2NTYuODA0NyIgc3R5bGU9InN0cm9rZTojMTgxODE4O3N0cm9rZS13aWR0aDowLjU7Ii8+PHBvbHlnb24gZmlsbD0iI0YxRjFGMSIgcG9pbnRzPSIzNzYuMjUsMTg5LjY4NzUsNDcyLjI1LDE4OS42ODc1LDQ4NC4yNSwyMDEuNjg3NSw0NzIuMjUsMjEzLjY4NzUsMzc2LjI1LDIxMy42ODc1LDM2NC4yNSwyMDEuNjg3NSwzNzYuMjUsMTg5LjY4NzUiIHN0eWxlPSJzdHJva2U6IzE4MTgxODtzdHJva2Utd2lkdGg6MC41OyIvPjx0ZXh0IGZpbGw9IiMwMDAwMDAiIGZvbnQtZmFtaWx5PSJzYW5zLXNlcmlmIiBmb250LXNpemU9IjExIiBsZW5ndGhBZGp1c3Q9InNwYWNpbmciIHRleHRMZW5ndGg9IjI0IiB4PSI0MjguMjUiIHk9IjIyNC4wODU5Ij5sb29wPC90ZXh0Pjx0ZXh0IGZpbGw9IiMwMDAwMDAiIGZvbnQtZmFtaWx5PSJzYW5zLXNlcmlmIiBmb250LXNpemU9IjExIiBsZW5ndGhBZGp1c3Q9InNwYWNpbmciIHRleHRMZW5ndGg9Ijk2IiB4PSIzNzYuMjUiIHk9IjIwNi4xOTkyIj5yZW5kYWggJmx0Oz0gdGluZ2dpPC90ZXh0Pjx0ZXh0IGZpbGw9IiMwMDAwMDAiIGZvbnQtZmFtaWx5PSJzYW5zLXNlcmlmIiBmb250LXNpemU9IjExIiBsZW5ndGhBZGp1c3Q9InNwYWNpbmciIHRleHRMZW5ndGg9IjI0IiB4PSIzNDAuMjUiIHk9IjIwMC4zMTI1Ij5sb29wPC90ZXh0PjxyZWN0IGZpbGw9IiNGMUYxRjEiIGhlaWdodD0iMzIuODQzOCIgcng9IjEyLjUiIHJ5PSIxMi41IiBzdHlsZT0ic3Ryb2tlOiMxODE4MTg7c3Ryb2tlLXdpZHRoOjAuNTsiIHdpZHRoPSIzNjEiIHg9IjI0My43NSIgeT0iNzIyLjgwNDciLz48dGV4dCBmaWxsPSIjMDAwMDAwIiBmb250LWZhbWlseT0ic2Fucy1zZXJpZiIgZm9udC1zaXplPSIxMiIgbGVuZ3RoQWRqdXN0PSJzcGFjaW5nIiB0ZXh0TGVuZ3RoPSIzNDEiIHg9IjI1My43NSIgeT0iNzQ0LjE0ODQiPlRhbXBpbGthbiAiSGFzaWwgcGVtYnVsYXRhbiBiYXdhaCBkYXJpIGFrYXIga3VhZHJhdCI8L3RleHQ+PHBvbHlnb24gZmlsbD0iI0YxRjFGMSIgcG9pbnRzPSIyNTUsNzYxLjY0ODQsMjY3LDc3My42NDg0LDI1NSw3ODUuNjQ4NCwyNDMsNzczLjY0ODQsMjU1LDc2MS42NDg0IiBzdHlsZT0ic3Ryb2tlOiMxODE4MTg7c3Ryb2tlLXdpZHRoOjAuNTsiLz48ZWxsaXBzZSBjeD0iMjU1IiBjeT0iODE2LjY0ODQiIGZpbGw9Im5vbmUiIHJ4PSIxMSIgcnk9IjExIiBzdHlsZT0ic3Ryb2tlOiMyMjIyMjI7c3Ryb2tlLXdpZHRoOjEuMDsiLz48ZWxsaXBzZSBjeD0iMjU1IiBjeT0iODE2LjY0ODQiIGZpbGw9IiMyMjIyMjIiIHJ4PSI2IiByeT0iNiIgc3R5bGU9InN0cm9rZTojMjIyMjIyO3N0cm9rZS13aWR0aDoxLjA7Ii8+PGxpbmUgc3R5bGU9InN0cm9rZTojMTgxODE4O3N0cm9rZS13aWR0aDoxLjA7IiB4MT0iMjU1IiB4Mj0iMjU1IiB5MT0iMzAiIHkyPSI1MCIvPjxwb2x5Z29uIGZpbGw9IiMxODE4MTgiIHBvaW50cz0iMjUxLDQwLDI1NSw1MCwyNTksNDAsMjU1LDQ0IiBzdHlsZT0ic3Ryb2tlOiMxODE4MTg7c3Ryb2tlLXdpZHRoOjEuMDsiLz48bGluZSBzdHlsZT0ic3Ryb2tlOiMxODE4MTg7c3Ryb2tlLXdpZHRoOjEuMDsiIHgxPSI0MjQuMjUiIHgyPSI0MjQuMjUiIHkxPSIyNzguNDI5NyIgeTI9IjI5OC40Mjk3Ii8+PHBvbHlnb24gZmlsbD0iIzE4MTgxOCIgcG9pbnRzPSI0MjAuMjUsMjg4LjQyOTcsNDI0LjI1LDI5OC40Mjk3LDQyOC4yNSwyODguNDI5Nyw0MjQuMjUsMjkyLjQyOTciIHN0eWxlPSJzdHJva2U6IzE4MTgxODtzdHJva2Utd2lkdGg6MS4wOyIvPjxsaW5lIHN0eWxlPSJzdHJva2U6IzE4MTgxODtzdHJva2Utd2lkdGg6MS4wOyIgeDE9IjQyNC4yNSIgeDI9IjQyNC4yNSIgeTE9IjQzMi4xMTcyIiB5Mj0iNDY3LjExNzIiLz48cG9seWdvbiBmaWxsPSIjMTgxODE4IiBwb2ludHM9IjQyMC4yNSw0NTcuMTE3Miw0MjQuMjUsNDY3LjExNzIsNDI4LjI1LDQ1Ny4xMTcyLDQyNC4yNSw0NjEuMTE3MiIgc3R5bGU9InN0cm9rZTojMTgxODE4O3N0cm9rZS13aWR0aDoxLjA7Ii8+PGxpbmUgc3R5bGU9InN0cm9rZTojMTgxODE4O3N0cm9rZS13aWR0aDoxLjA7IiB4MT0iNDI0LjI1IiB4Mj0iNDI0LjI1IiB5MT0iMzc1LjI3MzQiIHkyPSIzOTkuMjczNCIvPjxwb2x5Z29uIGZpbGw9IiMxODE4MTgiIHBvaW50cz0iNDIwLjI1LDM4OS4yNzM0LDQyNC4yNSwzOTkuMjczNCw0MjguMjUsMzg5LjI3MzQsNDI0LjI1LDM5My4yNzM0IiBzdHlsZT0ic3Ryb2tlOiMxODE4MTg7c3Ryb2tlLXdpZHRoOjEuMDsiLz48bGluZSBzdHlsZT0ic3Ryb2tlOiMxODE4MTg7c3Ryb2tlLXdpZHRoOjEuMDsiIHgxPSI1MDguMjUiIHgyPSI1NjguNzUiIHkxPSIzNjMuMjczNCIgeTI9IjM2My4yNzM0Ii8+PHBvbHlnb24gZmlsbD0iIzE4MTgxOCIgcG9pbnRzPSI1NjQuNzUsNDMxLjE5NTMsNTY4Ljc1LDQ0MS4xOTUzLDU3Mi43NSw0MzEuMTk1Myw1NjguNzUsNDM1LjE5NTMiIHN0eWxlPSJzdHJva2U6IzE4MTgxODtzdHJva2Utd2lkdGg6MS4wOyIvPjxsaW5lIHN0eWxlPSJzdHJva2U6IzE4MTgxODtzdHJva2Utd2lkdGg6MS4wOyIgeDE9IjU2OC43NSIgeDI9IjU2OC43NSIgeTE9IjM2My4yNzM0IiB5Mj0iNTExLjExNzIiLz48bGluZSBzdHlsZT0ic3Ryb2tlOiMxODE4MTg7c3Ryb2tlLXdpZHRoOjEuMDsiIHgxPSI1NjguNzUiIHgyPSI0MjQuMjUiIHkxPSI1MTEuMTE3MiIgeTI9IjUxMS4xMTcyIi8+PGxpbmUgc3R5bGU9InN0cm9rZTojMTgxODE4O3N0cm9rZS13aWR0aDoxLjA7IiB4MT0iNDI0LjI1IiB4Mj0iNDI0LjI1IiB5MT0iNTExLjExNzIiIHkyPSI1MzEuMTE3MiIvPjxwb2x5Z29uIGZpbGw9IiMxODE4MTgiIHBvaW50cz0iNDIwLjI1LDUyMS4xMTcyLDQyNC4yNSw1MzEuMTE3Miw0MjguMjUsNTIxLjExNzIsNDI0LjI1LDUyNS4xMTcyIiBzdHlsZT0ic3Ryb2tlOiMxODE4MTg7c3Ryb2tlLXdpZHRoOjEuMDsiLz48bGluZSBzdHlsZT0ic3Ryb2tlOiMxODE4MTg7c3Ryb2tlLXdpZHRoOjEuMDsiIHgxPSI0MjQuMjUiIHgyPSI0MjQuMjUiIHkxPSIzMzEuMjczNCIgeTI9IjM1MS4yNzM0Ii8+PHBvbHlnb24gZmlsbD0iIzE4MTgxOCIgcG9pbnRzPSI0MjAuMjUsMzQxLjI3MzQsNDI0LjI1LDM1MS4yNzM0LDQyOC4yNSwzNDEuMjczNCw0MjQuMjUsMzQ1LjI3MzQiIHN0eWxlPSJzdHJva2U6IzE4MTgxODtzdHJva2Utd2lkdGg6MS4wOyIvPjxsaW5lIHN0eWxlPSJzdHJva2U6IzE4MTgxODtzdHJva2Utd2lkdGg6MS4wOyIgeDE9IjMzMC4yNSIgeDI9IjMzMC4yNSIgeTE9IjU5Ny45NjA5IiB5Mj0iNjE3Ljk2MDkiLz48cG9seWdvbiBmaWxsPSIjMTgxODE4IiBwb2ludHM9IjMyNi4yNSw2MDcuOTYwOSwzMzAuMjUsNjE3Ljk2MDksMzM0LjI1LDYwNy45NjA5LDMzMC4yNSw2MTEuOTYwOSIgc3R5bGU9InN0cm9rZTojMTgxODE4O3N0cm9rZS13aWR0aDoxLjA7Ii8+PGxpbmUgc3R5bGU9InN0cm9rZTojMTgxODE4O3N0cm9rZS13aWR0aDoxLjA7IiB4MT0iMzQwLjI1IiB4Mj0iMzMwLjI1IiB5MT0iNTQzLjExNzIiIHkyPSI1NDMuMTE3MiIvPjxsaW5lIHN0eWxlPSJzdHJva2U6IzE4MTgxODtzdHJva2Utd2lkdGg6MS4wOyIgeDE9IjMzMC4yNSIgeDI9IjMzMC4yNSIgeTE9IjU0My4xMTcyIiB5Mj0iNTY1LjExNzIiLz48cG9seWdvbiBmaWxsPSIjMTgxODE4IiBwb2ludHM9IjMyNi4yNSw1NTUuMTE3MiwzMzAuMjUsNTY1LjExNzIsMzM0LjI1LDU1NS4xMTcyLDMzMC4yNSw1NTkuMTE3MiIgc3R5bGU9InN0cm9rZTojMTgxODE4O3N0cm9rZS13aWR0aDoxLjA7Ii8+PGxpbmUgc3R5bGU9InN0cm9rZTojMTgxODE4O3N0cm9rZS13aWR0aDoxLjA7IiB4MT0iNTA4LjI1IiB4Mj0iNTE4LjI1IiB5MT0iNTQzLjExNzIiIHkyPSI1NDMuMTE3MiIvPjxsaW5lIHN0eWxlPSJzdHJva2U6IzE4MTgxODtzdHJva2Utd2lkdGg6MS4wOyIgeDE9IjUxOC4yNSIgeDI9IjUxOC4yNSIgeTE9IjU0My4xMTcyIiB5Mj0iNTY1LjExNzIiLz48cG9seWdvbiBmaWxsPSIjMTgxODE4IiBwb2ludHM9IjUxNC4yNSw1NTUuMTE3Miw1MTguMjUsNTY1LjExNzIsNTIyLjI1LDU1NS4xMTcyLDUxOC4yNSw1NTkuMTE3MiIgc3R5bGU9InN0cm9rZTojMTgxODE4O3N0cm9rZS13aWR0aDoxLjA7Ii8+PGxpbmUgc3R5bGU9InN0cm9rZTojMTgxODE4O3N0cm9rZS13aWR0aDoxLjA7IiB4MT0iMzMwLjI1IiB4Mj0iMzMwLjI1IiB5MT0iNjUwLjgwNDciIHkyPSI2NjguODA0NyIvPjxsaW5lIHN0eWxlPSJzdHJva2U6IzE4MTgxODtzdHJva2Utd2lkdGg6MS4wOyIgeDE9IjMzMC4yNSIgeDI9IjQxMi4yNSIgeTE9IjY2OC44MDQ3IiB5Mj0iNjY4LjgwNDciLz48cG9seWdvbiBmaWxsPSIjMTgxODE4IiBwb2ludHM9IjQwMi4yNSw2NjQuODA0Nyw0MTIuMjUsNjY4LjgwNDcsNDAyLjI1LDY3Mi44MDQ3LDQwNi4yNSw2NjguODA0NyIgc3R5bGU9InN0cm9rZTojMTgxODE4O3N0cm9rZS13aWR0aDoxLjA7Ii8+PGxpbmUgc3R5bGU9InN0cm9rZTojMTgxODE4O3N0cm9rZS13aWR0aDoxLjA7IiB4MT0iNTE4LjI1IiB4Mj0iNTE4LjI1IiB5MT0iNTk3Ljk2MDkiIHkyPSI2NjguODA0NyIvPjxsaW5lIHN0eWxlPSJzdHJva2U6IzE4MTgxODtzdHJva2Utd2lkdGg6MS4wOyIgeDE9IjUxOC4yNSIgeDI9IjQzNi4yNSIgeTE9IjY2OC44MDQ3IiB5Mj0iNjY4LjgwNDciLz48cG9seWdvbiBmaWxsPSIjMTgxODE4IiBwb2ludHM9IjQ0Ni4yNSw2NjQuODA0Nyw0MzYuMjUsNjY4LjgwNDcsNDQ2LjI1LDY3Mi44MDQ3LDQ0Mi4yNSw2NjguODA0NyIgc3R5bGU9InN0cm9rZTojMTgxODE4O3N0cm9rZS13aWR0aDoxLjA7Ii8+PGxpbmUgc3R5bGU9InN0cm9rZTojMTgxODE4O3N0cm9rZS13aWR0aDoxLjA7IiB4MT0iNDI0LjI1IiB4Mj0iNDI0LjI1IiB5MT0iMjEzLjY4NzUiIHkyPSIyNDUuNTg1OSIvPjxwb2x5Z29uIGZpbGw9IiMxODE4MTgiIHBvaW50cz0iNDIwLjI1LDIzNS41ODU5LDQyNC4yNSwyNDUuNTg1OSw0MjguMjUsMjM1LjU4NTksNDI0LjI1LDIzOS41ODU5IiBzdHlsZT0ic3Ryb2tlOiMxODE4MTg7c3Ryb2tlLXdpZHRoOjEuMDsiLz48bGluZSBzdHlsZT0ic3Ryb2tlOiMxODE4MTg7c3Ryb2tlLXdpZHRoOjEuMDsiIHgxPSI0MjQuMjUiIHgyPSI0MjQuMjUiIHkxPSI2ODAuODA0NyIgeTI9IjY5MC44MDQ3Ii8+PGxpbmUgc3R5bGU9InN0cm9rZTojMTgxODE4O3N0cm9rZS13aWR0aDoxLjA7IiB4MT0iNDI0LjI1IiB4Mj0iNjExLjI1IiB5MT0iNjkwLjgwNDciIHkyPSI2OTAuODA0NyIvPjxwb2x5Z29uIGZpbGw9IiMxODE4MTgiIHBvaW50cz0iNjA3LjI1LDQ1OS4zMDg2LDYxMS4yNSw0NDkuMzA4Niw2MTUuMjUsNDU5LjMwODYsNjExLjI1LDQ1NS4zMDg2IiBzdHlsZT0ic3Ryb2tlOiMxODE4MTg7c3Ryb2tlLXdpZHRoOjEuMDsiLz48bGluZSBzdHlsZT0ic3Ryb2tlOiMxODE4MTg7c3Ryb2tlLXdpZHRoOjEuMDsiIHgxPSI2MTEuMjUiIHgyPSI2MTEuMjUiIHkxPSIyMDEuNjg3NSIgeTI9IjY5MC44MDQ3Ii8+PGxpbmUgc3R5bGU9InN0cm9rZTojMTgxODE4O3N0cm9rZS13aWR0aDoxLjA7IiB4MT0iNjExLjI1IiB4Mj0iNDg0LjI1IiB5MT0iMjAxLjY4NzUiIHkyPSIyMDEuNjg3NSIvPjxwb2x5Z29uIGZpbGw9IiMxODE4MTgiIHBvaW50cz0iNDk0LjI1LDE5Ny42ODc1LDQ4NC4yNSwyMDEuNjg3NSw0OTQuMjUsMjA1LjY4NzUsNDkwLjI1LDIwMS42ODc1IiBzdHlsZT0ic3Ryb2tlOiMxODE4MTg7c3Ryb2tlLXdpZHRoOjEuMDsiLz48bGluZSBzdHlsZT0ic3Ryb2tlOiMxODE4MTg7c3Ryb2tlLXdpZHRoOjEuMDsiIHgxPSIzNjQuMjUiIHgyPSIyMzUuNzUiIHkxPSIyMDEuNjg3NSIgeTI9IjIwMS42ODc1Ii8+PHBvbHlnb24gZmlsbD0iIzE4MTgxOCIgcG9pbnRzPSIyMzEuNzUsNDQ1LjMwODYsMjM1Ljc1LDQ1NS4zMDg2LDIzOS43NSw0NDUuMzA4NiwyMzUuNzUsNDQ5LjMwODYiIHN0eWxlPSJzdHJva2U6IzE4MTgxODtzdHJva2Utd2lkdGg6MS4wOyIvPjxsaW5lIHN0eWxlPSJzdHJva2U6IzE4MTgxODtzdHJva2Utd2lkdGg6MS4wOyIgeDE9IjIzNS43NSIgeDI9IjIzNS43NSIgeTE9IjIwMS42ODc1IiB5Mj0iNzAyLjgwNDciLz48bGluZSBzdHlsZT0ic3Ryb2tlOiMxODE4MTg7c3Ryb2tlLXdpZHRoOjEuMDsiIHgxPSIyMzUuNzUiIHgyPSI0MjQuMjUiIHkxPSI3MDIuODA0NyIgeTI9IjcwMi44MDQ3Ii8+PGxpbmUgc3R5bGU9InN0cm9rZTojMTgxODE4O3N0cm9rZS13aWR0aDoxLjA7IiB4MT0iNDI0LjI1IiB4Mj0iNDI0LjI1IiB5MT0iNzAyLjgwNDciIHkyPSI3MjIuODA0NyIvPjxwb2x5Z29uIGZpbGw9IiMxODE4MTgiIHBvaW50cz0iNDIwLjI1LDcxMi44MDQ3LDQyNC4yNSw3MjIuODA0Nyw0MjguMjUsNzEyLjgwNDcsNDI0LjI1LDcxNi44MDQ3IiBzdHlsZT0ic3Ryb2tlOiMxODE4MTg7c3Ryb2tlLXdpZHRoOjEuMDsiLz48bGluZSBzdHlsZT0ic3Ryb2tlOiMxODE4MTg7c3Ryb2tlLXdpZHRoOjEuMDsiIHgxPSI0MjQuMjUiIHgyPSI0MjQuMjUiIHkxPSIxNjkuNjg3NSIgeTI9IjE4OS42ODc1Ii8+PHBvbHlnb24gZmlsbD0iIzE4MTgxOCIgcG9pbnRzPSI0MjAuMjUsMTc5LjY4NzUsNDI0LjI1LDE4OS42ODc1LDQyOC4yNSwxNzkuNjg3NSw0MjQuMjUsMTgzLjY4NzUiIHN0eWxlPSJzdHJva2U6IzE4MTgxODtzdHJva2Utd2lkdGg6MS4wOyIvPjxsaW5lIHN0eWxlPSJzdHJva2U6IzE4MTgxODtzdHJva2Utd2lkdGg6MS4wOyIgeDE9IjIwNyIgeDI9Ijk0LjUiIHkxPSIxMTQuODQzOCIgeTI9IjExNC44NDM4Ii8+PGxpbmUgc3R5bGU9InN0cm9rZTojMTgxODE4O3N0cm9rZS13aWR0aDoxLjA7IiB4MT0iOTQuNSIgeDI9Ijk0LjUiIHkxPSIxMTQuODQzOCIgeTI9IjEzNi44NDM4Ii8+PHBvbHlnb24gZmlsbD0iIzE4MTgxOCIgcG9pbnRzPSI5MC41LDEyNi44NDM4LDk0LjUsMTM2Ljg0MzgsOTguNSwxMjYuODQzOCw5NC41LDEzMC44NDM4IiBzdHlsZT0ic3Ryb2tlOiMxODE4MTg7c3Ryb2tlLXdpZHRoOjEuMDsiLz48bGluZSBzdHlsZT0ic3Ryb2tlOiMxODE4MTg7c3Ryb2tlLXdpZHRoOjEuMDsiIHgxPSIzMDMiIHgyPSI0MjQuMjUiIHkxPSIxMTQuODQzOCIgeTI9IjExNC44NDM4Ii8+PGxpbmUgc3R5bGU9InN0cm9rZTojMTgxODE4O3N0cm9rZS13aWR0aDoxLjA7IiB4MT0iNDI0LjI1IiB4Mj0iNDI0LjI1IiB5MT0iMTE0Ljg0MzgiIHkyPSIxMzYuODQzOCIvPjxwb2x5Z29uIGZpbGw9IiMxODE4MTgiIHBvaW50cz0iNDIwLjI1LDEyNi44NDM4LDQyNC4yNSwxMzYuODQzOCw0MjguMjUsMTI2Ljg0MzgsNDI0LjI1LDEzMC44NDM4IiBzdHlsZT0ic3Ryb2tlOiMxODE4MTg7c3Ryb2tlLXdpZHRoOjEuMDsiLz48bGluZSBzdHlsZT0ic3Ryb2tlOiMxODE4MTg7c3Ryb2tlLXdpZHRoOjEuMDsiIHgxPSI5NC41IiB4Mj0iOTQuNSIgeTE9IjE2OS42ODc1IiB5Mj0iNzczLjY0ODQiLz48bGluZSBzdHlsZT0ic3Ryb2tlOiMxODE4MTg7c3Ryb2tlLXdpZHRoOjEuMDsiIHgxPSI5NC41IiB4Mj0iMjQzIiB5MT0iNzczLjY0ODQiIHkyPSI3NzMuNjQ4NCIvPjxwb2x5Z29uIGZpbGw9IiMxODE4MTgiIHBvaW50cz0iMjMzLDc2OS42NDg0LDI0Myw3NzMuNjQ4NCwyMzMsNzc3LjY0ODQsMjM3LDc3My42NDg0IiBzdHlsZT0ic3Ryb2tlOiMxODE4MTg7c3Ryb2tlLXdpZHRoOjEuMDsiLz48bGluZSBzdHlsZT0ic3Ryb2tlOiMxODE4MTg7c3Ryb2tlLXdpZHRoOjEuMDsiIHgxPSI0MjQuMjUiIHgyPSI0MjQuMjUiIHkxPSI3NTUuNjQ4NCIgeTI9Ijc3My42NDg0Ii8+PGxpbmUgc3R5bGU9InN0cm9rZTojMTgxODE4O3N0cm9rZS13aWR0aDoxLjA7IiB4MT0iNDI0LjI1IiB4Mj0iMjY3IiB5MT0iNzczLjY0ODQiIHkyPSI3NzMuNjQ4NCIvPjxwb2x5Z29uIGZpbGw9IiMxODE4MTgiIHBvaW50cz0iMjc3LDc2OS42NDg0LDI2Nyw3NzMuNjQ4NCwyNzcsNzc3LjY0ODQsMjczLDc3My42NDg0IiBzdHlsZT0ic3Ryb2tlOiMxODE4MTg7c3Ryb2tlLXdpZHRoOjEuMDsiLz48bGluZSBzdHlsZT0ic3Ryb2tlOiMxODE4MTg7c3Ryb2tlLXdpZHRoOjEuMDsiIHgxPSIyNTUiIHgyPSIyNTUiIHkxPSI4Mi44NDM4IiB5Mj0iMTAyLjg0MzgiLz48cG9seWdvbiBmaWxsPSIjMTgxODE4IiBwb2ludHM9IjI1MSw5Mi44NDM4LDI1NSwxMDIuODQzOCwyNTksOTIuODQzOCwyNTUsOTYuODQzOCIgc3R5bGU9InN0cm9rZTojMTgxODE4O3N0cm9rZS13aWR0aDoxLjA7Ii8+PGxpbmUgc3R5bGU9InN0cm9rZTojMTgxODE4O3N0cm9rZS13aWR0aDoxLjA7IiB4MT0iMjU1IiB4Mj0iMjU1IiB5MT0iNzg1LjY0ODQiIHkyPSI4MDUuNjQ4NCIvPjxwb2x5Z29uIGZpbGw9IiMxODE4MTgiIHBvaW50cz0iMjUxLDc5NS42NDg0LDI1NSw4MDUuNjQ4NCwyNTksNzk1LjY0ODQsMjU1LDc5OS42NDg0IiBzdHlsZT0ic3Ryb2tlOiMxODE4MTg7c3Ryb2tlLXdpZHRoOjEuMDsiLz48IS0tU1JDPVtWTEIxUmVDbTNCdHA1SE9kTTNranN4N0dHdFZnM2hsbjBxUWFPOTQ2YjhITS1faXZRT0JJSWppZlpsRVVkX3FTT3I3UlJGLURQWGI3TEQySUhETVpnWjh3R180UFJiMzNoV0d4MjBONTN2T1BtQngxb3FwSUtWQTZFWHBYWWZBd2xDZzREMDhBd3Q4VS1BTjg0QnlQRENHV0pUV0EyTGdlM1dTdW02dUJiYkpWNHlUSFJXaTNXc01JZ1JaSVJJMzliR0VwRldIVTJNSVdhRENxRXBhTTdDV2tnV1NoY0VXSzhjRXA0anhXZXRoMFpXanM2Y3FKQU83eDRlOHhzMWRvMzhwekZQaFpJb1M2N0tWS0tHQ3dqYzJyRVF5MnREWGZ6WTd0SWtTX3pFaF96QTliUVNrU05lcUVDc3RXX1Z4c2oyU0ZOWlNIbUF5aEU3SjVQclgzRDNvVHktSFJjQ01iTklIUXp2bG1uYk55bjlYdXU3dzlCLVljX1dLMF0tLT48L2c+PC9zdmc+;" vertex="1" parent="1">
            <mxGeometry x="490" y="250" width="340" height="425.25" as="geometry" />
          </mxCell>
        </UserObject>
      </root>
    </mxGraphModel>
  </diagram>
  <diagram id="5mzwkai0tJhyOZSVSaf4" name="Page-6">
    <mxGraphModel dx="5640" dy="2110" grid="1" gridSize="10" guides="1" tooltips="1" connect="1" arrows="1" fold="1" page="1" pageScale="1" pageWidth="850" pageHeight="1100" math="0" shadow="0">
      <root>
        <mxCell id="0" />
        <mxCell id="1" parent="0" />
        <mxCell id="UJuojZn0ztF3uc3kh5pN-8" value="" style="edgeStyle=orthogonalEdgeStyle;rounded=0;orthogonalLoop=1;jettySize=auto;html=1;" edge="1" parent="1" source="UJuojZn0ztF3uc3kh5pN-3" target="UJuojZn0ztF3uc3kh5pN-7">
          <mxGeometry relative="1" as="geometry" />
        </mxCell>
        <mxCell id="UJuojZn0ztF3uc3kh5pN-3" value="start" style="ellipse;whiteSpace=wrap;html=1;aspect=fixed;" vertex="1" parent="1">
          <mxGeometry x="-590" y="80" width="50" height="50" as="geometry" />
        </mxCell>
        <mxCell id="UJuojZn0ztF3uc3kh5pN-10" value="" style="edgeStyle=orthogonalEdgeStyle;rounded=0;orthogonalLoop=1;jettySize=auto;html=1;" edge="1" parent="1" source="UJuojZn0ztF3uc3kh5pN-7" target="UJuojZn0ztF3uc3kh5pN-9">
          <mxGeometry relative="1" as="geometry" />
        </mxCell>
        <mxCell id="UJuojZn0ztF3uc3kh5pN-7" value="masukkan bil" style="shape=parallelogram;perimeter=parallelogramPerimeter;whiteSpace=wrap;html=1;fixedSize=1;" vertex="1" parent="1">
          <mxGeometry x="-617.5" y="160" width="105" height="45" as="geometry" />
        </mxCell>
        <mxCell id="UJuojZn0ztF3uc3kh5pN-13" value="" style="edgeStyle=orthogonalEdgeStyle;rounded=0;orthogonalLoop=1;jettySize=auto;html=1;" edge="1" parent="1" source="UJuojZn0ztF3uc3kh5pN-9" target="UJuojZn0ztF3uc3kh5pN-12">
          <mxGeometry relative="1" as="geometry" />
        </mxCell>
        <mxCell id="UJuojZn0ztF3uc3kh5pN-15" value="" style="edgeStyle=orthogonalEdgeStyle;rounded=0;orthogonalLoop=1;jettySize=auto;html=1;entryX=0.5;entryY=0;entryDx=0;entryDy=0;" edge="1" parent="1" source="UJuojZn0ztF3uc3kh5pN-9" target="UJuojZn0ztF3uc3kh5pN-14">
          <mxGeometry relative="1" as="geometry" />
        </mxCell>
        <mxCell id="UJuojZn0ztF3uc3kh5pN-9" value="bil &amp;lt; 0" style="shape=hexagon;perimeter=hexagonPerimeter2;whiteSpace=wrap;html=1;fixedSize=1;" vertex="1" parent="1">
          <mxGeometry x="-607.5" y="240" width="85" height="42.5" as="geometry" />
        </mxCell>
        <mxCell id="UJuojZn0ztF3uc3kh5pN-38" style="edgeStyle=orthogonalEdgeStyle;rounded=0;orthogonalLoop=1;jettySize=auto;html=1;entryX=0;entryY=0.5;entryDx=0;entryDy=0;" edge="1" parent="1" source="UJuojZn0ztF3uc3kh5pN-12" target="UJuojZn0ztF3uc3kh5pN-37">
          <mxGeometry relative="1" as="geometry">
            <Array as="points">
              <mxPoint x="-750" y="745" />
            </Array>
          </mxGeometry>
        </mxCell>
        <mxCell id="UJuojZn0ztF3uc3kh5pN-12" value="tidak valid" style="shape=parallelogram;perimeter=parallelogramPerimeter;whiteSpace=wrap;html=1;fixedSize=1;" vertex="1" parent="1">
          <mxGeometry x="-800" y="300" width="100" height="48.75" as="geometry" />
        </mxCell>
        <mxCell id="UJuojZn0ztF3uc3kh5pN-19" value="" style="edgeStyle=orthogonalEdgeStyle;rounded=0;orthogonalLoop=1;jettySize=auto;html=1;" edge="1" parent="1" source="UJuojZn0ztF3uc3kh5pN-14" target="UJuojZn0ztF3uc3kh5pN-18">
          <mxGeometry relative="1" as="geometry" />
        </mxCell>
        <mxCell id="UJuojZn0ztF3uc3kh5pN-24" value="" style="edgeStyle=orthogonalEdgeStyle;rounded=0;orthogonalLoop=1;jettySize=auto;html=1;exitX=0;exitY=0.5;exitDx=0;exitDy=0;entryX=0.5;entryY=0;entryDx=0;entryDy=0;" edge="1" parent="1" source="UJuojZn0ztF3uc3kh5pN-18" target="UJuojZn0ztF3uc3kh5pN-23">
          <mxGeometry relative="1" as="geometry">
            <Array as="points">
              <mxPoint x="-480" y="402" />
              <mxPoint x="-480" y="490" />
              <mxPoint x="-385" y="490" />
            </Array>
          </mxGeometry>
        </mxCell>
        <mxCell id="UJuojZn0ztF3uc3kh5pN-14" value="inisialisasi variabel akar = 0" style="whiteSpace=wrap;html=1;" vertex="1" parent="1">
          <mxGeometry x="-445" y="300" width="120" height="50" as="geometry" />
        </mxCell>
        <mxCell id="UJuojZn0ztF3uc3kh5pN-21" value="" style="edgeStyle=orthogonalEdgeStyle;rounded=0;orthogonalLoop=1;jettySize=auto;html=1;" edge="1" parent="1" source="UJuojZn0ztF3uc3kh5pN-18" target="UJuojZn0ztF3uc3kh5pN-20">
          <mxGeometry relative="1" as="geometry" />
        </mxCell>
        <mxCell id="UJuojZn0ztF3uc3kh5pN-18" value="akar * akar &amp;lt;= bil" style="shape=hexagon;perimeter=hexagonPerimeter2;whiteSpace=wrap;html=1;fixedSize=1;" vertex="1" parent="1">
          <mxGeometry x="-442.5" y="380" width="115" height="45" as="geometry" />
        </mxCell>
        <mxCell id="UJuojZn0ztF3uc3kh5pN-22" style="edgeStyle=orthogonalEdgeStyle;rounded=0;orthogonalLoop=1;jettySize=auto;html=1;exitX=1;exitY=0.5;exitDx=0;exitDy=0;" edge="1" parent="1" source="UJuojZn0ztF3uc3kh5pN-20">
          <mxGeometry relative="1" as="geometry">
            <mxPoint x="-330" y="403" as="targetPoint" />
            <Array as="points">
              <mxPoint x="-305" y="464" />
              <mxPoint x="-305" y="403" />
            </Array>
          </mxGeometry>
        </mxCell>
        <mxCell id="UJuojZn0ztF3uc3kh5pN-20" value="akar++" style="whiteSpace=wrap;html=1;" vertex="1" parent="1">
          <mxGeometry x="-417.5" y="450" width="65" height="27.5" as="geometry" />
        </mxCell>
        <mxCell id="UJuojZn0ztF3uc3kh5pN-26" value="" style="edgeStyle=orthogonalEdgeStyle;rounded=0;orthogonalLoop=1;jettySize=auto;html=1;" edge="1" parent="1" source="UJuojZn0ztF3uc3kh5pN-23" target="UJuojZn0ztF3uc3kh5pN-25">
          <mxGeometry relative="1" as="geometry" />
        </mxCell>
        <mxCell id="UJuojZn0ztF3uc3kh5pN-28" value="" style="edgeStyle=orthogonalEdgeStyle;rounded=0;orthogonalLoop=1;jettySize=auto;html=1;entryX=0.5;entryY=0;entryDx=0;entryDy=0;" edge="1" parent="1" source="UJuojZn0ztF3uc3kh5pN-23" target="UJuojZn0ztF3uc3kh5pN-27">
          <mxGeometry relative="1" as="geometry">
            <mxPoint x="-240" y="640" as="targetPoint" />
            <Array as="points">
              <mxPoint x="-250" y="545" />
            </Array>
          </mxGeometry>
        </mxCell>
        <mxCell id="UJuojZn0ztF3uc3kh5pN-23" value="akar * akar = bil" style="shape=hexagon;perimeter=hexagonPerimeter2;whiteSpace=wrap;html=1;fixedSize=1;" vertex="1" parent="1">
          <mxGeometry x="-437.5" y="520" width="105" height="50" as="geometry" />
        </mxCell>
        <mxCell id="UJuojZn0ztF3uc3kh5pN-31" value="" style="edgeStyle=orthogonalEdgeStyle;rounded=0;orthogonalLoop=1;jettySize=auto;html=1;exitX=0.5;exitY=1;exitDx=0;exitDy=0;" edge="1" parent="1" source="UJuojZn0ztF3uc3kh5pN-25" target="UJuojZn0ztF3uc3kh5pN-30">
          <mxGeometry relative="1" as="geometry">
            <Array as="points">
              <mxPoint x="-521" y="695" />
            </Array>
          </mxGeometry>
        </mxCell>
        <mxCell id="UJuojZn0ztF3uc3kh5pN-25" value="akar kuadrat dari bil" style="shape=parallelogram;perimeter=parallelogramPerimeter;whiteSpace=wrap;html=1;fixedSize=1;" vertex="1" parent="1">
          <mxGeometry x="-600" y="590.0000000000001" width="157.5" height="47.16" as="geometry" />
        </mxCell>
        <mxCell id="UJuojZn0ztF3uc3kh5pN-34" style="edgeStyle=orthogonalEdgeStyle;rounded=0;orthogonalLoop=1;jettySize=auto;html=1;entryX=1;entryY=0.5;entryDx=0;entryDy=0;exitX=0.5;exitY=1;exitDx=0;exitDy=0;" edge="1" parent="1" source="UJuojZn0ztF3uc3kh5pN-27" target="UJuojZn0ztF3uc3kh5pN-30">
          <mxGeometry relative="1" as="geometry" />
        </mxCell>
        <mxCell id="UJuojZn0ztF3uc3kh5pN-27" value="hasil pembulatan bawah dari akar kuadrat" style="shape=parallelogram;perimeter=parallelogramPerimeter;whiteSpace=wrap;html=1;fixedSize=1;" vertex="1" parent="1">
          <mxGeometry x="-360" y="588.92" width="220" height="49.32" as="geometry" />
        </mxCell>
        <mxCell id="UJuojZn0ztF3uc3kh5pN-39" style="edgeStyle=orthogonalEdgeStyle;rounded=0;orthogonalLoop=1;jettySize=auto;html=1;entryX=1;entryY=0.5;entryDx=0;entryDy=0;" edge="1" parent="1" source="UJuojZn0ztF3uc3kh5pN-30" target="UJuojZn0ztF3uc3kh5pN-37">
          <mxGeometry relative="1" as="geometry">
            <Array as="points">
              <mxPoint x="-385" y="745" />
            </Array>
          </mxGeometry>
        </mxCell>
        <mxCell id="UJuojZn0ztF3uc3kh5pN-30" value="" style="rhombus;whiteSpace=wrap;html=1;" vertex="1" parent="1">
          <mxGeometry x="-402.5" y="680" width="35" height="30" as="geometry" />
        </mxCell>
        <mxCell id="UJuojZn0ztF3uc3kh5pN-41" value="" style="edgeStyle=orthogonalEdgeStyle;rounded=0;orthogonalLoop=1;jettySize=auto;html=1;" edge="1" parent="1" source="UJuojZn0ztF3uc3kh5pN-37" target="UJuojZn0ztF3uc3kh5pN-40">
          <mxGeometry relative="1" as="geometry" />
        </mxCell>
        <mxCell id="UJuojZn0ztF3uc3kh5pN-37" value="" style="rhombus;whiteSpace=wrap;html=1;" vertex="1" parent="1">
          <mxGeometry x="-582.5" y="730" width="35" height="30" as="geometry" />
        </mxCell>
        <mxCell id="UJuojZn0ztF3uc3kh5pN-40" value="end" style="ellipse;whiteSpace=wrap;html=1;" vertex="1" parent="1">
          <mxGeometry x="-586.25" y="790" width="42.5" height="40" as="geometry" />
        </mxCell>
        <mxCell id="UJuojZn0ztF3uc3kh5pN-42" value="ya" style="text;html=1;align=center;verticalAlign=middle;resizable=0;points=[];autosize=1;strokeColor=none;fillColor=none;" vertex="1" parent="1">
          <mxGeometry x="-500" y="518" width="40" height="30" as="geometry" />
        </mxCell>
        <mxCell id="UJuojZn0ztF3uc3kh5pN-43" value="tidak" style="text;html=1;align=center;verticalAlign=middle;resizable=0;points=[];autosize=1;strokeColor=none;fillColor=none;" vertex="1" parent="1">
          <mxGeometry x="-325" y="518" width="50" height="30" as="geometry" />
        </mxCell>
        <mxCell id="UJuojZn0ztF3uc3kh5pN-44" value="ya" style="text;html=1;align=center;verticalAlign=middle;resizable=0;points=[];autosize=1;strokeColor=none;fillColor=none;" vertex="1" parent="1">
          <mxGeometry x="-680" y="228" width="40" height="30" as="geometry" />
        </mxCell>
        <mxCell id="UJuojZn0ztF3uc3kh5pN-45" value="tidak" style="text;html=1;align=center;verticalAlign=middle;resizable=0;points=[];autosize=1;strokeColor=none;fillColor=none;" vertex="1" parent="1">
          <mxGeometry x="-475" y="228" width="50" height="30" as="geometry" />
        </mxCell>
        <mxCell id="UJuojZn0ztF3uc3kh5pN-48" value="" style="edgeStyle=orthogonalEdgeStyle;rounded=0;orthogonalLoop=1;jettySize=auto;html=1;" edge="1" parent="1" source="UJuojZn0ztF3uc3kh5pN-46" target="UJuojZn0ztF3uc3kh5pN-47">
          <mxGeometry relative="1" as="geometry" />
        </mxCell>
        <mxCell id="UJuojZn0ztF3uc3kh5pN-46" value="start" style="ellipse;whiteSpace=wrap;html=1;aspect=fixed;" vertex="1" parent="1">
          <mxGeometry x="233" y="80" width="50" height="50" as="geometry" />
        </mxCell>
        <mxCell id="UJuojZn0ztF3uc3kh5pN-50" value="" style="edgeStyle=orthogonalEdgeStyle;rounded=0;orthogonalLoop=1;jettySize=auto;html=1;" edge="1" parent="1" source="UJuojZn0ztF3uc3kh5pN-47" target="UJuojZn0ztF3uc3kh5pN-49">
          <mxGeometry relative="1" as="geometry" />
        </mxCell>
        <mxCell id="UJuojZn0ztF3uc3kh5pN-47" value="masukkan bil" style="shape=parallelogram;perimeter=parallelogramPerimeter;whiteSpace=wrap;html=1;fixedSize=1;" vertex="1" parent="1">
          <mxGeometry x="198" y="170" width="120" height="60" as="geometry" />
        </mxCell>
        <mxCell id="UJuojZn0ztF3uc3kh5pN-52" value="" style="edgeStyle=orthogonalEdgeStyle;rounded=0;orthogonalLoop=1;jettySize=auto;html=1;" edge="1" parent="1" source="UJuojZn0ztF3uc3kh5pN-49" target="UJuojZn0ztF3uc3kh5pN-51">
          <mxGeometry relative="1" as="geometry" />
        </mxCell>
        <mxCell id="UJuojZn0ztF3uc3kh5pN-55" value="" style="edgeStyle=orthogonalEdgeStyle;rounded=0;orthogonalLoop=1;jettySize=auto;html=1;entryX=0.5;entryY=0;entryDx=0;entryDy=0;" edge="1" parent="1" source="UJuojZn0ztF3uc3kh5pN-49" target="UJuojZn0ztF3uc3kh5pN-54">
          <mxGeometry relative="1" as="geometry" />
        </mxCell>
        <mxCell id="UJuojZn0ztF3uc3kh5pN-49" value="bil &amp;lt; 0" style="shape=hexagon;perimeter=hexagonPerimeter2;whiteSpace=wrap;html=1;fixedSize=1;" vertex="1" parent="1">
          <mxGeometry x="217" y="270" width="82" height="50" as="geometry" />
        </mxCell>
        <mxCell id="UJuojZn0ztF3uc3kh5pN-93" style="edgeStyle=orthogonalEdgeStyle;rounded=0;orthogonalLoop=1;jettySize=auto;html=1;entryX=0;entryY=0.5;entryDx=0;entryDy=0;exitX=0.5;exitY=1;exitDx=0;exitDy=0;" edge="1" parent="1" source="UJuojZn0ztF3uc3kh5pN-51" target="UJuojZn0ztF3uc3kh5pN-87">
          <mxGeometry relative="1" as="geometry">
            <Array as="points">
              <mxPoint x="28" y="353" />
              <mxPoint x="30" y="353" />
              <mxPoint x="30" y="1360" />
            </Array>
          </mxGeometry>
        </mxCell>
        <mxCell id="UJuojZn0ztF3uc3kh5pN-51" value="tidak valid" style="shape=parallelogram;perimeter=parallelogramPerimeter;whiteSpace=wrap;html=1;fixedSize=1;" vertex="1" parent="1">
          <mxGeometry x="-20" y="330" width="96" height="45" as="geometry" />
        </mxCell>
        <mxCell id="UJuojZn0ztF3uc3kh5pN-59" value="" style="edgeStyle=orthogonalEdgeStyle;rounded=0;orthogonalLoop=1;jettySize=auto;html=1;" edge="1" parent="1" source="UJuojZn0ztF3uc3kh5pN-54" target="UJuojZn0ztF3uc3kh5pN-58">
          <mxGeometry relative="1" as="geometry" />
        </mxCell>
        <mxCell id="UJuojZn0ztF3uc3kh5pN-54" value="inisialisasi variable rendah = 0&lt;br&gt;tinggi = bil&lt;br&gt;hasil = bil" style="whiteSpace=wrap;html=1;" vertex="1" parent="1">
          <mxGeometry x="420" y="322.5" width="170" height="60" as="geometry" />
        </mxCell>
        <mxCell id="UJuojZn0ztF3uc3kh5pN-61" value="" style="edgeStyle=orthogonalEdgeStyle;rounded=0;orthogonalLoop=1;jettySize=auto;html=1;" edge="1" parent="1" source="UJuojZn0ztF3uc3kh5pN-58" target="UJuojZn0ztF3uc3kh5pN-60">
          <mxGeometry relative="1" as="geometry" />
        </mxCell>
        <mxCell id="UJuojZn0ztF3uc3kh5pN-86" value="" style="edgeStyle=orthogonalEdgeStyle;rounded=0;orthogonalLoop=1;jettySize=auto;html=1;" edge="1" parent="1" source="UJuojZn0ztF3uc3kh5pN-58" target="UJuojZn0ztF3uc3kh5pN-85">
          <mxGeometry relative="1" as="geometry">
            <Array as="points">
              <mxPoint x="290" y="429" />
              <mxPoint x="290" y="1295" />
            </Array>
          </mxGeometry>
        </mxCell>
        <mxCell id="UJuojZn0ztF3uc3kh5pN-58" value="rendah &amp;lt;= tinggi" style="shape=hexagon;perimeter=hexagonPerimeter2;whiteSpace=wrap;html=1;fixedSize=1;" vertex="1" parent="1">
          <mxGeometry x="445" y="410" width="120" height="37.5" as="geometry" />
        </mxCell>
        <mxCell id="UJuojZn0ztF3uc3kh5pN-63" value="" style="edgeStyle=orthogonalEdgeStyle;rounded=0;orthogonalLoop=1;jettySize=auto;html=1;" edge="1" parent="1" source="UJuojZn0ztF3uc3kh5pN-60" target="UJuojZn0ztF3uc3kh5pN-62">
          <mxGeometry relative="1" as="geometry" />
        </mxCell>
        <mxCell id="UJuojZn0ztF3uc3kh5pN-60" value="hitung tengah = (rendah + tinggi) / 2" style="whiteSpace=wrap;html=1;" vertex="1" parent="1">
          <mxGeometry x="402.5" y="480" width="205" height="60" as="geometry" />
        </mxCell>
        <mxCell id="UJuojZn0ztF3uc3kh5pN-65" value="" style="edgeStyle=orthogonalEdgeStyle;rounded=0;orthogonalLoop=1;jettySize=auto;html=1;" edge="1" parent="1" source="UJuojZn0ztF3uc3kh5pN-62" target="UJuojZn0ztF3uc3kh5pN-64">
          <mxGeometry relative="1" as="geometry" />
        </mxCell>
        <mxCell id="UJuojZn0ztF3uc3kh5pN-62" value="hitung kuadratTengah = tengah * tengah" style="whiteSpace=wrap;html=1;" vertex="1" parent="1">
          <mxGeometry x="393.75" y="580" width="222.5" height="50" as="geometry" />
        </mxCell>
        <mxCell id="UJuojZn0ztF3uc3kh5pN-67" value="" style="edgeStyle=orthogonalEdgeStyle;rounded=0;orthogonalLoop=1;jettySize=auto;html=1;" edge="1" parent="1" source="UJuojZn0ztF3uc3kh5pN-64" target="UJuojZn0ztF3uc3kh5pN-66">
          <mxGeometry relative="1" as="geometry" />
        </mxCell>
        <mxCell id="UJuojZn0ztF3uc3kh5pN-71" value="" style="edgeStyle=orthogonalEdgeStyle;rounded=0;orthogonalLoop=1;jettySize=auto;html=1;exitX=1;exitY=0.5;exitDx=0;exitDy=0;" edge="1" parent="1" source="UJuojZn0ztF3uc3kh5pN-64" target="UJuojZn0ztF3uc3kh5pN-70">
          <mxGeometry relative="1" as="geometry">
            <Array as="points">
              <mxPoint x="620" y="695" />
              <mxPoint x="620" y="950" />
              <mxPoint x="508" y="950" />
            </Array>
          </mxGeometry>
        </mxCell>
        <mxCell id="UJuojZn0ztF3uc3kh5pN-64" value="kuadratTengah = bil" style="shape=hexagon;perimeter=hexagonPerimeter2;whiteSpace=wrap;html=1;fixedSize=1;" vertex="1" parent="1">
          <mxGeometry x="442.5" y="670" width="125" height="50" as="geometry" />
        </mxCell>
        <mxCell id="UJuojZn0ztF3uc3kh5pN-69" value="" style="edgeStyle=orthogonalEdgeStyle;rounded=0;orthogonalLoop=1;jettySize=auto;html=1;" edge="1" parent="1" source="UJuojZn0ztF3uc3kh5pN-66" target="UJuojZn0ztF3uc3kh5pN-68">
          <mxGeometry relative="1" as="geometry" />
        </mxCell>
        <mxCell id="UJuojZn0ztF3uc3kh5pN-66" value="akar kuadrat dari bil" style="shape=parallelogram;perimeter=parallelogramPerimeter;whiteSpace=wrap;html=1;fixedSize=1;" vertex="1" parent="1">
          <mxGeometry x="432.5" y="770" width="145" height="55" as="geometry" />
        </mxCell>
        <mxCell id="UJuojZn0ztF3uc3kh5pN-68" value="end" style="ellipse;whiteSpace=wrap;html=1;" vertex="1" parent="1">
          <mxGeometry x="481.25" y="870" width="47.5" height="50" as="geometry" />
        </mxCell>
        <mxCell id="UJuojZn0ztF3uc3kh5pN-75" value="" style="edgeStyle=orthogonalEdgeStyle;rounded=0;orthogonalLoop=1;jettySize=auto;html=1;" edge="1" parent="1" source="UJuojZn0ztF3uc3kh5pN-70" target="UJuojZn0ztF3uc3kh5pN-74">
          <mxGeometry relative="1" as="geometry" />
        </mxCell>
        <mxCell id="UJuojZn0ztF3uc3kh5pN-77" value="" style="edgeStyle=orthogonalEdgeStyle;rounded=0;orthogonalLoop=1;jettySize=auto;html=1;exitX=1;exitY=0.5;exitDx=0;exitDy=0;" edge="1" parent="1" source="UJuojZn0ztF3uc3kh5pN-70" target="UJuojZn0ztF3uc3kh5pN-76">
          <mxGeometry relative="1" as="geometry" />
        </mxCell>
        <mxCell id="UJuojZn0ztF3uc3kh5pN-70" value="kuadratTengah &amp;lt; bil" style="shape=hexagon;perimeter=hexagonPerimeter2;whiteSpace=wrap;html=1;fixedSize=1;" vertex="1" parent="1">
          <mxGeometry x="435" y="990" width="142.5" height="50" as="geometry" />
        </mxCell>
        <mxCell id="UJuojZn0ztF3uc3kh5pN-79" value="" style="edgeStyle=orthogonalEdgeStyle;rounded=0;orthogonalLoop=1;jettySize=auto;html=1;" edge="1" parent="1" source="UJuojZn0ztF3uc3kh5pN-74" target="UJuojZn0ztF3uc3kh5pN-78">
          <mxGeometry relative="1" as="geometry" />
        </mxCell>
        <mxCell id="UJuojZn0ztF3uc3kh5pN-74" value="hasil = tengah" style="whiteSpace=wrap;html=1;" vertex="1" parent="1">
          <mxGeometry x="336.88" y="1060" width="86.25" height="45" as="geometry" />
        </mxCell>
        <mxCell id="UJuojZn0ztF3uc3kh5pN-82" style="edgeStyle=orthogonalEdgeStyle;rounded=0;orthogonalLoop=1;jettySize=auto;html=1;exitX=0.5;exitY=1;exitDx=0;exitDy=0;entryX=1;entryY=0.5;entryDx=0;entryDy=0;" edge="1" parent="1" source="UJuojZn0ztF3uc3kh5pN-76" target="UJuojZn0ztF3uc3kh5pN-80">
          <mxGeometry relative="1" as="geometry" />
        </mxCell>
        <mxCell id="UJuojZn0ztF3uc3kh5pN-76" value="tinggi = tengah - 1" style="whiteSpace=wrap;html=1;" vertex="1" parent="1">
          <mxGeometry x="581" y="1060.25" width="110" height="45" as="geometry" />
        </mxCell>
        <mxCell id="UJuojZn0ztF3uc3kh5pN-81" style="edgeStyle=orthogonalEdgeStyle;rounded=0;orthogonalLoop=1;jettySize=auto;html=1;entryX=0;entryY=0.5;entryDx=0;entryDy=0;exitX=0.5;exitY=1;exitDx=0;exitDy=0;" edge="1" parent="1" source="UJuojZn0ztF3uc3kh5pN-78" target="UJuojZn0ztF3uc3kh5pN-80">
          <mxGeometry relative="1" as="geometry" />
        </mxCell>
        <mxCell id="UJuojZn0ztF3uc3kh5pN-78" value="rendah = tengah + 1" style="whiteSpace=wrap;html=1;" vertex="1" parent="1">
          <mxGeometry x="322.51" y="1140" width="115" height="50" as="geometry" />
        </mxCell>
        <mxCell id="UJuojZn0ztF3uc3kh5pN-83" style="edgeStyle=orthogonalEdgeStyle;rounded=0;orthogonalLoop=1;jettySize=auto;html=1;entryX=1;entryY=0.5;entryDx=0;entryDy=0;" edge="1" parent="1" source="UJuojZn0ztF3uc3kh5pN-80" target="UJuojZn0ztF3uc3kh5pN-58">
          <mxGeometry relative="1" as="geometry">
            <Array as="points">
              <mxPoint x="506" y="1250" />
              <mxPoint x="720" y="1250" />
              <mxPoint x="720" y="429" />
            </Array>
          </mxGeometry>
        </mxCell>
        <mxCell id="UJuojZn0ztF3uc3kh5pN-80" value="" style="rhombus;whiteSpace=wrap;html=1;" vertex="1" parent="1">
          <mxGeometry x="486.25" y="1190" width="40" height="40" as="geometry" />
        </mxCell>
        <mxCell id="UJuojZn0ztF3uc3kh5pN-88" value="" style="edgeStyle=orthogonalEdgeStyle;rounded=0;orthogonalLoop=1;jettySize=auto;html=1;" edge="1" parent="1" source="UJuojZn0ztF3uc3kh5pN-85" target="UJuojZn0ztF3uc3kh5pN-87">
          <mxGeometry relative="1" as="geometry">
            <Array as="points">
              <mxPoint x="508" y="1360" />
            </Array>
          </mxGeometry>
        </mxCell>
        <mxCell id="UJuojZn0ztF3uc3kh5pN-85" value="hasil pembulatan bawah dari akar kuadrat" style="shape=parallelogram;perimeter=parallelogramPerimeter;whiteSpace=wrap;html=1;fixedSize=1;" vertex="1" parent="1">
          <mxGeometry x="373.13" y="1270" width="266.25" height="50" as="geometry" />
        </mxCell>
        <mxCell id="UJuojZn0ztF3uc3kh5pN-97" value="" style="edgeStyle=orthogonalEdgeStyle;rounded=0;orthogonalLoop=1;jettySize=auto;html=1;" edge="1" parent="1" source="UJuojZn0ztF3uc3kh5pN-87" target="UJuojZn0ztF3uc3kh5pN-96">
          <mxGeometry relative="1" as="geometry" />
        </mxCell>
        <mxCell id="UJuojZn0ztF3uc3kh5pN-87" value="" style="rhombus;whiteSpace=wrap;html=1;" vertex="1" parent="1">
          <mxGeometry x="242.5" y="1340" width="40" height="40" as="geometry" />
        </mxCell>
        <mxCell id="UJuojZn0ztF3uc3kh5pN-96" value="end" style="ellipse;whiteSpace=wrap;html=1;" vertex="1" parent="1">
          <mxGeometry x="238.75" y="1410" width="47.5" height="50" as="geometry" />
        </mxCell>
        <mxCell id="UJuojZn0ztF3uc3kh5pN-99" value="ya" style="text;html=1;align=center;verticalAlign=middle;resizable=0;points=[];autosize=1;strokeColor=none;fillColor=none;" vertex="1" parent="1">
          <mxGeometry x="130" y="268" width="40" height="30" as="geometry" />
        </mxCell>
        <mxCell id="UJuojZn0ztF3uc3kh5pN-100" value="tidak" style="text;html=1;align=center;verticalAlign=middle;resizable=0;points=[];autosize=1;strokeColor=none;fillColor=none;" vertex="1" parent="1">
          <mxGeometry x="365" y="268" width="50" height="30" as="geometry" />
        </mxCell>
        <mxCell id="UJuojZn0ztF3uc3kh5pN-101" value="ya" style="text;html=1;align=center;verticalAlign=middle;resizable=0;points=[];autosize=1;strokeColor=none;fillColor=none;" vertex="1" parent="1">
          <mxGeometry x="500" y="728" width="40" height="30" as="geometry" />
        </mxCell>
        <mxCell id="UJuojZn0ztF3uc3kh5pN-102" value="ya" style="text;html=1;align=center;verticalAlign=middle;resizable=0;points=[];autosize=1;strokeColor=none;fillColor=none;" vertex="1" parent="1">
          <mxGeometry x="370" y="980" width="40" height="30" as="geometry" />
        </mxCell>
        <mxCell id="UJuojZn0ztF3uc3kh5pN-103" value="tidak" style="text;html=1;align=center;verticalAlign=middle;resizable=0;points=[];autosize=1;strokeColor=none;fillColor=none;" vertex="1" parent="1">
          <mxGeometry x="589.38" y="980" width="50" height="30" as="geometry" />
        </mxCell>
      </root>
    </mxGraphModel>
  </diagram>
  <diagram id="KhArWbUXD9JkZ7bJMCmU" name="Page-7">
    <mxGraphModel dx="958" dy="422" grid="1" gridSize="10" guides="1" tooltips="1" connect="1" arrows="1" fold="1" page="1" pageScale="1" pageWidth="850" pageHeight="1100" math="0" shadow="0">
      <root>
        <mxCell id="0" />
        <mxCell id="1" parent="0" />
        <UserObject label="" plantUmlData="{&#xa;  &quot;data&quot;: &quot;@startuml\nstart\n:Masukkan bilangan dan pangkat;\n:Inisialisasi hasil = 1;\n:Inisialisasi counter = 1;\nrepeat\n  :Perkalian hasil dengan bilangan;\n  :Counter++;\nrepeat while (counter &lt;= pangkat)\n:Hasil adalah hasil perkalian;\nstop\n@enduml\n&quot;,&#xa;  &quot;format&quot;: &quot;svg&quot;&#xa;}" id="C7uulSaAhwcmvqAQ8XRf-1">
          <mxCell style="shape=image;noLabel=1;verticalAlign=top;aspect=fixed;imageAspect=0;image=data:image/svg+xml,PD94bWwgdmVyc2lvbj0iMS4wIiBlbmNvZGluZz0idXMtYXNjaWkiIHN0YW5kYWxvbmU9Im5vIj8+PHN2ZyB4bWxucz0iaHR0cDovL3d3dy53My5vcmcvMjAwMC9zdmciIHhtbG5zOnhsaW5rPSJodHRwOi8vd3d3LnczLm9yZy8xOTk5L3hsaW5rIiBjb250ZW50U3R5bGVUeXBlPSJ0ZXh0L2NzcyIgaGVpZ2h0PSI0OTVweCIgcHJlc2VydmVBc3BlY3RSYXRpbz0ibm9uZSIgc3R5bGU9IndpZHRoOjI3NnB4O2hlaWdodDo0OTVweDtiYWNrZ3JvdW5kOiNGRkZGRkY7IiB2ZXJzaW9uPSIxLjEiIHZpZXdCb3g9IjAgMCAyNzYgNDk1IiB3aWR0aD0iMjc2cHgiIHpvb21BbmRQYW49Im1hZ25pZnkiPjxkZWZzLz48Zz48ZWxsaXBzZSBjeD0iMTI0LjUiIGN5PSIyMCIgZmlsbD0iIzIyMjIyMiIgcng9IjEwIiByeT0iMTAiIHN0eWxlPSJzdHJva2U6IzIyMjIyMjtzdHJva2Utd2lkdGg6MS4wOyIvPjxyZWN0IGZpbGw9IiNGMUYxRjEiIGhlaWdodD0iMzIuODQzOCIgcng9IjEyLjUiIHJ5PSIxMi41IiBzdHlsZT0ic3Ryb2tlOiMxODE4MTg7c3Ryb2tlLXdpZHRoOjAuNTsiIHdpZHRoPSIyMTQiIHg9IjE3LjUiIHk9IjUwIi8+PHRleHQgZmlsbD0iIzAwMDAwMCIgZm9udC1mYW1pbHk9InNhbnMtc2VyaWYiIGZvbnQtc2l6ZT0iMTIiIGxlbmd0aEFkanVzdD0ic3BhY2luZyIgdGV4dExlbmd0aD0iMTk0IiB4PSIyNy41IiB5PSI3MS4zNDM4Ij5NYXN1a2thbiBiaWxhbmdhbiBkYW4gcGFuZ2thdDwvdGV4dD48cmVjdCBmaWxsPSIjRjFGMUYxIiBoZWlnaHQ9IjMyLjg0MzgiIHJ4PSIxMi41IiByeT0iMTIuNSIgc3R5bGU9InN0cm9rZTojMTgxODE4O3N0cm9rZS13aWR0aDowLjU7IiB3aWR0aD0iMTYxIiB4PSI0NCIgeT0iMTAyLjg0MzgiLz48dGV4dCBmaWxsPSIjMDAwMDAwIiBmb250LWZhbWlseT0ic2Fucy1zZXJpZiIgZm9udC1zaXplPSIxMiIgbGVuZ3RoQWRqdXN0PSJzcGFjaW5nIiB0ZXh0TGVuZ3RoPSIxNDEiIHg9IjU0IiB5PSIxMjQuMTg3NSI+SW5pc2lhbGlzYXNpIGhhc2lsID0gMTwvdGV4dD48cmVjdCBmaWxsPSIjRjFGMUYxIiBoZWlnaHQ9IjMyLjg0MzgiIHJ4PSIxMi41IiByeT0iMTIuNSIgc3R5bGU9InN0cm9rZTojMTgxODE4O3N0cm9rZS13aWR0aDowLjU7IiB3aWR0aD0iMTc1IiB4PSIzNyIgeT0iMTU1LjY4NzUiLz48dGV4dCBmaWxsPSIjMDAwMDAwIiBmb250LWZhbWlseT0ic2Fucy1zZXJpZiIgZm9udC1zaXplPSIxMiIgbGVuZ3RoQWRqdXN0PSJzcGFjaW5nIiB0ZXh0TGVuZ3RoPSIxNTUiIHg9IjQ3IiB5PSIxNzcuMDMxMyI+SW5pc2lhbGlzYXNpIGNvdW50ZXIgPSAxPC90ZXh0PjxyZWN0IGZpbGw9IiNGMUYxRjEiIGhlaWdodD0iMzIuODQzOCIgcng9IjEyLjUiIHJ5PSIxMi41IiBzdHlsZT0ic3Ryb2tlOiMxODE4MTg7c3Ryb2tlLXdpZHRoOjAuNTsiIHdpZHRoPSIyMjciIHg9IjExIiB5PSIyNTIuNTMxMyIvPjx0ZXh0IGZpbGw9IiMwMDAwMDAiIGZvbnQtZmFtaWx5PSJzYW5zLXNlcmlmIiBmb250LXNpemU9IjEyIiBsZW5ndGhBZGp1c3Q9InNwYWNpbmciIHRleHRMZW5ndGg9IjIwNyIgeD0iMjEiIHk9IjI3My44NzUiPlBlcmthbGlhbiBoYXNpbCBkZW5nYW4gYmlsYW5nYW48L3RleHQ+PHJlY3QgZmlsbD0iI0YxRjFGMSIgaGVpZ2h0PSIzMi44NDM4IiByeD0iMTIuNSIgcnk9IjEyLjUiIHN0eWxlPSJzdHJva2U6IzE4MTgxODtzdHJva2Utd2lkdGg6MC41OyIgd2lkdGg9IjgwIiB4PSI4NC41IiB5PSIzMTIuODc1Ii8+PHRleHQgZmlsbD0iIzAwMDAwMCIgZm9udC1mYW1pbHk9InNhbnMtc2VyaWYiIGZvbnQtc2l6ZT0iMTIiIGxlbmd0aEFkanVzdD0ic3BhY2luZyIgdGV4dExlbmd0aD0iNjAiIHg9Ijk0LjUiIHk9IjMzNC4yMTg4Ij5Db3VudGVyKys8L3RleHQ+PHBvbHlnb24gZmlsbD0iI0YxRjFGMSIgcG9pbnRzPSIxMjQuNSwyMDguNTMxMywxMzYuNSwyMjAuNTMxMywxMjQuNSwyMzIuNTMxMywxMTIuNSwyMjAuNTMxMywxMjQuNSwyMDguNTMxMyIgc3R5bGU9InN0cm9rZTojMTgxODE4O3N0cm9rZS13aWR0aDowLjU7Ii8+PHBvbHlnb24gZmlsbD0iI0YxRjFGMSIgcG9pbnRzPSI3MC41LDM2NS43MTg4LDE3OC41LDM2NS43MTg4LDE5MC41LDM3Ny43MTg4LDE3OC41LDM4OS43MTg4LDcwLjUsMzg5LjcxODgsNTguNSwzNzcuNzE4OCw3MC41LDM2NS43MTg4IiBzdHlsZT0ic3Ryb2tlOiMxODE4MTg7c3Ryb2tlLXdpZHRoOjAuNTsiLz48dGV4dCBmaWxsPSIjMDAwMDAwIiBmb250LWZhbWlseT0ic2Fucy1zZXJpZiIgZm9udC1zaXplPSIxMSIgbGVuZ3RoQWRqdXN0PSJzcGFjaW5nIiB0ZXh0TGVuZ3RoPSIxMDgiIHg9IjcwLjUiIHk9IjM4Mi4yMzA1Ij5jb3VudGVyICZsdDs9IHBhbmdrYXQ8L3RleHQ+PHJlY3QgZmlsbD0iI0YxRjFGMSIgaGVpZ2h0PSIzMi44NDM4IiByeD0iMTIuNSIgcnk9IjEyLjUiIHN0eWxlPSJzdHJva2U6IzE4MTgxODtzdHJva2Utd2lkdGg6MC41OyIgd2lkdGg9IjIwNSIgeD0iMjIiIHk9IjQwOS43MTg4Ii8+PHRleHQgZmlsbD0iIzAwMDAwMCIgZm9udC1mYW1pbHk9InNhbnMtc2VyaWYiIGZvbnQtc2l6ZT0iMTIiIGxlbmd0aEFkanVzdD0ic3BhY2luZyIgdGV4dExlbmd0aD0iMTg1IiB4PSIzMiIgeT0iNDMxLjA2MjUiPkhhc2lsIGFkYWxhaCBoYXNpbCBwZXJrYWxpYW48L3RleHQ+PGVsbGlwc2UgY3g9IjEyNC41IiBjeT0iNDczLjU2MjUiIGZpbGw9Im5vbmUiIHJ4PSIxMSIgcnk9IjExIiBzdHlsZT0ic3Ryb2tlOiMyMjIyMjI7c3Ryb2tlLXdpZHRoOjEuMDsiLz48ZWxsaXBzZSBjeD0iMTI0LjUiIGN5PSI0NzMuNTYyNSIgZmlsbD0iIzIyMjIyMiIgcng9IjYiIHJ5PSI2IiBzdHlsZT0ic3Ryb2tlOiMyMjIyMjI7c3Ryb2tlLXdpZHRoOjEuMDsiLz48bGluZSBzdHlsZT0ic3Ryb2tlOiMxODE4MTg7c3Ryb2tlLXdpZHRoOjEuMDsiIHgxPSIxMjQuNSIgeDI9IjEyNC41IiB5MT0iMzAiIHkyPSI1MCIvPjxwb2x5Z29uIGZpbGw9IiMxODE4MTgiIHBvaW50cz0iMTIwLjUsNDAsMTI0LjUsNTAsMTI4LjUsNDAsMTI0LjUsNDQiIHN0eWxlPSJzdHJva2U6IzE4MTgxODtzdHJva2Utd2lkdGg6MS4wOyIvPjxsaW5lIHN0eWxlPSJzdHJva2U6IzE4MTgxODtzdHJva2Utd2lkdGg6MS4wOyIgeDE9IjEyNC41IiB4Mj0iMTI0LjUiIHkxPSI4Mi44NDM4IiB5Mj0iMTAyLjg0MzgiLz48cG9seWdvbiBmaWxsPSIjMTgxODE4IiBwb2ludHM9IjEyMC41LDkyLjg0MzgsMTI0LjUsMTAyLjg0MzgsMTI4LjUsOTIuODQzOCwxMjQuNSw5Ni44NDM4IiBzdHlsZT0ic3Ryb2tlOiMxODE4MTg7c3Ryb2tlLXdpZHRoOjEuMDsiLz48bGluZSBzdHlsZT0ic3Ryb2tlOiMxODE4MTg7c3Ryb2tlLXdpZHRoOjEuMDsiIHgxPSIxMjQuNSIgeDI9IjEyNC41IiB5MT0iMTM1LjY4NzUiIHkyPSIxNTUuNjg3NSIvPjxwb2x5Z29uIGZpbGw9IiMxODE4MTgiIHBvaW50cz0iMTIwLjUsMTQ1LjY4NzUsMTI0LjUsMTU1LjY4NzUsMTI4LjUsMTQ1LjY4NzUsMTI0LjUsMTQ5LjY4NzUiIHN0eWxlPSJzdHJva2U6IzE4MTgxODtzdHJva2Utd2lkdGg6MS4wOyIvPjxsaW5lIHN0eWxlPSJzdHJva2U6IzE4MTgxODtzdHJva2Utd2lkdGg6MS4wOyIgeDE9IjEyNC41IiB4Mj0iMTI0LjUiIHkxPSIyODUuMzc1IiB5Mj0iMzEyLjg3NSIvPjxwb2x5Z29uIGZpbGw9IiMxODE4MTgiIHBvaW50cz0iMTIwLjUsMzAyLjg3NSwxMjQuNSwzMTIuODc1LDEyOC41LDMwMi44NzUsMTI0LjUsMzA2Ljg3NSIgc3R5bGU9InN0cm9rZTojMTgxODE4O3N0cm9rZS13aWR0aDoxLjA7Ii8+PGxpbmUgc3R5bGU9InN0cm9rZTojMTgxODE4O3N0cm9rZS13aWR0aDoxLjA7IiB4MT0iMTI0LjUiIHgyPSIxMjQuNSIgeTE9IjIzMi41MzEzIiB5Mj0iMjUyLjUzMTMiLz48cG9seWdvbiBmaWxsPSIjMTgxODE4IiBwb2ludHM9IjEyMC41LDI0Mi41MzEzLDEyNC41LDI1Mi41MzEzLDEyOC41LDI0Mi41MzEzLDEyNC41LDI0Ni41MzEzIiBzdHlsZT0ic3Ryb2tlOiMxODE4MTg7c3Ryb2tlLXdpZHRoOjEuMDsiLz48bGluZSBzdHlsZT0ic3Ryb2tlOiMxODE4MTg7c3Ryb2tlLXdpZHRoOjEuMDsiIHgxPSIxOTAuNSIgeDI9IjI1MCIgeTE9IjM3Ny43MTg4IiB5Mj0iMzc3LjcxODgiLz48cG9seWdvbiBmaWxsPSIjMTgxODE4IiBwb2ludHM9IjI0NiwzMDUuMzc1LDI1MCwyOTUuMzc1LDI1NCwzMDUuMzc1LDI1MCwzMDEuMzc1IiBzdHlsZT0ic3Ryb2tlOiMxODE4MTg7c3Ryb2tlLXdpZHRoOjEuMDsiLz48bGluZSBzdHlsZT0ic3Ryb2tlOiMxODE4MTg7c3Ryb2tlLXdpZHRoOjEuMDsiIHgxPSIyNTAiIHgyPSIyNTAiIHkxPSIyMjAuNTMxMyIgeTI9IjM3Ny43MTg4Ii8+PGxpbmUgc3R5bGU9InN0cm9rZTojMTgxODE4O3N0cm9rZS13aWR0aDoxLjA7IiB4MT0iMjUwIiB4Mj0iMTM2LjUiIHkxPSIyMjAuNTMxMyIgeTI9IjIyMC41MzEzIi8+PHBvbHlnb24gZmlsbD0iIzE4MTgxOCIgcG9pbnRzPSIxNDYuNSwyMTYuNTMxMywxMzYuNSwyMjAuNTMxMywxNDYuNSwyMjQuNTMxMywxNDIuNSwyMjAuNTMxMyIgc3R5bGU9InN0cm9rZTojMTgxODE4O3N0cm9rZS13aWR0aDoxLjA7Ii8+PGxpbmUgc3R5bGU9InN0cm9rZTojMTgxODE4O3N0cm9rZS13aWR0aDoxLjA7IiB4MT0iMTI0LjUiIHgyPSIxMjQuNSIgeTE9IjM0NS43MTg4IiB5Mj0iMzY1LjcxODgiLz48cG9seWdvbiBmaWxsPSIjMTgxODE4IiBwb2ludHM9IjEyMC41LDM1NS43MTg4LDEyNC41LDM2NS43MTg4LDEyOC41LDM1NS43MTg4LDEyNC41LDM1OS43MTg4IiBzdHlsZT0ic3Ryb2tlOiMxODE4MTg7c3Ryb2tlLXdpZHRoOjEuMDsiLz48bGluZSBzdHlsZT0ic3Ryb2tlOiMxODE4MTg7c3Ryb2tlLXdpZHRoOjEuMDsiIHgxPSIxMjQuNSIgeDI9IjEyNC41IiB5MT0iMTg4LjUzMTMiIHkyPSIyMDguNTMxMyIvPjxwb2x5Z29uIGZpbGw9IiMxODE4MTgiIHBvaW50cz0iMTIwLjUsMTk4LjUzMTMsMTI0LjUsMjA4LjUzMTMsMTI4LjUsMTk4LjUzMTMsMTI0LjUsMjAyLjUzMTMiIHN0eWxlPSJzdHJva2U6IzE4MTgxODtzdHJva2Utd2lkdGg6MS4wOyIvPjxsaW5lIHN0eWxlPSJzdHJva2U6IzE4MTgxODtzdHJva2Utd2lkdGg6MS4wOyIgeDE9IjEyNC41IiB4Mj0iMTI0LjUiIHkxPSIzODkuNzE4OCIgeTI9IjQwOS43MTg4Ii8+PHBvbHlnb24gZmlsbD0iIzE4MTgxOCIgcG9pbnRzPSIxMjAuNSwzOTkuNzE4OCwxMjQuNSw0MDkuNzE4OCwxMjguNSwzOTkuNzE4OCwxMjQuNSw0MDMuNzE4OCIgc3R5bGU9InN0cm9rZTojMTgxODE4O3N0cm9rZS13aWR0aDoxLjA7Ii8+PGxpbmUgc3R5bGU9InN0cm9rZTojMTgxODE4O3N0cm9rZS13aWR0aDoxLjA7IiB4MT0iMTI0LjUiIHgyPSIxMjQuNSIgeTE9IjQ0Mi41NjI1IiB5Mj0iNDYyLjU2MjUiLz48cG9seWdvbiBmaWxsPSIjMTgxODE4IiBwb2ludHM9IjEyMC41LDQ1Mi41NjI1LDEyNC41LDQ2Mi41NjI1LDEyOC41LDQ1Mi41NjI1LDEyNC41LDQ1Ni41NjI1IiBzdHlsZT0ic3Ryb2tlOiMxODE4MTg7c3Ryb2tlLXdpZHRoOjEuMDsiLz48IS0tU1JDPVtOT3duM2k4bTM0SnRWOEw3SzJWTVg0dWlDMjNuMnVQNG40Z0tIaDZoX1p3YzhHazNCS2p0enl1aXNDSk9FX0FRNFhQdUtpUm9yaUZoTDNxSllaRnNMZVc5Q3A0b0dUSUxPT1JKbF8xUXJZQVhUUWM1NmIwQ1c3czRiaklZbTl4cU9NeU9MVXhoa1ZKZUQ4cVdSOTVvV0NEV2RrVm5wajdPd3l2MVpuZFozcmY3WUpDaUlfcTBdLS0+PC9nPjwvc3ZnPg==;" vertex="1" parent="1">
            <mxGeometry x="270" y="50" width="150.55" height="270" as="geometry" />
          </mxCell>
        </UserObject>
        <UserObject label="" plantUmlData="{&#xa;  &quot;data&quot;: &quot;@startuml\nstart\n:Masukkan bilangan dan pangkat;\nif (Pangkat = 0) then (ya)\n  :Hasil = 1;\nelse (tidak)\n  :Hasil = PangkatDivideConquer(Bilangan, Pangkat);\nendif\n:Output hasil;\nstop\n@enduml\n&quot;,&#xa;  &quot;format&quot;: &quot;svg&quot;&#xa;}" id="C7uulSaAhwcmvqAQ8XRf-2">
          <mxCell style="shape=image;noLabel=1;verticalAlign=top;aspect=fixed;imageAspect=0;image=data:image/svg+xml,PD94bWwgdmVyc2lvbj0iMS4wIiBlbmNvZGluZz0idXMtYXNjaWkiIHN0YW5kYWxvbmU9Im5vIj8+PHN2ZyB4bWxucz0iaHR0cDovL3d3dy53My5vcmcvMjAwMC9zdmciIHhtbG5zOnhsaW5rPSJodHRwOi8vd3d3LnczLm9yZy8xOTk5L3hsaW5rIiBjb250ZW50U3R5bGVUeXBlPSJ0ZXh0L2NzcyIgaGVpZ2h0PSIzMDVweCIgcHJlc2VydmVBc3BlY3RSYXRpbz0ibm9uZSIgc3R5bGU9IndpZHRoOjQ1MXB4O2hlaWdodDozMDVweDtiYWNrZ3JvdW5kOiNGRkZGRkY7IiB2ZXJzaW9uPSIxLjEiIHZpZXdCb3g9IjAgMCA0NTEgMzA1IiB3aWR0aD0iNDUxcHgiIHpvb21BbmRQYW49Im1hZ25pZnkiPjxkZWZzLz48Zz48ZWxsaXBzZSBjeD0iMTYxLjc1IiBjeT0iMjAiIGZpbGw9IiMyMjIyMjIiIHJ4PSIxMCIgcnk9IjEwIiBzdHlsZT0ic3Ryb2tlOiMyMjIyMjI7c3Ryb2tlLXdpZHRoOjEuMDsiLz48cmVjdCBmaWxsPSIjRjFGMUYxIiBoZWlnaHQ9IjMyLjg0MzgiIHJ4PSIxMi41IiByeT0iMTIuNSIgc3R5bGU9InN0cm9rZTojMTgxODE4O3N0cm9rZS13aWR0aDowLjU7IiB3aWR0aD0iMjE0IiB4PSI1NC43NSIgeT0iNTAiLz48dGV4dCBmaWxsPSIjMDAwMDAwIiBmb250LWZhbWlseT0ic2Fucy1zZXJpZiIgZm9udC1zaXplPSIxMiIgbGVuZ3RoQWRqdXN0PSJzcGFjaW5nIiB0ZXh0TGVuZ3RoPSIxOTQiIHg9IjY0Ljc1IiB5PSI3MS4zNDM4Ij5NYXN1a2thbiBiaWxhbmdhbiBkYW4gcGFuZ2thdDwvdGV4dD48cG9seWdvbiBmaWxsPSIjRjFGMUYxIiBwb2ludHM9IjEyOC43NSwxMDIuODQzOCwxOTQuNzUsMTAyLjg0MzgsMjA2Ljc1LDExNC44NDM4LDE5NC43NSwxMjYuODQzOCwxMjguNzUsMTI2Ljg0MzgsMTE2Ljc1LDExNC44NDM4LDEyOC43NSwxMDIuODQzOCIgc3R5bGU9InN0cm9rZTojMTgxODE4O3N0cm9rZS13aWR0aDowLjU7Ii8+PHRleHQgZmlsbD0iIzAwMDAwMCIgZm9udC1mYW1pbHk9InNhbnMtc2VyaWYiIGZvbnQtc2l6ZT0iMTEiIGxlbmd0aEFkanVzdD0ic3BhY2luZyIgdGV4dExlbmd0aD0iNjYiIHg9IjEyOC43NSIgeT0iMTE5LjM1NTUiPlBhbmdrYXQgPSAwPC90ZXh0Pjx0ZXh0IGZpbGw9IiMwMDAwMDAiIGZvbnQtZmFtaWx5PSJzYW5zLXNlcmlmIiBmb250LXNpemU9IjExIiBsZW5ndGhBZGp1c3Q9InNwYWNpbmciIHRleHRMZW5ndGg9IjEyIiB4PSIxMDQuNzUiIHk9IjExMy40Njg4Ij55YTwvdGV4dD48dGV4dCBmaWxsPSIjMDAwMDAwIiBmb250LWZhbWlseT0ic2Fucy1zZXJpZiIgZm9udC1zaXplPSIxMSIgbGVuZ3RoQWRqdXN0PSJzcGFjaW5nIiB0ZXh0TGVuZ3RoPSIzMCIgeD0iMjA2Ljc1IiB5PSIxMTMuNDY4OCI+dGlkYWs8L3RleHQ+PHJlY3QgZmlsbD0iI0YxRjFGMSIgaGVpZ2h0PSIzMi44NDM4IiByeD0iMTIuNSIgcnk9IjEyLjUiIHN0eWxlPSJzdHJva2U6IzE4MTgxODtzdHJva2Utd2lkdGg6MC41OyIgd2lkdGg9Ijc3IiB4PSIxMSIgeT0iMTM2Ljg0MzgiLz48dGV4dCBmaWxsPSIjMDAwMDAwIiBmb250LWZhbWlseT0ic2Fucy1zZXJpZiIgZm9udC1zaXplPSIxMiIgbGVuZ3RoQWRqdXN0PSJzcGFjaW5nIiB0ZXh0TGVuZ3RoPSI1NyIgeD0iMjEiIHk9IjE1OC4xODc1Ij5IYXNpbCA9IDE8L3RleHQ+PHJlY3QgZmlsbD0iI0YxRjFGMSIgaGVpZ2h0PSIzMi44NDM4IiByeD0iMTIuNSIgcnk9IjEyLjUiIHN0eWxlPSJzdHJva2U6IzE4MTgxODtzdHJva2Utd2lkdGg6MC41OyIgd2lkdGg9IjMzMiIgeD0iMTA4IiB5PSIxMzYuODQzOCIvPjx0ZXh0IGZpbGw9IiMwMDAwMDAiIGZvbnQtZmFtaWx5PSJzYW5zLXNlcmlmIiBmb250LXNpemU9IjEyIiBsZW5ndGhBZGp1c3Q9InNwYWNpbmciIHRleHRMZW5ndGg9IjMxMiIgeD0iMTE4IiB5PSIxNTguMTg3NSI+SGFzaWwgPSBQYW5na2F0RGl2aWRlQ29ucXVlcihCaWxhbmdhbiwgUGFuZ2thdCk8L3RleHQ+PHBvbHlnb24gZmlsbD0iI0YxRjFGMSIgcG9pbnRzPSIxNjEuNzUsMTc1LjY4NzUsMTczLjc1LDE4Ny42ODc1LDE2MS43NSwxOTkuNjg3NSwxNDkuNzUsMTg3LjY4NzUsMTYxLjc1LDE3NS42ODc1IiBzdHlsZT0ic3Ryb2tlOiMxODE4MTg7c3Ryb2tlLXdpZHRoOjAuNTsiLz48cmVjdCBmaWxsPSIjRjFGMUYxIiBoZWlnaHQ9IjMyLjg0MzgiIHJ4PSIxMi41IiByeT0iMTIuNSIgc3R5bGU9InN0cm9rZTojMTgxODE4O3N0cm9rZS13aWR0aDowLjU7IiB3aWR0aD0iOTkiIHg9IjExMi4yNSIgeT0iMjE5LjY4NzUiLz48dGV4dCBmaWxsPSIjMDAwMDAwIiBmb250LWZhbWlseT0ic2Fucy1zZXJpZiIgZm9udC1zaXplPSIxMiIgbGVuZ3RoQWRqdXN0PSJzcGFjaW5nIiB0ZXh0TGVuZ3RoPSI3OSIgeD0iMTIyLjI1IiB5PSIyNDEuMDMxMyI+T3V0cHV0IGhhc2lsPC90ZXh0PjxlbGxpcHNlIGN4PSIxNjEuNzUiIGN5PSIyODMuNTMxMyIgZmlsbD0ibm9uZSIgcng9IjExIiByeT0iMTEiIHN0eWxlPSJzdHJva2U6IzIyMjIyMjtzdHJva2Utd2lkdGg6MS4wOyIvPjxlbGxpcHNlIGN4PSIxNjEuNzUiIGN5PSIyODMuNTMxMyIgZmlsbD0iIzIyMjIyMiIgcng9IjYiIHJ5PSI2IiBzdHlsZT0ic3Ryb2tlOiMyMjIyMjI7c3Ryb2tlLXdpZHRoOjEuMDsiLz48bGluZSBzdHlsZT0ic3Ryb2tlOiMxODE4MTg7c3Ryb2tlLXdpZHRoOjEuMDsiIHgxPSIxNjEuNzUiIHgyPSIxNjEuNzUiIHkxPSIzMCIgeTI9IjUwIi8+PHBvbHlnb24gZmlsbD0iIzE4MTgxOCIgcG9pbnRzPSIxNTcuNzUsNDAsMTYxLjc1LDUwLDE2NS43NSw0MCwxNjEuNzUsNDQiIHN0eWxlPSJzdHJva2U6IzE4MTgxODtzdHJva2Utd2lkdGg6MS4wOyIvPjxsaW5lIHN0eWxlPSJzdHJva2U6IzE4MTgxODtzdHJva2Utd2lkdGg6MS4wOyIgeDE9IjExNi43NSIgeDI9IjQ5LjUiIHkxPSIxMTQuODQzOCIgeTI9IjExNC44NDM4Ii8+PGxpbmUgc3R5bGU9InN0cm9rZTojMTgxODE4O3N0cm9rZS13aWR0aDoxLjA7IiB4MT0iNDkuNSIgeDI9IjQ5LjUiIHkxPSIxMTQuODQzOCIgeTI9IjEzNi44NDM4Ii8+PHBvbHlnb24gZmlsbD0iIzE4MTgxOCIgcG9pbnRzPSI0NS41LDEyNi44NDM4LDQ5LjUsMTM2Ljg0MzgsNTMuNSwxMjYuODQzOCw0OS41LDEzMC44NDM4IiBzdHlsZT0ic3Ryb2tlOiMxODE4MTg7c3Ryb2tlLXdpZHRoOjEuMDsiLz48bGluZSBzdHlsZT0ic3Ryb2tlOiMxODE4MTg7c3Ryb2tlLXdpZHRoOjEuMDsiIHgxPSIyMDYuNzUiIHgyPSIyNzQiIHkxPSIxMTQuODQzOCIgeTI9IjExNC44NDM4Ii8+PGxpbmUgc3R5bGU9InN0cm9rZTojMTgxODE4O3N0cm9rZS13aWR0aDoxLjA7IiB4MT0iMjc0IiB4Mj0iMjc0IiB5MT0iMTE0Ljg0MzgiIHkyPSIxMzYuODQzOCIvPjxwb2x5Z29uIGZpbGw9IiMxODE4MTgiIHBvaW50cz0iMjcwLDEyNi44NDM4LDI3NCwxMzYuODQzOCwyNzgsMTI2Ljg0MzgsMjc0LDEzMC44NDM4IiBzdHlsZT0ic3Ryb2tlOiMxODE4MTg7c3Ryb2tlLXdpZHRoOjEuMDsiLz48bGluZSBzdHlsZT0ic3Ryb2tlOiMxODE4MTg7c3Ryb2tlLXdpZHRoOjEuMDsiIHgxPSI0OS41IiB4Mj0iNDkuNSIgeTE9IjE2OS42ODc1IiB5Mj0iMTg3LjY4NzUiLz48bGluZSBzdHlsZT0ic3Ryb2tlOiMxODE4MTg7c3Ryb2tlLXdpZHRoOjEuMDsiIHgxPSI0OS41IiB4Mj0iMTQ5Ljc1IiB5MT0iMTg3LjY4NzUiIHkyPSIxODcuNjg3NSIvPjxwb2x5Z29uIGZpbGw9IiMxODE4MTgiIHBvaW50cz0iMTM5Ljc1LDE4My42ODc1LDE0OS43NSwxODcuNjg3NSwxMzkuNzUsMTkxLjY4NzUsMTQzLjc1LDE4Ny42ODc1IiBzdHlsZT0ic3Ryb2tlOiMxODE4MTg7c3Ryb2tlLXdpZHRoOjEuMDsiLz48bGluZSBzdHlsZT0ic3Ryb2tlOiMxODE4MTg7c3Ryb2tlLXdpZHRoOjEuMDsiIHgxPSIyNzQiIHgyPSIyNzQiIHkxPSIxNjkuNjg3NSIgeTI9IjE4Ny42ODc1Ii8+PGxpbmUgc3R5bGU9InN0cm9rZTojMTgxODE4O3N0cm9rZS13aWR0aDoxLjA7IiB4MT0iMjc0IiB4Mj0iMTczLjc1IiB5MT0iMTg3LjY4NzUiIHkyPSIxODcuNjg3NSIvPjxwb2x5Z29uIGZpbGw9IiMxODE4MTgiIHBvaW50cz0iMTgzLjc1LDE4My42ODc1LDE3My43NSwxODcuNjg3NSwxODMuNzUsMTkxLjY4NzUsMTc5Ljc1LDE4Ny42ODc1IiBzdHlsZT0ic3Ryb2tlOiMxODE4MTg7c3Ryb2tlLXdpZHRoOjEuMDsiLz48bGluZSBzdHlsZT0ic3Ryb2tlOiMxODE4MTg7c3Ryb2tlLXdpZHRoOjEuMDsiIHgxPSIxNjEuNzUiIHgyPSIxNjEuNzUiIHkxPSI4Mi44NDM4IiB5Mj0iMTAyLjg0MzgiLz48cG9seWdvbiBmaWxsPSIjMTgxODE4IiBwb2ludHM9IjE1Ny43NSw5Mi44NDM4LDE2MS43NSwxMDIuODQzOCwxNjUuNzUsOTIuODQzOCwxNjEuNzUsOTYuODQzOCIgc3R5bGU9InN0cm9rZTojMTgxODE4O3N0cm9rZS13aWR0aDoxLjA7Ii8+PGxpbmUgc3R5bGU9InN0cm9rZTojMTgxODE4O3N0cm9rZS13aWR0aDoxLjA7IiB4MT0iMTYxLjc1IiB4Mj0iMTYxLjc1IiB5MT0iMTk5LjY4NzUiIHkyPSIyMTkuNjg3NSIvPjxwb2x5Z29uIGZpbGw9IiMxODE4MTgiIHBvaW50cz0iMTU3Ljc1LDIwOS42ODc1LDE2MS43NSwyMTkuNjg3NSwxNjUuNzUsMjA5LjY4NzUsMTYxLjc1LDIxMy42ODc1IiBzdHlsZT0ic3Ryb2tlOiMxODE4MTg7c3Ryb2tlLXdpZHRoOjEuMDsiLz48bGluZSBzdHlsZT0ic3Ryb2tlOiMxODE4MTg7c3Ryb2tlLXdpZHRoOjEuMDsiIHgxPSIxNjEuNzUiIHgyPSIxNjEuNzUiIHkxPSIyNTIuNTMxMyIgeTI9IjI3Mi41MzEzIi8+PHBvbHlnb24gZmlsbD0iIzE4MTgxOCIgcG9pbnRzPSIxNTcuNzUsMjYyLjUzMTMsMTYxLjc1LDI3Mi41MzEzLDE2NS43NSwyNjIuNTMxMywxNjEuNzUsMjY2LjUzMTMiIHN0eWxlPSJzdHJva2U6IzE4MTgxODtzdHJva2Utd2lkdGg6MS4wOyIvPjwhLS1TUkM9W0xLc3gyVzhuNEVwdEF4UENtNEJSMTFrcmk5N3A1clFJeXZRNGxOWlAyRnd6NFNfMk9jMFVwNG5MTVhKU1hNZkJZR0hsZDRka2RPSUVxY2FZelMwWmNrak51MXd0NWRNQVdrUDU1WDNUY0loZHhreXluNW1aNmtMMHdJelFvb1QtU2VaN01IdWpCa1FtVmNyLWlVcTM0ZFc0RHBHakpON3dyM3JLZFNpUl0tLT48L2c+PC9zdmc+;" vertex="1" parent="1">
            <mxGeometry x="500" y="70" width="295.74" height="200" as="geometry" />
          </mxCell>
        </UserObject>
      </root>
    </mxGraphModel>
  </diagram>
  <diagram id="N1MEBsNTLyC3kpECgtLe" name="Page-8">
    <mxGraphModel dx="1916" dy="844" grid="1" gridSize="10" guides="1" tooltips="1" connect="1" arrows="1" fold="1" page="1" pageScale="1" pageWidth="850" pageHeight="1100" math="0" shadow="0">
      <root>
        <mxCell id="0" />
        <mxCell id="1" parent="0" />
        <mxCell id="sqhCrFVyo_pNAnWD-MSJ-5" value="" style="edgeStyle=orthogonalEdgeStyle;rounded=0;orthogonalLoop=1;jettySize=auto;html=1;" edge="1" parent="1" source="sqhCrFVyo_pNAnWD-MSJ-3" target="sqhCrFVyo_pNAnWD-MSJ-4">
          <mxGeometry relative="1" as="geometry" />
        </mxCell>
        <mxCell id="sqhCrFVyo_pNAnWD-MSJ-3" value="start" style="ellipse;whiteSpace=wrap;html=1;aspect=fixed;" vertex="1" parent="1">
          <mxGeometry x="185" y="50" width="40" height="40" as="geometry" />
        </mxCell>
        <mxCell id="sqhCrFVyo_pNAnWD-MSJ-7" value="" style="edgeStyle=orthogonalEdgeStyle;rounded=0;orthogonalLoop=1;jettySize=auto;html=1;" edge="1" parent="1" source="sqhCrFVyo_pNAnWD-MSJ-4" target="sqhCrFVyo_pNAnWD-MSJ-6">
          <mxGeometry relative="1" as="geometry" />
        </mxCell>
        <mxCell id="sqhCrFVyo_pNAnWD-MSJ-4" value="masukkan bil, pangkat" style="shape=parallelogram;perimeter=parallelogramPerimeter;whiteSpace=wrap;html=1;fixedSize=1;" vertex="1" parent="1">
          <mxGeometry x="150" y="120" width="110" height="40" as="geometry" />
        </mxCell>
        <mxCell id="sqhCrFVyo_pNAnWD-MSJ-9" value="" style="edgeStyle=orthogonalEdgeStyle;rounded=0;orthogonalLoop=1;jettySize=auto;html=1;" edge="1" parent="1" source="sqhCrFVyo_pNAnWD-MSJ-6" target="sqhCrFVyo_pNAnWD-MSJ-8">
          <mxGeometry relative="1" as="geometry" />
        </mxCell>
        <mxCell id="sqhCrFVyo_pNAnWD-MSJ-6" value="hasil = 1" style="whiteSpace=wrap;html=1;" vertex="1" parent="1">
          <mxGeometry x="175" y="190" width="60" height="30" as="geometry" />
        </mxCell>
        <mxCell id="sqhCrFVyo_pNAnWD-MSJ-11" value="" style="edgeStyle=orthogonalEdgeStyle;rounded=0;orthogonalLoop=1;jettySize=auto;html=1;" edge="1" parent="1" source="sqhCrFVyo_pNAnWD-MSJ-8" target="sqhCrFVyo_pNAnWD-MSJ-10">
          <mxGeometry relative="1" as="geometry" />
        </mxCell>
        <mxCell id="sqhCrFVyo_pNAnWD-MSJ-8" value="counter = 1" style="whiteSpace=wrap;html=1;" vertex="1" parent="1">
          <mxGeometry x="170" y="250" width="70" height="35" as="geometry" />
        </mxCell>
        <mxCell id="sqhCrFVyo_pNAnWD-MSJ-13" value="" style="edgeStyle=orthogonalEdgeStyle;rounded=0;orthogonalLoop=1;jettySize=auto;html=1;" edge="1" parent="1" source="sqhCrFVyo_pNAnWD-MSJ-10" target="sqhCrFVyo_pNAnWD-MSJ-12">
          <mxGeometry relative="1" as="geometry" />
        </mxCell>
        <mxCell id="sqhCrFVyo_pNAnWD-MSJ-10" value="" style="rhombus;whiteSpace=wrap;html=1;" vertex="1" parent="1">
          <mxGeometry x="190" y="310" width="30" height="27.5" as="geometry" />
        </mxCell>
        <mxCell id="sqhCrFVyo_pNAnWD-MSJ-15" value="" style="edgeStyle=orthogonalEdgeStyle;rounded=0;orthogonalLoop=1;jettySize=auto;html=1;" edge="1" parent="1" source="sqhCrFVyo_pNAnWD-MSJ-12" target="sqhCrFVyo_pNAnWD-MSJ-14">
          <mxGeometry relative="1" as="geometry" />
        </mxCell>
        <mxCell id="sqhCrFVyo_pNAnWD-MSJ-12" value="perkalian hasil dengan bil" style="whiteSpace=wrap;html=1;" vertex="1" parent="1">
          <mxGeometry x="160" y="360" width="90" height="41.25" as="geometry" />
        </mxCell>
        <mxCell id="sqhCrFVyo_pNAnWD-MSJ-17" value="" style="edgeStyle=orthogonalEdgeStyle;rounded=0;orthogonalLoop=1;jettySize=auto;html=1;" edge="1" parent="1" source="sqhCrFVyo_pNAnWD-MSJ-14" target="sqhCrFVyo_pNAnWD-MSJ-16">
          <mxGeometry relative="1" as="geometry" />
        </mxCell>
        <mxCell id="sqhCrFVyo_pNAnWD-MSJ-14" value="counter++" style="whiteSpace=wrap;html=1;" vertex="1" parent="1">
          <mxGeometry x="170" y="430" width="70" height="31.88" as="geometry" />
        </mxCell>
        <mxCell id="sqhCrFVyo_pNAnWD-MSJ-18" style="edgeStyle=orthogonalEdgeStyle;rounded=0;orthogonalLoop=1;jettySize=auto;html=1;entryX=1;entryY=0.5;entryDx=0;entryDy=0;" edge="1" parent="1" source="sqhCrFVyo_pNAnWD-MSJ-16" target="sqhCrFVyo_pNAnWD-MSJ-10">
          <mxGeometry relative="1" as="geometry">
            <Array as="points">
              <mxPoint x="275" y="511" />
              <mxPoint x="275" y="324" />
            </Array>
          </mxGeometry>
        </mxCell>
        <mxCell id="sqhCrFVyo_pNAnWD-MSJ-23" value="" style="edgeStyle=orthogonalEdgeStyle;rounded=0;orthogonalLoop=1;jettySize=auto;html=1;" edge="1" parent="1" source="sqhCrFVyo_pNAnWD-MSJ-16" target="sqhCrFVyo_pNAnWD-MSJ-22">
          <mxGeometry relative="1" as="geometry" />
        </mxCell>
        <mxCell id="sqhCrFVyo_pNAnWD-MSJ-16" value="counter &amp;lt;= pangkat" style="shape=hexagon;perimeter=hexagonPerimeter2;whiteSpace=wrap;html=1;fixedSize=1;" vertex="1" parent="1">
          <mxGeometry x="145" y="490" width="120" height="42.18" as="geometry" />
        </mxCell>
        <mxCell id="sqhCrFVyo_pNAnWD-MSJ-28" value="" style="edgeStyle=orthogonalEdgeStyle;rounded=0;orthogonalLoop=1;jettySize=auto;html=1;" edge="1" parent="1" source="sqhCrFVyo_pNAnWD-MSJ-22" target="sqhCrFVyo_pNAnWD-MSJ-27">
          <mxGeometry relative="1" as="geometry" />
        </mxCell>
        <mxCell id="sqhCrFVyo_pNAnWD-MSJ-22" value="hasil adalah hasil perkalian" style="whiteSpace=wrap;html=1;" vertex="1" parent="1">
          <mxGeometry x="140" y="560" width="130" height="33.27" as="geometry" />
        </mxCell>
        <mxCell id="sqhCrFVyo_pNAnWD-MSJ-27" value="end" style="ellipse;whiteSpace=wrap;html=1;" vertex="1" parent="1">
          <mxGeometry x="185" y="620" width="40" height="39.9" as="geometry" />
        </mxCell>
        <mxCell id="sqhCrFVyo_pNAnWD-MSJ-31" value="" style="edgeStyle=orthogonalEdgeStyle;rounded=0;orthogonalLoop=1;jettySize=auto;html=1;" edge="1" parent="1" source="sqhCrFVyo_pNAnWD-MSJ-29" target="sqhCrFVyo_pNAnWD-MSJ-30">
          <mxGeometry relative="1" as="geometry" />
        </mxCell>
        <mxCell id="sqhCrFVyo_pNAnWD-MSJ-29" value="start" style="ellipse;whiteSpace=wrap;html=1;aspect=fixed;" vertex="1" parent="1">
          <mxGeometry x="520" y="100" width="40" height="40" as="geometry" />
        </mxCell>
        <mxCell id="sqhCrFVyo_pNAnWD-MSJ-34" value="" style="edgeStyle=orthogonalEdgeStyle;rounded=0;orthogonalLoop=1;jettySize=auto;html=1;" edge="1" parent="1" source="sqhCrFVyo_pNAnWD-MSJ-30" target="sqhCrFVyo_pNAnWD-MSJ-33">
          <mxGeometry relative="1" as="geometry" />
        </mxCell>
        <mxCell id="sqhCrFVyo_pNAnWD-MSJ-30" value="masukkan bil, pangkat" style="shape=parallelogram;perimeter=parallelogramPerimeter;whiteSpace=wrap;html=1;fixedSize=1;" vertex="1" parent="1">
          <mxGeometry x="480" y="170" width="120" height="40" as="geometry" />
        </mxCell>
        <mxCell id="sqhCrFVyo_pNAnWD-MSJ-32" style="edgeStyle=orthogonalEdgeStyle;rounded=0;orthogonalLoop=1;jettySize=auto;html=1;exitX=0.5;exitY=1;exitDx=0;exitDy=0;" edge="1" parent="1" source="sqhCrFVyo_pNAnWD-MSJ-30" target="sqhCrFVyo_pNAnWD-MSJ-30">
          <mxGeometry relative="1" as="geometry" />
        </mxCell>
        <mxCell id="sqhCrFVyo_pNAnWD-MSJ-37" value="" style="edgeStyle=orthogonalEdgeStyle;rounded=0;orthogonalLoop=1;jettySize=auto;html=1;" edge="1" parent="1" source="sqhCrFVyo_pNAnWD-MSJ-33" target="sqhCrFVyo_pNAnWD-MSJ-36">
          <mxGeometry relative="1" as="geometry" />
        </mxCell>
        <mxCell id="sqhCrFVyo_pNAnWD-MSJ-39" value="" style="edgeStyle=orthogonalEdgeStyle;rounded=0;orthogonalLoop=1;jettySize=auto;html=1;entryX=0.479;entryY=0.005;entryDx=0;entryDy=0;entryPerimeter=0;" edge="1" parent="1" source="sqhCrFVyo_pNAnWD-MSJ-33" target="sqhCrFVyo_pNAnWD-MSJ-38">
          <mxGeometry relative="1" as="geometry">
            <mxPoint x="660" y="260" as="targetPoint" />
            <Array as="points">
              <mxPoint x="640" y="260" />
            </Array>
          </mxGeometry>
        </mxCell>
        <mxCell id="sqhCrFVyo_pNAnWD-MSJ-33" value="pangkat = 0" style="shape=hexagon;perimeter=hexagonPerimeter2;whiteSpace=wrap;html=1;fixedSize=1;" vertex="1" parent="1">
          <mxGeometry x="495" y="240" width="90" height="40" as="geometry" />
        </mxCell>
        <mxCell id="sqhCrFVyo_pNAnWD-MSJ-42" style="edgeStyle=orthogonalEdgeStyle;rounded=0;orthogonalLoop=1;jettySize=auto;html=1;entryX=0;entryY=0.5;entryDx=0;entryDy=0;" edge="1" parent="1" source="sqhCrFVyo_pNAnWD-MSJ-36" target="sqhCrFVyo_pNAnWD-MSJ-40">
          <mxGeometry relative="1" as="geometry">
            <Array as="points">
              <mxPoint x="450" y="385" />
            </Array>
          </mxGeometry>
        </mxCell>
        <mxCell id="sqhCrFVyo_pNAnWD-MSJ-36" value="hasil = 1" style="whiteSpace=wrap;html=1;" vertex="1" parent="1">
          <mxGeometry x="420" y="301.25" width="60" height="32.5" as="geometry" />
        </mxCell>
        <mxCell id="sqhCrFVyo_pNAnWD-MSJ-41" value="" style="edgeStyle=orthogonalEdgeStyle;rounded=0;orthogonalLoop=1;jettySize=auto;html=1;" edge="1" parent="1" source="sqhCrFVyo_pNAnWD-MSJ-38" target="sqhCrFVyo_pNAnWD-MSJ-40">
          <mxGeometry relative="1" as="geometry">
            <Array as="points">
              <mxPoint x="645" y="385" />
            </Array>
          </mxGeometry>
        </mxCell>
        <mxCell id="sqhCrFVyo_pNAnWD-MSJ-38" value="hasil = pangkatDivideConquer(bil, pangkat)" style="whiteSpace=wrap;html=1;" vertex="1" parent="1">
          <mxGeometry x="520" y="301" width="250" height="32.5" as="geometry" />
        </mxCell>
        <mxCell id="sqhCrFVyo_pNAnWD-MSJ-44" value="" style="edgeStyle=orthogonalEdgeStyle;rounded=0;orthogonalLoop=1;jettySize=auto;html=1;" edge="1" parent="1" source="sqhCrFVyo_pNAnWD-MSJ-40" target="sqhCrFVyo_pNAnWD-MSJ-43">
          <mxGeometry relative="1" as="geometry" />
        </mxCell>
        <mxCell id="sqhCrFVyo_pNAnWD-MSJ-40" value="" style="rhombus;whiteSpace=wrap;html=1;" vertex="1" parent="1">
          <mxGeometry x="520" y="370" width="35" height="30.25" as="geometry" />
        </mxCell>
        <mxCell id="sqhCrFVyo_pNAnWD-MSJ-46" value="" style="edgeStyle=orthogonalEdgeStyle;rounded=0;orthogonalLoop=1;jettySize=auto;html=1;" edge="1" parent="1" source="sqhCrFVyo_pNAnWD-MSJ-43" target="sqhCrFVyo_pNAnWD-MSJ-45">
          <mxGeometry relative="1" as="geometry" />
        </mxCell>
        <mxCell id="sqhCrFVyo_pNAnWD-MSJ-43" value="hasil" style="shape=parallelogram;perimeter=parallelogramPerimeter;whiteSpace=wrap;html=1;fixedSize=1;" vertex="1" parent="1">
          <mxGeometry x="501.25" y="416.62" width="72.5" height="34.63" as="geometry" />
        </mxCell>
        <mxCell id="sqhCrFVyo_pNAnWD-MSJ-45" value="end" style="ellipse;whiteSpace=wrap;html=1;" vertex="1" parent="1">
          <mxGeometry x="516.25" y="480" width="42.5" height="41.43" as="geometry" />
        </mxCell>
      </root>
    </mxGraphModel>
  </diagram>
</mxfile>
